<svg width="90" height="26" viewBox="0 0 90 26" fill="none" xmlns="http://www.w3.org/2000/svg">
<path d="M45.5806 3.54801C46.1213 3.99964 46.3917 4.65955 46.3917 5.52775V9.83571H44.8671L44.7289 8.94948C44.5185 9.28957 44.2093 9.55735 43.8427 9.71705C43.471 9.88636 43.0674 9.97395 42.659 9.9739C42.2447 9.97532 41.8349 9.88773 41.4574 9.71705C41.0872 9.55448 40.7705 9.29045 40.5441 8.95549C40.3062 8.59689 40.185 8.17349 40.1971 7.74332C40.1971 6.92318 40.5386 6.35089 41.2215 6.02644C41.6752 5.82616 42.28 5.72603 43.0361 5.72603H44.7394V5.52775C44.7484 5.36393 44.7223 5.20008 44.6627 5.04721C44.6031 4.89435 44.5114 4.75602 44.3939 4.64153C44.1324 4.41866 43.7953 4.30468 43.4521 4.32309C43.1002 4.32367 42.7543 4.41415 42.4472 4.58595C42.1134 4.77378 41.8264 5.03463 41.6076 5.349L40.4059 4.3366C40.7689 3.86997 41.2356 3.49437 41.7691 3.23962C42.3026 2.98488 42.8881 2.85801 43.4792 2.86907C44.3404 2.86907 45.0408 3.09539 45.5806 3.54801ZM44.1686 8.11133C44.4787 7.82697 44.6774 7.44141 44.7289 7.02382V6.96824H43.2478C42.7121 6.96824 42.3381 7.04685 42.1258 7.20407C42.0337 7.26586 41.9596 7.35096 41.911 7.45069C41.8625 7.55042 41.8412 7.66124 41.8494 7.77186C41.8458 7.8829 41.8691 7.99318 41.9172 8.09333C41.9653 8.19348 42.0369 8.28055 42.1258 8.34715C42.3577 8.50395 42.635 8.57948 42.9144 8.56195C43.3755 8.58289 43.8263 8.42095 44.1686 8.11133Z" fill="black"/>
<path d="M48.3666 8.98402C47.8659 8.32311 47.6156 7.46642 47.6156 6.41397C47.6 5.7626 47.725 5.11553 47.9821 4.51684C48.1963 4.01867 48.55 3.59302 49.0005 3.29115C49.4464 3.00667 49.9662 2.85986 50.495 2.86907C50.8782 2.86774 51.2577 2.94334 51.6111 3.09137C51.9408 3.22077 52.2334 3.42977 52.4628 3.69971V0.18335H54.1241V9.8357H52.4567V9.16277C52.2314 9.44203 51.9344 9.65487 51.5976 9.77862C51.2435 9.91315 50.8678 9.98138 50.489 9.9799C49.5848 9.9759 48.8773 9.64394 48.3666 8.98402ZM52.1744 7.883C52.4618 7.51349 52.605 7.02882 52.6039 6.42899C52.6029 5.82916 52.4598 5.33498 52.1744 4.94644C51.889 4.56791 51.4644 4.37865 50.9006 4.37865C50.3553 4.37865 49.9468 4.5574 49.6749 4.91189C49.403 5.26638 49.2678 5.77258 49.2678 6.42899C49.2678 7.0854 49.4015 7.57057 49.6704 7.91755C49.9393 8.26453 50.3433 8.43577 50.8886 8.43577C51.4634 8.43577 51.8935 8.25151 52.1789 7.883H52.1744Z" fill="black"/>
<path d="M55.0332 3.00415H56.8462L58.4985 7.67111L60.1703 3.00415H61.9728L59.1819 9.8356H57.812L55.0332 3.00415Z" fill="black"/>
<path d="M63.5695 9.48872C63.0797 9.18106 62.6918 8.73523 62.455 8.20745C62.2113 7.65715 62.0888 7.06084 62.096 6.45903C62.091 5.85464 62.2112 5.25577 62.449 4.70009C62.6757 4.16557 63.0504 3.70695 63.529 3.37827C64.0627 3.02645 64.6927 2.84953 65.3315 2.87207C65.9399 2.85057 66.5413 3.00719 67.0619 3.32269C67.5306 3.6246 67.8995 4.05836 68.1224 4.56941C68.3629 5.12423 68.4832 5.72369 68.4754 6.32835C68.4742 6.5413 68.4602 6.75398 68.4333 6.96523H63.7573C63.7719 7.37911 63.9457 7.77138 64.2425 8.06024C64.5279 8.32761 64.9349 8.4613 65.4607 8.4613C65.7707 8.46933 66.0786 8.40748 66.3615 8.28033C66.6444 8.15318 66.8951 7.96399 67.0949 7.72678L68.244 8.73768C67.8983 9.13762 67.4681 9.45573 66.9844 9.66901C66.5007 9.88229 65.9756 9.9854 65.4471 9.97088C64.7878 9.99512 64.1356 9.82763 63.5695 9.48872ZM66.8861 5.7921C66.888 5.70377 66.8835 5.61542 66.8726 5.52774C66.8379 5.1601 66.6585 4.82132 66.3739 4.58594C66.0725 4.35682 65.7008 4.23949 65.3225 4.25398C65.0175 4.24415 64.7163 4.32349 64.4558 4.48229C64.2306 4.62487 64.0487 4.82644 63.93 5.0651C63.8168 5.29024 63.7621 5.54025 63.7708 5.7921H66.8861Z" fill="black"/>
<path d="M69.8467 3.00433H71.523V4.15492C71.6509 3.76609 71.9073 3.43235 72.25 3.20861C72.5774 2.98737 72.9634 2.86914 73.3585 2.86914C73.8181 2.87346 74.267 3.00783 74.6533 3.25668L73.8497 4.72571C73.6025 4.56617 73.3133 4.48406 73.0191 4.48988C72.0177 4.48988 71.5145 5.12676 71.5095 6.40053V9.83578H69.8467V3.00433Z" fill="black"/>
<path d="M77.6894 4.32308V7.79888C77.6794 7.90979 77.6948 8.02151 77.7343 8.1256C77.7739 8.22969 77.8366 8.32342 77.9177 8.39972C78.1021 8.53729 78.3296 8.60441 78.5591 8.58898C78.8424 8.58066 79.1229 8.53003 79.3912 8.43877V9.7636C78.9895 9.89939 78.5685 9.96938 78.1445 9.97089C77.5924 9.99292 77.0512 9.81236 76.6229 9.46319C76.2223 9.12672 76.0221 8.61201 76.0221 7.91905V4.31406H74.915V3.00425H76.0221V1.41505L77.6849 0.18335V3.00425H79.3882V4.32007L77.6894 4.32308Z" fill="black"/>
<path d="M80.791 0.18335H82.5349V1.71998H80.791V0.18335ZM80.8316 3.00726H82.4944V9.8357H80.8316V3.00726Z" fill="black"/>
<path d="M89.1893 3.54801C89.73 3.99964 90.0004 4.65955 90.0004 5.52775V9.83571H88.4728L88.3331 8.94948C88.1227 9.28957 87.8135 9.55735 87.4469 9.71705C87.0729 9.88742 86.6666 9.97503 86.2557 9.9739C85.8414 9.97532 85.4316 9.88773 85.054 9.71705C84.6838 9.55448 84.3672 9.29045 84.1408 8.95549C83.9029 8.59689 83.7817 8.17349 83.7938 7.74332C83.7938 6.92318 84.1358 6.35089 84.8197 6.02644C85.2713 5.82616 85.8757 5.72603 86.6327 5.72603H88.3376V5.52775C88.347 5.36389 88.321 5.19992 88.2614 5.047C88.2018 4.89407 88.1099 4.75578 87.9921 4.64153C87.7305 4.41866 87.3934 4.30468 87.0503 4.32309C86.6989 4.32366 86.3535 4.41415 86.0469 4.58595C85.7139 4.7743 85.4275 5.03507 85.2088 5.349L84.0071 4.3366C84.3701 3.86997 84.8368 3.49437 85.3703 3.23962C85.9038 2.98488 86.4893 2.85801 87.0803 2.86907C87.9465 2.86907 88.6495 3.09539 89.1893 3.54801ZM87.7773 8.11133C88.088 7.82737 88.2867 7.4416 88.3376 7.02382V6.96824H86.8565C86.3198 6.96824 85.9458 7.04685 85.7345 7.20407C85.6424 7.26586 85.5683 7.35096 85.5197 7.45069C85.4712 7.55042 85.4499 7.66124 85.4581 7.77186C85.4545 7.8829 85.4778 7.99318 85.5259 8.09333C85.574 8.19348 85.6456 8.28055 85.7345 8.34715C85.9656 8.5032 86.2417 8.5787 86.5201 8.56195C86.9822 8.58386 87.4343 8.42184 87.7773 8.11133Z" fill="black"/>
<path d="M41.0597 21.4121C40.552 20.7512 40.2982 19.895 40.2982 18.8435C40.2825 18.1917 40.4075 17.5441 40.6647 16.9449C40.8785 16.4469 41.2323 16.0216 41.6831 15.7207C42.1308 15.4338 42.6536 15.2864 43.1852 15.2971C43.5678 15.2967 43.9466 15.3723 44.2997 15.5194C44.6295 15.6488 44.9221 15.8578 45.1514 16.1278V12.6174H46.8127V22.2698H45.1454V21.5848C44.92 21.8641 44.6231 22.0769 44.2862 22.2007C43.9327 22.3352 43.5574 22.4035 43.1792 22.402C42.2739 22.402 41.5674 22.072 41.0597 21.4121ZM44.8675 20.3111C45.1549 19.9416 45.2981 19.4569 45.2971 18.8571C45.2961 18.2572 45.1529 17.763 44.8675 17.3745C44.5821 16.996 44.1575 16.8067 43.5938 16.8067C43.0485 16.8067 42.6414 16.9855 42.3681 17.34C42.0947 17.6945 41.9595 18.2007 41.9595 18.8571C41.9595 19.5135 42.0932 19.9986 42.362 20.3456C42.6309 20.6926 43.035 20.8653 43.5802 20.8653C44.153 20.8653 44.5821 20.6806 44.8675 20.3111Z" fill="black"/>
<path d="M48.7168 12.6174H50.4697V14.1481H48.7168V12.6174ZM48.7589 15.4413H50.4202V22.2698H48.7589V15.4413Z" fill="black"/>
<path d="M53.848 20.9827C54.2706 21.1114 54.7039 21.2019 55.1428 21.2531C55.6398 21.3076 56.1325 21.3954 56.6178 21.5159C56.9904 21.6113 57.3316 21.8024 57.6077 22.0702C57.751 22.2179 57.862 22.3938 57.9336 22.5867C58.0053 22.7796 58.036 22.9853 58.0237 23.1908C58.0385 23.499 57.9674 23.8053 57.8183 24.0756C57.6693 24.3458 57.4482 24.5694 57.1796 24.7214C56.6118 25.0638 55.8452 25.2351 54.8799 25.2351C53.8555 25.2351 53.0664 25.0503 52.5126 24.6808C52.2455 24.5094 52.0281 24.2709 51.882 23.9891C51.736 23.7073 51.6665 23.3922 51.6805 23.0751C51.6804 22.9743 51.6899 22.8737 51.709 22.7747L52.7334 22.1228C52.5028 21.9787 52.3147 21.7759 52.1882 21.5352C52.0618 21.2945 52.0017 21.0245 52.0139 20.7529C52.0104 20.4911 52.0658 20.232 52.176 19.9946C52.2863 19.7572 52.4485 19.5476 52.6508 19.3815C52.2887 18.9406 52.0926 18.3868 52.0965 17.8163C52.09 17.3561 52.223 16.9047 52.4781 16.5215C52.7306 16.1358 53.0817 15.8246 53.495 15.6203C53.9297 15.406 54.4087 15.2969 54.8934 15.3018C55.4587 15.2929 56.0152 15.4417 56.5006 15.7314L57.5386 14.8452L58.4113 15.8967L57.4289 16.6988C57.6218 17.066 57.7213 17.4751 57.7188 17.8899C57.7269 18.3516 57.5967 18.8052 57.3448 19.1922C57.0923 19.5717 56.7406 19.8746 56.3279 20.0679C55.8967 20.278 55.4226 20.3849 54.943 20.3804C54.4914 20.38 54.0443 20.2907 53.6272 20.1175C53.5657 20.1545 53.5153 20.2074 53.4812 20.2705C53.4471 20.3337 53.4306 20.4048 53.4334 20.4765C53.4374 20.7168 53.5756 20.8856 53.848 20.9827ZM55.9509 23.8291C56.2227 23.727 56.3594 23.5648 56.3594 23.344C56.3594 23.1232 56.2348 22.9699 55.9854 22.8933C55.5959 22.7807 55.1974 22.7018 54.7943 22.6575C54.5074 22.629 54.222 22.5884 53.9351 22.5328L53.3343 23.1141C53.3242 23.1503 53.3196 23.1878 53.3207 23.2253C53.3207 23.4927 53.4775 23.6864 53.7909 23.8066C54.1598 23.9358 54.5492 23.9969 54.94 23.9869C55.2846 23.9944 55.6278 23.941 55.9539 23.8291H55.9509ZM54.0748 17.0007C53.9672 17.1127 53.8834 17.2454 53.8287 17.3908C53.774 17.5362 53.7493 17.6912 53.7563 17.8464C53.7439 18.156 53.8515 18.4584 54.0568 18.6905C54.1676 18.8045 54.3018 18.8931 54.4501 18.9504C54.5984 19.0077 54.7573 19.0323 54.9159 19.0225C55.0718 19.033 55.228 19.0095 55.3738 18.9535C55.5196 18.8974 55.6515 18.8103 55.7601 18.698C55.9611 18.461 56.0652 18.1568 56.0515 17.8464C56.0671 17.5358 55.9591 17.2318 55.7511 17.0007C55.6425 16.8926 55.5125 16.8084 55.3695 16.7536C55.2264 16.6987 55.0735 16.6744 54.9204 16.6823C54.7653 16.6753 54.6103 16.6999 54.4649 16.7546C54.3195 16.8094 54.1868 16.8931 54.0748 17.0007Z" fill="black"/>
<path d="M59.4219 12.6174H61.1673V14.1481H59.4219V12.6174ZM59.4639 15.4413H61.1253V22.2698H59.4639V15.4413Z" fill="black"/>
<path d="M65.0024 16.7511V20.227C64.9929 20.3378 65.0085 20.4494 65.048 20.5534C65.0875 20.6575 65.15 20.7512 65.2307 20.8278C65.4155 20.9672 65.6441 21.0359 65.8751 21.0216C66.1579 21.0127 66.4378 20.9621 66.7058 20.8714V22.2007C66.3046 22.3366 65.8841 22.4066 65.4605 22.408C64.9077 22.4305 64.3656 22.2505 63.9359 21.9018C63.5354 21.5653 63.3351 21.0506 63.3351 20.3576V16.7527H62.2266V15.4368H63.3351V13.8431L65.0024 12.6174V15.4413H66.7058V16.7572L65.0024 16.7511Z" fill="black"/>
<path d="M72.876 15.9762C73.4147 16.4288 73.6846 17.0887 73.6856 17.9559V22.2639H72.1625L72.0243 21.3776C71.8135 21.7174 71.5045 21.9851 71.1381 22.1452C70.7604 22.3156 70.3508 22.4038 69.9364 22.4038C69.522 22.4038 69.1124 22.3156 68.7347 22.1452C68.3644 21.9822 68.0474 21.7183 67.82 21.3836C67.5828 21.0253 67.4621 20.6025 67.4745 20.173C67.4745 19.3518 67.816 18.779 68.4989 18.4546C68.9505 18.2543 69.5554 18.1542 70.3134 18.1542H72.0243V17.9589C72.0333 17.795 72.007 17.631 71.9471 17.4781C71.8873 17.3252 71.7953 17.1869 71.6773 17.0727C71.416 16.8494 71.0787 16.7354 70.7355 16.7542C70.3841 16.755 70.0388 16.8455 69.7321 17.0171C69.3991 17.2055 69.1127 17.4662 68.894 17.7802L67.6923 16.7693C68.0553 16.3021 68.5222 15.9261 69.0559 15.6711C69.5897 15.4161 70.1756 15.2891 70.7671 15.3002C71.6323 15.2982 72.3352 15.5235 72.876 15.9762ZM71.4625 20.5395C71.773 20.2552 71.9721 19.8697 72.0243 19.452V19.3964H70.5417C70.007 19.3964 69.633 19.476 69.4212 19.6322C69.3286 19.6936 69.254 19.7786 69.2052 19.8784C69.1563 19.9782 69.135 20.0892 69.1433 20.2C69.1396 20.3112 69.163 20.4217 69.2114 20.5219C69.2598 20.6221 69.3318 20.709 69.4212 20.7753C69.653 20.9323 69.9304 21.0079 70.2098 20.9901C70.6704 21.0106 71.1205 20.8487 71.4625 20.5395Z" fill="black"/>
<path d="M75.8116 21.9589C75.5202 21.6584 75.376 21.2198 75.376 20.6295V12.6174H77.0373V20.5184C77.0373 20.8048 77.199 20.948 77.5224 20.948C77.7006 20.9442 77.8774 20.9164 78.0482 20.8653V22.1947C77.708 22.3273 77.3468 22.3976 76.9817 22.402C76.7667 22.4125 76.5518 22.3785 76.3505 22.3023C76.1492 22.2261 75.9657 22.1091 75.8116 21.9589Z" fill="black"/>
<path d="M19.6772 9.83666V22.2664H14.8901V9.83666C14.9017 9.16566 14.7795 8.49908 14.5307 7.8758C14.2819 7.25251 13.9115 6.68501 13.4411 6.2064C12.9707 5.72779 12.4096 5.34765 11.7907 5.08817C11.1718 4.82868 10.5075 4.69504 9.83636 4.69504C9.16526 4.69504 8.50088 4.82868 7.88198 5.08817C7.26308 5.34765 6.70205 5.72779 6.23162 6.2064C5.76119 6.68501 5.39078 7.25251 5.142 7.8758C4.89322 8.49908 4.77105 9.16566 4.78262 9.83666H0C0 7.2273 1.03656 4.72481 2.88166 2.87971C4.72676 1.03461 7.22925 -0.00195312 9.83861 -0.00195312C12.448 -0.00195312 14.9505 1.03461 16.7956 2.87971C18.6407 4.72481 19.6772 7.2273 19.6772 9.83666Z" fill="black"/>
<path d="M28.2739 18.719C27.3334 18.719 26.4313 19.0926 25.7663 19.7577C25.1012 20.4228 24.7275 21.3248 24.7275 22.2654H31.8219C31.8215 21.3247 31.4475 20.4227 30.7822 19.7576C30.1169 19.0926 29.2147 18.719 28.2739 18.719Z" fill="black"/>
<path d="M9.83561 12.4297C8.5438 12.4295 7.2646 12.6838 6.0711 13.1781C4.87761 13.6724 3.79319 14.397 2.87981 15.3106C1.96643 16.2241 1.24199 17.3086 0.747858 18.5022C0.253731 19.6958 -0.000394183 20.975 4.58937e-07 22.2668H4.78262C4.78222 21.6029 4.91269 20.9455 5.16656 20.3321C5.42043 19.7186 5.79273 19.1613 6.26216 18.6919C6.73159 18.2224 7.28895 17.8501 7.90237 17.5962C8.51579 17.3424 9.17323 17.2119 9.83711 17.2123V12.4297H9.83561Z" fill="black"/>
</svg>
