<svg width="203" height="388" viewBox="0 0 203 388" fill="none" xmlns="http://www.w3.org/2000/svg">
<path d="M32.793 178.216L219.553 365.004" stroke="#C6C6C6" stroke-width="1.48" stroke-miterlimit="10"/>
<path d="M193.261 391.324L6.47266 204.536" stroke="#C6C6C6" stroke-width="1.48" stroke-miterlimit="10"/>
<path d="M32.7927 204.564C30.1893 207.17 26.8716 208.945 23.2592 209.665C19.6468 210.385 15.902 210.017 12.4986 208.609C9.09516 207.2 6.18606 204.813 4.13928 201.751C2.0925 198.688 1 195.088 1 191.404C1 187.721 2.0925 184.12 4.13928 181.058C6.18606 177.995 9.09516 175.609 12.4986 174.2C15.902 172.791 19.6468 172.423 23.2592 173.143C26.8716 173.863 30.1893 175.638 32.7927 178.244C36.2739 181.739 38.2285 186.471 38.2285 191.404C38.2285 196.337 36.2739 201.069 32.7927 204.564V204.564Z" stroke="#C6C6C6" stroke-width="1.48" stroke-miterlimit="10"/>
<path d="M219.581 365.031C222.894 368.557 224.705 373.234 224.63 378.072C224.555 382.91 222.6 387.528 219.179 390.949C215.758 394.371 211.139 396.326 206.301 396.401C201.463 396.476 196.786 394.665 193.261 391.351" stroke="#C6C6C6" stroke-width="1.48" stroke-miterlimit="10"/>
<path d="M32.793 264.119L219.553 450.907" stroke="#C6C6C6" stroke-width="1.48" stroke-miterlimit="10"/>
<path d="M193.261 477.227L6.47266 290.439" stroke="#C6C6C6" stroke-width="1.48" stroke-miterlimit="10"/>
<path d="M32.7927 290.468C30.1893 293.073 26.8716 294.849 23.2592 295.568C19.6468 296.288 15.902 295.921 12.4986 294.512C9.09516 293.103 6.18606 290.717 4.13928 287.654C2.0925 284.592 1 280.991 1 277.308C1 273.624 2.0925 270.023 4.13928 266.961C6.18606 263.899 9.09516 261.512 12.4986 260.103C15.902 258.694 19.6468 258.327 23.2592 259.047C26.8716 259.767 30.1893 261.542 32.7927 264.148C36.2739 267.643 38.2285 272.375 38.2285 277.308C38.2285 282.24 36.2739 286.972 32.7927 290.468Z" stroke="#C6C6C6" stroke-width="1.48" stroke-miterlimit="10"/>
<path d="M32.793 92.3389L219.553 279.099" stroke="#C6C6C6" stroke-width="1.48" stroke-miterlimit="10"/>
<path d="M193.261 305.419L6.47266 118.631" stroke="#C6C6C6" stroke-width="1.48" stroke-miterlimit="10"/>
<path d="M32.7926 118.66C29.2976 122.141 24.5656 124.096 19.6326 124.096C14.6997 124.096 9.96766 122.141 6.47263 118.66C4.74216 116.933 3.36927 114.882 2.43255 112.624C1.49583 110.366 1.01367 107.945 1.01367 105.5C1.01367 103.055 1.49583 100.635 2.43255 98.3764C3.36927 96.1183 4.74216 94.067 6.47263 92.3401C9.96766 88.8589 14.6997 86.9043 19.6326 86.9043C24.5656 86.9043 29.2976 88.8589 32.7926 92.3401C36.2739 95.8351 38.2284 100.567 38.2284 105.5C38.2284 110.433 36.2739 115.165 32.7926 118.66Z" stroke="#C6C6C6" stroke-width="1.48" stroke-miterlimit="10"/>
<path d="M219.581 279.127C222.894 282.653 224.705 287.33 224.63 292.167C224.555 297.005 222.6 301.624 219.179 305.045C215.758 308.466 211.139 310.422 206.301 310.497C201.463 310.572 196.786 308.76 193.261 305.447" stroke="#C6C6C6" stroke-width="1.48" stroke-miterlimit="10"/>
<path d="M32.793 6.43604L219.553 193.224" stroke="#C6C6C6" stroke-width="1.48" stroke-miterlimit="10"/>
<path d="M193.261 219.516L6.47266 32.7559" stroke="#C6C6C6" stroke-width="1.48" stroke-miterlimit="10"/>
<path d="M32.7926 32.7558C31.0657 34.4863 29.0145 35.8591 26.7563 36.7959C24.4981 37.7326 22.0774 38.2147 19.6326 38.2147C17.1879 38.2147 14.7671 37.7326 12.509 36.7959C10.2508 35.8591 8.19955 34.4863 6.47263 32.7558C4.74216 31.0289 3.36927 28.9776 2.43255 26.7194C1.49583 24.4613 1.01367 22.0405 1.01367 19.5958C1.01367 17.1511 1.49583 14.7303 2.43255 12.4721C3.36927 10.214 4.74216 8.16271 6.47263 6.43579C9.96766 2.95456 14.6997 1 19.6326 1C24.5656 1 29.2976 2.95456 32.7926 6.43579C36.2739 9.93082 38.2284 14.6628 38.2284 19.5958C38.2284 24.5288 36.2739 29.2608 32.7926 32.7558V32.7558Z" stroke="#C6C6C6" stroke-width="1.48" stroke-miterlimit="10"/>
<path d="M219.581 193.224C222.894 196.749 224.705 201.426 224.63 206.264C224.555 211.102 222.6 215.721 219.179 219.142C215.758 222.563 211.139 224.518 206.301 224.593C201.463 224.668 196.786 222.857 193.261 219.544" stroke="#C6C6C6" stroke-width="1.48" stroke-miterlimit="10"/>
</svg>
