<svg width="108" height="148" viewBox="0 0 108 148" fill="none" xmlns="http://www.w3.org/2000/svg">
<g opacity="0.6">
<path d="M104.815 141.609C105.442 141.605 106.056 141.788 106.58 142.134C107.103 142.48 107.511 142.974 107.754 143.552C107.996 144.131 108.062 144.768 107.941 145.384C107.821 145.999 107.521 146.565 107.078 147.01C106.636 147.455 106.072 147.758 105.457 147.882C104.842 148.005 104.204 147.944 103.624 147.704C103.045 147.465 102.549 147.059 102.2 146.538C101.851 146.017 101.665 145.404 101.665 144.776C101.665 143.939 101.996 143.136 102.587 142.543C103.177 141.949 103.978 141.614 104.815 141.609Z" fill="#C6C6C6"/>
<path d="M104.815 121.382C105.442 121.378 106.056 121.561 106.58 121.907C107.103 122.253 107.511 122.747 107.754 123.325C107.996 123.904 108.062 124.541 107.941 125.157C107.821 125.772 107.521 126.338 107.078 126.783C106.636 127.228 106.072 127.531 105.457 127.655C104.842 127.778 104.204 127.717 103.624 127.477C103.045 127.238 102.549 126.832 102.2 126.311C101.851 125.79 101.665 125.177 101.665 124.549C101.665 123.712 101.996 122.909 102.587 122.316C103.177 121.722 103.978 121.387 104.815 121.382Z" fill="#C6C6C6"/>
<path d="M104.815 101.155C105.442 101.151 106.056 101.334 106.58 101.68C107.103 102.026 107.511 102.52 107.754 103.098C107.996 103.676 108.062 104.314 107.941 104.929C107.821 105.545 107.521 106.111 107.078 106.556C106.636 107.001 106.072 107.304 105.457 107.428C104.842 107.551 104.204 107.49 103.624 107.25C103.045 107.011 102.549 106.605 102.2 106.084C101.851 105.563 101.665 104.95 101.665 104.322C101.665 103.485 101.996 102.682 102.587 102.089C103.177 101.495 103.978 101.159 104.815 101.155Z" fill="#C6C6C6"/>
<path d="M104.815 80.9273C105.443 80.9238 106.058 81.1071 106.581 81.4538C107.105 81.8005 107.514 82.295 107.756 82.8745C107.997 83.454 108.062 84.0923 107.94 84.7084C107.818 85.3245 107.516 85.8905 107.072 86.3345C106.628 86.7785 106.062 87.0806 105.446 87.2022C104.83 87.3239 104.192 87.2597 103.612 87.0178C103.033 86.7759 102.538 86.3672 102.192 85.8436C101.845 85.32 101.662 84.7052 101.665 84.0773C101.67 83.2433 102.003 82.4447 102.593 81.855C103.183 81.2652 103.981 80.9319 104.815 80.9273Z" fill="#C6C6C6"/>
<path d="M104.815 60.6998C105.443 60.6963 106.058 60.8796 106.581 61.2263C107.105 61.573 107.514 62.0675 107.756 62.647C107.997 63.2265 108.062 63.8648 107.94 64.4809C107.818 65.0969 107.516 65.6629 107.072 66.107C106.628 66.551 106.062 66.853 105.446 66.9747C104.83 67.0963 104.192 67.0321 103.612 66.7902C103.033 66.5483 102.538 66.1396 102.192 65.6161C101.845 65.0925 101.662 64.4777 101.665 63.8498C101.665 63.0143 101.997 62.2131 102.588 61.6224C103.178 61.0316 103.98 60.6998 104.815 60.6998Z" fill="#C6C6C6"/>
<path d="M104.815 40.4551C105.442 40.4517 106.056 40.6345 106.58 40.9804C107.103 41.3263 107.511 41.8198 107.754 42.3983C107.996 42.9768 108.062 43.6142 107.941 44.2298C107.821 44.8453 107.521 45.4114 107.078 45.8561C106.636 46.3008 106.072 46.6043 105.457 46.7279C104.842 46.8515 104.204 46.7899 103.624 46.5506C103.045 46.3114 102.549 45.9055 102.2 45.3842C101.851 44.8629 101.665 44.2498 101.665 43.6226C101.665 42.7856 101.996 41.9825 102.587 41.389C103.177 40.7955 103.978 40.4598 104.815 40.4551Z" fill="#C6C6C6"/>
<path d="M104.815 20.2276C105.442 20.2241 106.056 20.4069 106.58 20.7529C107.103 21.0988 107.511 21.5923 107.754 22.1708C107.996 22.7492 108.062 23.3866 107.941 24.0022C107.821 24.6178 107.521 25.1838 107.078 25.6286C106.636 26.0733 106.072 26.3767 105.457 26.5004C104.842 26.624 104.204 26.5623 103.624 26.3231C103.045 26.0839 102.549 25.6779 102.2 25.1566C101.851 24.6354 101.665 24.0223 101.665 23.3951C101.665 22.558 101.996 21.755 102.587 21.1615C103.177 20.568 103.978 20.2322 104.815 20.2276Z" fill="#C6C6C6"/>
<path d="M104.815 4.83641e-05C105.442 -0.00341691 106.056 0.179404 106.58 0.525339C107.103 0.871274 107.511 1.36475 107.754 1.94322C107.996 2.52169 108.062 3.15911 107.941 3.77469C107.821 4.39027 107.521 4.9563 107.078 5.40104C106.636 5.84577 106.072 6.14919 105.457 6.27283C104.842 6.39647 104.204 6.33478 103.624 6.09556C103.045 5.85634 102.549 5.45038 102.2 4.92911C101.851 4.40785 101.665 3.79475 101.665 3.16754C101.665 2.33049 101.996 1.52747 102.587 0.93395C103.177 0.34043 103.978 0.00467294 104.815 4.83641e-05Z" fill="#C6C6C6"/>
<path d="M85.7251 141.609C86.3516 141.609 86.964 141.795 87.4849 142.143C88.0058 142.491 88.4118 142.986 88.6515 143.565C88.8912 144.143 88.954 144.78 88.8317 145.395C88.7095 146.009 88.4078 146.574 87.9649 147.017C87.5219 147.46 86.9575 147.761 86.343 147.883C85.7286 148.006 85.0917 147.943 84.513 147.703C83.9342 147.464 83.4395 147.058 83.0914 146.537C82.7434 146.016 82.5576 145.403 82.5576 144.777C82.5576 143.937 82.8913 143.131 83.4854 142.537C84.0794 141.943 84.885 141.609 85.7251 141.609Z" fill="#C6C6C6"/>
<path d="M85.7251 121.382C86.3516 121.382 86.964 121.568 87.4849 121.916C88.0058 122.264 88.4118 122.758 88.6515 123.337C88.8912 123.916 88.954 124.553 88.8317 125.167C88.7095 125.782 88.4078 126.346 87.9649 126.789C87.5219 127.232 86.9575 127.534 86.343 127.656C85.7286 127.778 85.0917 127.715 84.513 127.476C83.9342 127.236 83.4395 126.83 83.0914 126.309C82.7434 125.788 82.5576 125.176 82.5576 124.549C82.5576 123.709 82.8913 122.904 83.4854 122.31C84.0794 121.716 84.885 121.382 85.7251 121.382Z" fill="#C6C6C6"/>
<path d="M85.7251 101.155C86.3516 101.155 86.964 101.341 87.4849 101.689C88.0058 102.037 88.4118 102.531 88.6515 103.11C88.8912 103.689 88.954 104.326 88.8317 104.94C88.7095 105.555 88.4078 106.119 87.9649 106.562C87.5219 107.005 86.9575 107.307 86.343 107.429C85.7286 107.551 85.0917 107.488 84.513 107.249C83.9342 107.009 83.4395 106.603 83.0914 106.082C82.7434 105.561 82.5576 104.949 82.5576 104.322C82.5576 103.482 82.8913 102.677 83.4854 102.083C84.0794 101.489 84.885 101.155 85.7251 101.155Z" fill="#C6C6C6"/>
<path d="M85.7252 80.9272C86.3524 80.9273 86.9655 81.1135 87.4867 81.4623C88.008 81.8111 88.414 82.3069 88.6532 82.8867C88.8924 83.4665 88.9541 84.1042 88.8305 84.7192C88.7068 85.3341 88.4034 85.8984 87.9586 86.3407C87.5139 86.783 86.9479 87.0833 86.3323 87.2035C85.7167 87.3237 85.0793 87.2585 84.5008 87.0161C83.9224 86.7736 83.4289 86.3649 83.083 85.8417C82.737 85.3186 82.5542 84.7044 82.5577 84.0772C82.5623 83.2402 82.8981 82.439 83.4916 81.8488C84.0851 81.2585 84.8881 80.9272 85.7252 80.9272Z" fill="#C6C6C6"/>
<path d="M85.7252 60.6998C86.3524 60.6998 86.9655 60.886 87.4867 61.2348C88.008 61.5836 88.414 62.0794 88.6532 62.6592C88.8924 63.239 88.9541 63.8768 88.8305 64.4917C88.7068 65.1066 88.4034 65.6709 87.9586 66.1132C87.5139 66.5555 86.9479 66.8558 86.3323 66.976C85.7167 67.0962 85.0793 67.031 84.5008 66.7886C83.9224 66.5462 83.4289 66.1374 83.083 65.6143C82.737 65.0911 82.5542 64.477 82.5577 63.8498C82.5577 63.4346 82.6397 63.0236 82.7991 62.6402C82.9585 62.2569 83.1921 61.9089 83.4865 61.6162C83.7808 61.3234 84.1301 61.0918 84.5143 60.9345C84.8985 60.7772 85.31 60.6974 85.7252 60.6998Z" fill="#C6C6C6"/>
<path d="M85.7251 40.4551C86.3516 40.4551 86.964 40.6408 87.4849 40.9889C88.0058 41.3369 88.4118 41.8316 88.6515 42.4104C88.8912 42.9892 88.954 43.6261 88.8317 44.2405C88.7095 44.8549 88.4078 45.4193 87.9649 45.8623C87.5219 46.3053 86.9575 46.607 86.343 46.7292C85.7286 46.8514 85.0917 46.7887 84.513 46.549C83.9342 46.3092 83.4395 45.9032 83.0914 45.3823C82.7434 44.8614 82.5576 44.249 82.5576 43.6226C82.5576 42.7825 82.8913 41.9768 83.4854 41.3828C84.0794 40.7888 84.885 40.4551 85.7251 40.4551Z" fill="#C6C6C6"/>
<path d="M85.7251 20.2275C86.3516 20.2275 86.964 20.4133 87.4849 20.7614C88.0058 21.1094 88.4118 21.6041 88.6515 22.1829C88.8912 22.7617 88.954 23.3985 88.8317 24.013C88.7095 24.6274 88.4078 25.1918 87.9649 25.6348C87.5219 26.0778 86.9575 26.3794 86.343 26.5017C85.7286 26.6239 85.0917 26.5612 84.513 26.3214C83.9342 26.0817 83.4395 25.6757 83.0914 25.1548C82.7434 24.6339 82.5576 24.0215 82.5576 23.395C82.5576 22.555 82.8913 21.7493 83.4854 21.1553C84.0794 20.5613 84.885 20.2275 85.7251 20.2275Z" fill="#C6C6C6"/>
<path d="M85.7251 0C86.3516 0 86.964 0.18577 87.4849 0.533819C88.0058 0.881867 88.4118 1.37656 88.6515 1.95535C88.8912 2.53413 88.954 3.17101 88.8317 3.78544C88.7095 4.39987 88.4078 4.96427 87.9649 5.40725C87.5219 5.85023 86.9575 6.1519 86.343 6.27412C85.7286 6.39634 85.0917 6.33361 84.513 6.09387C83.9342 5.85413 83.4395 5.44815 83.0914 4.92726C82.7434 4.40637 82.5576 3.79396 82.5576 3.16749C82.5576 2.32742 82.8913 1.52176 83.4854 0.927737C84.0794 0.333717 84.885 0 85.7251 0V0Z" fill="#C6C6C6"/>
<path d="M66.6353 141.609C67.2617 141.609 67.8741 141.795 68.395 142.143C68.9159 142.491 69.3219 142.986 69.5616 143.565C69.8014 144.143 69.8641 144.78 69.7419 145.395C69.6197 146.009 69.318 146.574 68.875 147.017C68.432 147.46 67.8676 147.761 67.2532 147.883C66.6388 148.006 66.0019 147.943 65.4231 147.703C64.8443 147.464 64.3496 147.058 64.0016 146.537C63.6535 146.016 63.4678 145.403 63.4678 144.777C63.4678 143.937 63.8015 143.131 64.3955 142.537C64.9895 141.943 65.7952 141.609 66.6353 141.609Z" fill="#C6C6C6"/>
<path d="M66.6353 121.382C67.2617 121.382 67.8741 121.568 68.395 121.916C68.9159 122.264 69.3219 122.758 69.5616 123.337C69.8014 123.916 69.8641 124.553 69.7419 125.167C69.6197 125.782 69.318 126.346 68.875 126.789C68.432 127.232 67.8676 127.534 67.2532 127.656C66.6388 127.778 66.0019 127.715 65.4231 127.476C64.8443 127.236 64.3496 126.83 64.0016 126.309C63.6535 125.788 63.4678 125.176 63.4678 124.549C63.4678 123.709 63.8015 122.904 64.3955 122.31C64.9895 121.716 65.7952 121.382 66.6353 121.382Z" fill="#C6C6C6"/>
<path d="M66.6353 101.155C67.2617 101.155 67.8741 101.341 68.395 101.689C68.9159 102.037 69.3219 102.531 69.5616 103.11C69.8014 103.689 69.8641 104.326 69.7419 104.94C69.6197 105.555 69.318 106.119 68.875 106.562C68.432 107.005 67.8676 107.307 67.2532 107.429C66.6388 107.551 66.0019 107.488 65.4231 107.249C64.8443 107.009 64.3496 106.603 64.0016 106.082C63.6535 105.561 63.4678 104.949 63.4678 104.322C63.4678 103.482 63.8015 102.677 64.3955 102.083C64.9895 101.489 65.7952 101.155 66.6353 101.155Z" fill="#C6C6C6"/>
<path d="M66.6353 80.9272C67.2625 80.9273 67.8756 81.1135 68.3969 81.4623C68.9181 81.8111 69.3241 82.3069 69.5633 82.8867C69.8025 83.4665 69.8642 84.1042 69.7406 84.7192C69.617 85.3341 69.3135 85.8984 68.8688 86.3407C68.4241 86.783 67.858 87.0833 67.2425 87.2035C66.6269 87.3237 65.9895 87.2585 65.411 87.0161C64.8325 86.7736 64.339 86.3649 63.9931 85.8417C63.6472 85.3186 63.4644 84.7044 63.4678 84.0772C63.4724 83.2402 63.8082 82.439 64.4017 81.8488C64.9952 81.2585 65.7983 80.9272 66.6353 80.9272Z" fill="#C6C6C6"/>
<path d="M66.6353 60.6998C67.2625 60.6998 67.8756 60.886 68.3969 61.2348C68.9181 61.5836 69.3241 62.0794 69.5633 62.6592C69.8025 63.239 69.8642 63.8768 69.7406 64.4917C69.617 65.1066 69.3135 65.6709 68.8688 66.1132C68.4241 66.5555 67.858 66.8558 67.2425 66.976C66.6269 67.0962 65.9895 67.031 65.411 66.7886C64.8325 66.5462 64.339 66.1374 63.9931 65.6143C63.6472 65.0911 63.4644 64.477 63.4678 63.8498C63.4678 63.4346 63.5499 63.0236 63.7093 62.6402C63.8687 62.2569 64.1023 61.9089 64.3966 61.6162C64.691 61.3234 65.0403 61.0918 65.4245 60.9345C65.8087 60.7772 66.2202 60.6974 66.6353 60.6998Z" fill="#C6C6C6"/>
<path d="M66.6353 40.4551C67.2617 40.4551 67.8741 40.6408 68.395 40.9889C68.9159 41.3369 69.3219 41.8316 69.5616 42.4104C69.8014 42.9892 69.8641 43.6261 69.7419 44.2405C69.6197 44.8549 69.318 45.4193 68.875 45.8623C68.432 46.3053 67.8676 46.607 67.2532 46.7292C66.6388 46.8514 66.0019 46.7887 65.4231 46.549C64.8443 46.3092 64.3496 45.9032 64.0016 45.3823C63.6535 44.8614 63.4678 44.249 63.4678 43.6226C63.4678 42.7825 63.8015 41.9768 64.3955 41.3828C64.9895 40.7888 65.7952 40.4551 66.6353 40.4551Z" fill="#C6C6C6"/>
<path d="M66.6353 20.2275C67.2617 20.2275 67.8741 20.4133 68.395 20.7614C68.9159 21.1094 69.3219 21.6041 69.5616 22.1829C69.8014 22.7617 69.8641 23.3985 69.7419 24.013C69.6197 24.6274 69.318 25.1918 68.875 25.6348C68.432 26.0778 67.8676 26.3794 67.2532 26.5017C66.6388 26.6239 66.0019 26.5612 65.4231 26.3214C64.8443 26.0817 64.3496 25.6757 64.0016 25.1548C63.6535 24.6339 63.4678 24.0215 63.4678 23.395C63.4678 22.555 63.8015 21.7493 64.3955 21.1553C64.9895 20.5613 65.7952 20.2275 66.6353 20.2275Z" fill="#C6C6C6"/>
<path d="M66.6353 0C67.2617 0 67.8741 0.18577 68.395 0.533819C68.9159 0.881867 69.3219 1.37656 69.5616 1.95535C69.8014 2.53413 69.8641 3.17101 69.7419 3.78544C69.6197 4.39987 69.318 4.96427 68.875 5.40725C68.432 5.85023 67.8676 6.1519 67.2532 6.27412C66.6388 6.39634 66.0019 6.33361 65.4231 6.09387C64.8443 5.85413 64.3496 5.44815 64.0016 4.92726C63.6535 4.40637 63.4678 3.79396 63.4678 3.16749C63.4678 2.32742 63.8015 1.52176 64.3955 0.927737C64.9895 0.333717 65.7952 0 66.6353 0V0Z" fill="#C6C6C6"/>
<path d="M47.5454 141.609C48.1719 141.609 48.7843 141.795 49.3052 142.143C49.8261 142.491 50.2321 142.986 50.4718 143.565C50.7115 144.143 50.7743 144.78 50.6521 145.395C50.5298 146.009 50.2282 146.574 49.7852 147.017C49.3422 147.46 48.7778 147.761 48.1634 147.883C47.5489 148.006 46.9121 147.943 46.3333 147.703C45.7545 147.464 45.2598 147.058 44.9117 146.537C44.5637 146.016 44.3779 145.403 44.3779 144.777C44.3779 143.937 44.7116 143.131 45.3057 142.537C45.8997 141.943 46.7053 141.609 47.5454 141.609Z" fill="#C6C6C6"/>
<path d="M47.5454 121.382C48.1719 121.382 48.7843 121.568 49.3052 121.916C49.8261 122.264 50.2321 122.758 50.4718 123.337C50.7115 123.916 50.7743 124.553 50.6521 125.167C50.5298 125.782 50.2282 126.346 49.7852 126.789C49.3422 127.232 48.7778 127.534 48.1634 127.656C47.5489 127.778 46.9121 127.715 46.3333 127.476C45.7545 127.236 45.2598 126.83 44.9117 126.309C44.5637 125.788 44.3779 125.176 44.3779 124.549C44.3779 123.709 44.7116 122.904 45.3057 122.31C45.8997 121.716 46.7053 121.382 47.5454 121.382Z" fill="#C6C6C6"/>
<path d="M47.5454 101.155C48.1719 101.155 48.7843 101.341 49.3052 101.689C49.8261 102.037 50.2321 102.531 50.4718 103.11C50.7115 103.689 50.7743 104.326 50.6521 104.94C50.5298 105.555 50.2282 106.119 49.7852 106.562C49.3422 107.005 48.7778 107.307 48.1634 107.429C47.5489 107.551 46.9121 107.488 46.3333 107.249C45.7545 107.009 45.2598 106.603 44.9117 106.082C44.5637 105.561 44.3779 104.949 44.3779 104.322C44.3779 103.482 44.7116 102.677 45.3057 102.083C45.8997 101.489 46.7053 101.155 47.5454 101.155Z" fill="#C6C6C6"/>
<path d="M47.5455 80.9272C48.1727 80.9273 48.7858 81.1135 49.307 81.4623C49.8283 81.8111 50.2343 82.3069 50.4735 82.8867C50.7127 83.4665 50.7744 84.1042 50.6508 84.7192C50.5271 85.3341 50.2237 85.8984 49.779 86.3407C49.3342 86.783 48.7682 87.0833 48.1526 87.2035C47.537 87.3237 46.8996 87.2585 46.3211 87.0161C45.7427 86.7736 45.2492 86.3649 44.9033 85.8417C44.5573 85.3186 44.3745 84.7044 44.378 84.0772C44.3826 83.2402 44.7184 82.439 45.3119 81.8488C45.9054 81.2585 46.7084 80.9272 47.5455 80.9272Z" fill="#C6C6C6"/>
<path d="M47.5455 60.6998C48.1727 60.6998 48.7858 60.886 49.307 61.2348C49.8283 61.5836 50.2343 62.0794 50.4735 62.6592C50.7127 63.239 50.7744 63.8768 50.6508 64.4917C50.5271 65.1066 50.2237 65.6709 49.779 66.1132C49.3342 66.5555 48.7682 66.8558 48.1526 66.976C47.537 67.0962 46.8996 67.031 46.3211 66.7886C45.7427 66.5462 45.2492 66.1374 44.9033 65.6143C44.5573 65.0911 44.3745 64.477 44.378 63.8498C44.378 63.4346 44.46 63.0236 44.6194 62.6402C44.7788 62.2569 45.0124 61.9089 45.3068 61.6162C45.6011 61.3234 45.9504 61.0918 46.3346 60.9345C46.7188 60.7772 47.1303 60.6974 47.5455 60.6998Z" fill="#C6C6C6"/>
<path d="M47.5454 40.4551C48.1719 40.4551 48.7843 40.6408 49.3052 40.9889C49.8261 41.3369 50.2321 41.8316 50.4718 42.4104C50.7115 42.9892 50.7743 43.6261 50.6521 44.2405C50.5298 44.8549 50.2282 45.4193 49.7852 45.8623C49.3422 46.3053 48.7778 46.607 48.1634 46.7292C47.5489 46.8514 46.9121 46.7887 46.3333 46.549C45.7545 46.3092 45.2598 45.9032 44.9117 45.3823C44.5637 44.8614 44.3779 44.249 44.3779 43.6226C44.3779 42.7825 44.7116 41.9768 45.3057 41.3828C45.8997 40.7888 46.7053 40.4551 47.5454 40.4551Z" fill="#C6C6C6"/>
<path d="M47.5454 20.2275C48.1719 20.2275 48.7843 20.4133 49.3052 20.7614C49.8261 21.1094 50.2321 21.6041 50.4718 22.1829C50.7115 22.7617 50.7743 23.3985 50.6521 24.013C50.5298 24.6274 50.2282 25.1918 49.7852 25.6348C49.3422 26.0778 48.7778 26.3794 48.1634 26.5017C47.5489 26.6239 46.9121 26.5612 46.3333 26.3214C45.7545 26.0817 45.2598 25.6757 44.9117 25.1548C44.5637 24.6339 44.3779 24.0215 44.3779 23.395C44.3779 22.555 44.7116 21.7493 45.3057 21.1553C45.8997 20.5613 46.7053 20.2275 47.5454 20.2275Z" fill="#C6C6C6"/>
<path d="M47.5454 0C48.1719 0 48.7843 0.18577 49.3052 0.533819C49.8261 0.881867 50.2321 1.37656 50.4718 1.95535C50.7115 2.53413 50.7743 3.17101 50.6521 3.78544C50.5298 4.39987 50.2282 4.96427 49.7852 5.40725C49.3422 5.85023 48.7778 6.1519 48.1634 6.27412C47.5489 6.39634 46.9121 6.33361 46.3333 6.09387C45.7545 5.85413 45.2598 5.44815 44.9117 4.92726C44.5637 4.40637 44.3779 3.79396 44.3779 3.16749C44.3779 2.32742 44.7116 1.52176 45.3057 0.927737C45.8997 0.333717 46.7053 0 47.5454 0V0Z" fill="#C6C6C6"/>
<path d="M28.4381 141.609C29.0653 141.605 29.6794 141.788 30.2026 142.134C30.7258 142.48 31.1345 142.974 31.3769 143.552C31.6193 144.131 31.6846 144.768 31.5643 145.384C31.4441 145.999 31.1438 146.565 30.7015 147.01C30.2593 147.455 29.6949 147.758 29.08 147.882C28.4651 148.005 27.8273 147.944 27.2475 147.704C26.6677 147.465 26.172 147.059 25.8231 146.538C25.4743 146.017 25.2881 145.404 25.2881 144.776C25.2881 143.939 25.6194 143.136 26.2096 142.543C26.7999 141.949 27.601 141.614 28.4381 141.609Z" fill="#C6C6C6"/>
<path d="M28.4381 121.382C29.0653 121.378 29.6794 121.561 30.2026 121.907C30.7258 122.253 31.1345 122.747 31.3769 123.325C31.6193 123.904 31.6846 124.541 31.5643 125.157C31.4441 125.772 31.1438 126.338 30.7015 126.783C30.2593 127.228 29.6949 127.531 29.08 127.655C28.4651 127.778 27.8273 127.717 27.2475 127.477C26.6677 127.238 26.172 126.832 25.8231 126.311C25.4743 125.79 25.2881 125.177 25.2881 124.549C25.2881 123.712 25.6194 122.909 26.2096 122.316C26.7999 121.722 27.601 121.387 28.4381 121.382Z" fill="#C6C6C6"/>
<path d="M28.4381 101.155C29.0653 101.151 29.6794 101.334 30.2026 101.68C30.7258 102.026 31.1345 102.52 31.3769 103.098C31.6193 103.676 31.6846 104.314 31.5643 104.929C31.4441 105.545 31.1438 106.111 30.7015 106.556C30.2593 107.001 29.6949 107.304 29.08 107.428C28.4651 107.551 27.8273 107.49 27.2475 107.25C26.6677 107.011 26.172 106.605 25.8231 106.084C25.4743 105.563 25.2881 104.95 25.2881 104.322C25.2881 103.485 25.6194 102.682 26.2096 102.089C26.7999 101.495 27.601 101.159 28.4381 101.155Z" fill="#C6C6C6"/>
<path d="M28.4371 80.9273C29.0651 80.9238 29.6799 81.1071 30.2035 81.4538C30.727 81.8005 31.1357 82.295 31.3776 82.8745C31.6195 83.454 31.6837 84.0923 31.5621 84.7084C31.4404 85.3245 31.1384 85.8905 30.6944 86.3345C30.2503 86.7785 29.6843 87.0806 29.0683 87.2022C28.4522 87.3239 27.8139 87.2597 27.2344 87.0178C26.6549 86.7759 26.1604 86.3672 25.8137 85.8436C25.467 85.32 25.2837 84.7052 25.2872 84.0773C25.2918 83.2433 25.6251 82.4447 26.2148 81.855C26.8046 81.2652 27.6031 80.9319 28.4371 80.9273Z" fill="#C6C6C6"/>
<path d="M28.4371 60.6998C29.0651 60.6963 29.6799 60.8796 30.2035 61.2263C30.727 61.573 31.1357 62.0675 31.3776 62.647C31.6195 63.2265 31.6837 63.8648 31.5621 64.4809C31.4404 65.0969 31.1384 65.6629 30.6944 66.107C30.2503 66.551 29.6843 66.853 29.0683 66.9747C28.4522 67.0963 27.8139 67.0321 27.2344 66.7902C26.6549 66.5483 26.1604 66.1396 25.8137 65.6161C25.467 65.0925 25.2837 64.4777 25.2872 63.8498C25.2872 63.0143 25.619 62.2131 26.2098 61.6224C26.8005 61.0316 27.6017 60.6998 28.4371 60.6998Z" fill="#C6C6C6"/>
<path d="M28.4381 40.4551C29.0653 40.4517 29.6794 40.6345 30.2026 40.9804C30.7258 41.3263 31.1345 41.8198 31.3769 42.3983C31.6193 42.9768 31.6846 43.6142 31.5643 44.2298C31.4441 44.8453 31.1438 45.4114 30.7015 45.8561C30.2593 46.3008 29.6949 46.6043 29.08 46.7279C28.4651 46.8515 27.8273 46.7899 27.2475 46.5506C26.6677 46.3114 26.172 45.9055 25.8231 45.3842C25.4743 44.8629 25.2881 44.2498 25.2881 43.6226C25.2881 42.7856 25.6194 41.9825 26.2096 41.389C26.7999 40.7955 27.601 40.4598 28.4381 40.4551Z" fill="#C6C6C6"/>
<path d="M28.4381 20.2276C29.0653 20.2241 29.6794 20.4069 30.2026 20.7529C30.7258 21.0988 31.1345 21.5923 31.3769 22.1708C31.6193 22.7492 31.6846 23.3866 31.5643 24.0022C31.4441 24.6178 31.1438 25.1838 30.7015 25.6286C30.2593 26.0733 29.6949 26.3767 29.08 26.5004C28.4651 26.624 27.8273 26.5623 27.2475 26.3231C26.6677 26.0839 26.172 25.6779 25.8231 25.1566C25.4743 24.6354 25.2881 24.0223 25.2881 23.3951C25.2881 22.558 25.6194 21.755 26.2096 21.1615C26.7999 20.568 27.601 20.2322 28.4381 20.2276Z" fill="#C6C6C6"/>
<path d="M28.4381 4.83641e-05C29.0653 -0.00341691 29.6794 0.179404 30.2026 0.525339C30.7258 0.871274 31.1345 1.36475 31.3769 1.94322C31.6193 2.52169 31.6846 3.15911 31.5643 3.77469C31.4441 4.39027 31.1438 4.9563 30.7015 5.40104C30.2593 5.84577 29.6949 6.14919 29.08 6.27283C28.4651 6.39647 27.8273 6.33478 27.2475 6.09556C26.6677 5.85634 26.172 5.45038 25.8231 4.92911C25.4743 4.40785 25.2881 3.79475 25.2881 3.16754C25.2881 2.33049 25.6194 1.52747 26.2096 0.93395C26.7999 0.34043 27.601 0.00467294 28.4381 4.83641e-05Z" fill="#C6C6C6"/>
<path d="M9.34718 141.609C9.97365 141.609 10.5861 141.795 11.1069 142.143C11.6278 142.491 12.0338 142.986 12.2736 143.565C12.5133 144.143 12.576 144.78 12.4538 145.395C12.3316 146.009 12.0299 146.574 11.5869 147.017C11.144 147.46 10.5796 147.761 9.96513 147.883C9.3507 148.006 8.71382 147.943 8.13503 147.703C7.55625 147.464 7.06156 147.058 6.71351 146.537C6.36546 146.016 6.17969 145.403 6.17969 144.777C6.17969 143.937 6.5134 143.131 7.10742 142.537C7.70144 141.943 8.50711 141.609 9.34718 141.609Z" fill="#C6C6C6"/>
<path d="M9.34718 121.382C9.97365 121.382 10.5861 121.568 11.1069 121.916C11.6278 122.264 12.0338 122.758 12.2736 123.337C12.5133 123.916 12.576 124.553 12.4538 125.167C12.3316 125.782 12.0299 126.346 11.5869 126.789C11.144 127.232 10.5796 127.534 9.96513 127.656C9.3507 127.778 8.71382 127.715 8.13503 127.476C7.55625 127.236 7.06156 126.83 6.71351 126.309C6.36546 125.788 6.17969 125.176 6.17969 124.549C6.17969 123.709 6.5134 122.904 7.10742 122.31C7.70144 121.716 8.50711 121.382 9.34718 121.382Z" fill="#C6C6C6"/>
<path d="M9.34718 101.155C9.97365 101.155 10.5861 101.341 11.1069 101.689C11.6278 102.037 12.0338 102.531 12.2736 103.11C12.5133 103.689 12.576 104.326 12.4538 104.94C12.3316 105.555 12.0299 106.119 11.5869 106.562C11.144 107.005 10.5796 107.307 9.96513 107.429C9.3507 107.551 8.71382 107.488 8.13503 107.249C7.55625 107.009 7.06156 106.603 6.71351 106.082C6.36546 105.561 6.17969 104.949 6.17969 104.322C6.17969 103.482 6.5134 102.677 7.10742 102.083C7.70144 101.489 8.50711 101.155 9.34718 101.155Z" fill="#C6C6C6"/>
<path d="M9.34723 80.9272C9.97444 80.9273 10.5875 81.1135 11.1088 81.4623C11.6301 81.8111 12.036 82.3069 12.2752 82.8867C12.5145 83.4665 12.5762 84.1042 12.4525 84.7192C12.3289 85.3341 12.0255 85.8984 11.5807 86.3407C11.136 86.783 10.57 87.0833 9.95438 87.2035C9.3388 87.3237 8.70138 87.2585 8.12291 87.0161C7.54444 86.7736 7.05096 86.3649 6.70503 85.8417C6.35909 85.3186 6.17627 84.7044 6.17974 84.0772C6.18436 83.2402 6.52012 82.439 7.11364 81.8488C7.70716 81.2585 8.51018 80.9272 9.34723 80.9272Z" fill="#C6C6C6"/>
<path d="M9.34723 60.6998C9.97444 60.6998 10.5875 60.886 11.1088 61.2348C11.6301 61.5836 12.036 62.0794 12.2752 62.6592C12.5145 63.239 12.5762 63.8768 12.4525 64.4917C12.3289 65.1066 12.0255 65.6709 11.5807 66.1132C11.136 66.5555 10.57 66.8558 9.95438 66.976C9.3388 67.0962 8.70138 67.031 8.12291 66.7886C7.54444 66.5462 7.05096 66.1374 6.70503 65.6143C6.35909 65.0911 6.17627 64.477 6.17974 63.8498C6.17973 63.4346 6.26178 63.0236 6.42118 62.6402C6.58057 62.2569 6.81417 61.9089 7.10853 61.6162C7.40289 61.3234 7.75221 61.0918 8.1364 60.9345C8.5206 60.7772 8.93209 60.6974 9.34723 60.6998Z" fill="#C6C6C6"/>
<path d="M9.34718 40.4551C9.97365 40.4551 10.5861 40.6408 11.1069 40.9889C11.6278 41.3369 12.0338 41.8316 12.2736 42.4104C12.5133 42.9892 12.576 43.6261 12.4538 44.2405C12.3316 44.8549 12.0299 45.4193 11.5869 45.8623C11.144 46.3053 10.5796 46.607 9.96513 46.7292C9.3507 46.8514 8.71382 46.7887 8.13503 46.549C7.55625 46.3092 7.06156 45.9032 6.71351 45.3823C6.36546 44.8614 6.17969 44.249 6.17969 43.6226C6.17969 42.7825 6.5134 41.9768 7.10742 41.3828C7.70144 40.7888 8.50711 40.4551 9.34718 40.4551Z" fill="#C6C6C6"/>
<path d="M9.34718 20.2275C9.97365 20.2275 10.5861 20.4133 11.1069 20.7614C11.6278 21.1094 12.0338 21.6041 12.2736 22.1829C12.5133 22.7617 12.576 23.3985 12.4538 24.013C12.3316 24.6274 12.0299 25.1918 11.5869 25.6348C11.144 26.0778 10.5796 26.3794 9.96513 26.5017C9.3507 26.6239 8.71382 26.5612 8.13503 26.3214C7.55625 26.0817 7.06156 25.6757 6.71351 25.1548C6.36546 24.6339 6.17969 24.0215 6.17969 23.395C6.17969 22.555 6.5134 21.7493 7.10742 21.1553C7.70144 20.5613 8.50711 20.2275 9.34718 20.2275Z" fill="#C6C6C6"/>
<path d="M9.34718 0C9.97365 0 10.5861 0.18577 11.1069 0.533819C11.6278 0.881867 12.0338 1.37656 12.2736 1.95535C12.5133 2.53413 12.576 3.17101 12.4538 3.78544C12.3316 4.39987 12.0299 4.96427 11.5869 5.40725C11.144 5.85023 10.5796 6.1519 9.96513 6.27412C9.3507 6.39634 8.71382 6.33361 8.13503 6.09387C7.55625 5.85413 7.06156 5.44815 6.71351 4.92726C6.36546 4.40637 6.17969 3.79396 6.17969 3.16749C6.17969 2.32742 6.5134 1.52176 7.10742 0.927737C7.70144 0.333717 8.50711 0 9.34718 0V0Z" fill="#C6C6C6"/>
</g>
</svg>
