<svg width="19" height="19" viewBox="0 0 19 19" fill="none" xmlns="http://www.w3.org/2000/svg">
<path d="M17.4132 0.584473H1.56637C1.02375 0.584799 0.583876 1.02489 0.583984 1.56773V17.4146C0.584311 17.9572 1.0244 18.3971 1.56724 18.397H10.0991V11.5085H7.78552V8.81232H10.0991V6.82809C10.0991 4.52705 11.5038 3.27461 13.5564 3.27461C14.5396 3.27461 15.3844 3.34789 15.6307 3.38061V5.78558H14.2153C13.0985 5.78558 12.8823 6.31624 12.8823 7.0951V8.81232H15.5524L15.2045 11.5085H12.8823V18.397H17.4132C17.9562 18.3971 18.3964 17.9571 18.3965 17.4142C18.3965 17.414 18.3965 17.4139 18.3965 17.4137V1.56686C18.3963 1.02424 17.9561 0.584364 17.4132 0.584473Z" fill="#FFF9EA"/>
</svg>
