<svg width="18" height="19" viewBox="0 0 18 19" fill="none" xmlns="http://www.w3.org/2000/svg">
<path d="M12.6377 0H5.3623C2.40551 0 0 2.53915 0 5.6602V13.3398C0 16.4608 2.40551 19 5.3623 19H12.6377C15.5945 19 18 16.4608 18 13.3398V5.6602C18 2.53915 15.5945 0 12.6377 0ZM16.1892 13.3398C16.1892 15.4102 14.5991 17.0886 12.6377 17.0886H5.3623C3.40088 17.0886 1.8108 15.4102 1.8108 13.3398V5.6602C1.8108 3.58978 3.40088 1.9114 5.3623 1.9114H12.6377C14.5991 1.9114 16.1892 3.58978 16.1892 5.6602V13.3398Z" fill="#FFF9EA"/>
<path d="M9.00017 4.58569C6.43315 4.58569 4.34473 6.79014 4.34473 9.49973C4.34473 12.2093 6.43315 14.4138 9.00017 14.4138C11.5672 14.4138 13.6556 12.2094 13.6556 9.49973C13.6556 6.79011 11.5672 4.58569 9.00017 4.58569ZM9.00017 12.5024C7.4291 12.5024 6.15553 11.1581 6.15553 9.49977C6.15553 7.84142 7.42913 6.49709 9.00017 6.49709C10.5712 6.49709 11.8448 7.84142 11.8448 9.49977C11.8448 11.1581 10.5712 12.5024 9.00017 12.5024Z" fill="#FFF9EA"/>
<path d="M13.6644 5.80034C14.2805 5.80034 14.7799 5.27315 14.7799 4.62283C14.7799 3.9725 14.2805 3.44531 13.6644 3.44531C13.0483 3.44531 12.5488 3.9725 12.5488 4.62283C12.5488 5.27315 13.0483 5.80034 13.6644 5.80034Z" fill="#FFF9EA"/>
</svg>
