<svg width="121" height="55" viewBox="0 0 121 55" fill="none" xmlns="http://www.w3.org/2000/svg">
<g clip-path="url(#clip0_176_1193)">
<path d="M6.92401 30.3242C7.33959 30.4073 7.75516 30.5735 8.08763 30.7397C8.42009 30.906 8.75256 31.1553 9.0019 31.4047C9.25125 31.654 9.41748 31.9865 9.58371 32.4021C9.74994 32.8176 9.83306 33.2332 9.83306 33.815C9.83306 34.3968 9.74994 34.8955 9.50059 35.3942C9.25124 35.8929 8.91878 36.3085 8.5032 36.641C8.08763 36.9734 7.50582 37.3059 6.84089 37.4721C6.17596 37.6384 5.42792 37.8046 4.59677 37.8046C3.93184 37.8046 3.26691 37.7215 2.6851 37.6383C2.10329 37.5552 1.43836 37.389 0.773438 37.1397C0.856553 36.1423 1.1059 35.1449 1.6046 34.0644C2.10329 34.3137 2.51887 34.48 3.10068 34.5631C3.59938 34.6462 4.09807 34.7293 4.59677 34.7293H5.17858C5.34481 34.7293 5.51104 34.6462 5.67727 34.6462C5.84351 34.5631 5.92662 34.5631 6.00973 34.3968C6.09285 34.2306 6.17596 34.2306 6.17596 34.0644C6.17596 33.8981 6.09286 33.7319 5.92662 33.6488C5.76039 33.5657 5.51104 33.4826 5.2617 33.3995L3.76561 32.9839C3.01757 32.7345 2.35264 32.402 1.85394 31.8202C1.35525 31.3215 1.10591 30.5735 1.10591 29.6592C1.10591 29.0774 1.18902 28.5787 1.43837 28.08C1.68771 27.5813 2.02017 27.1658 2.43575 26.8333C2.85133 26.5008 3.35003 26.2515 3.93184 26.0853C4.51365 25.919 5.17858 25.8359 5.8435 25.8359C6.42531 25.8359 7.00712 25.919 7.67205 26.0021C8.33697 26.0853 9.0019 26.2515 9.58371 26.5008C9.58371 26.9995 9.50059 27.4982 9.33436 27.9969C9.16813 28.5787 9.0019 28.9943 8.75255 29.4099C8.33698 29.2437 7.9214 29.0774 7.33959 28.9943C6.75778 28.8281 6.25908 28.8281 5.8435 28.8281C5.17858 28.8281 4.84612 28.9943 4.84612 29.4099C4.84612 29.5761 4.92923 29.6592 5.09547 29.8255C5.2617 29.9086 5.42793 29.9917 5.67727 30.0748L6.92401 30.3242ZM19.807 33.2332H16.5654V37.4721C16.1499 37.5552 15.8174 37.5552 15.568 37.6383C15.2356 37.6383 14.9862 37.7215 14.7369 37.7215C14.4875 37.7215 14.2382 37.7215 13.9057 37.6383C13.5733 37.6383 13.2408 37.5552 12.9083 37.4721V26.0021C13.2408 25.919 13.5733 25.8359 13.8226 25.8359C14.1551 25.8359 14.4044 25.7528 14.7369 25.7528C14.9862 25.7528 15.3187 25.7528 15.6512 25.8359C15.9836 25.8359 16.3161 25.919 16.5654 26.0021V29.9086H19.807V26.0021C20.1394 25.919 20.4719 25.8359 20.7212 25.8359C21.0537 25.8359 21.303 25.7528 21.6355 25.7528C21.8848 25.7528 22.2173 25.7528 22.5498 25.8359C22.8822 25.8359 23.2147 25.919 23.464 26.0021V37.4721C23.0485 37.5552 22.716 37.5552 22.4667 37.6383C22.1342 37.6383 21.8848 37.7215 21.6355 37.7215C21.3861 37.7215 21.1368 37.7215 20.8043 37.6383C20.4719 37.6383 20.1394 37.5552 19.807 37.4721V33.2332ZM31.6094 34.9787C31.7756 34.9787 31.9418 34.9786 32.1912 34.8955C32.4405 34.8955 32.6068 34.8124 32.773 34.8124V32.4021H31.5263C31.0276 32.4021 30.612 32.4852 30.1964 32.7345C29.864 32.9839 29.6977 33.2332 29.6977 33.6488C29.6977 33.9813 29.7808 34.1475 29.864 34.3137C30.0302 34.4799 30.1964 34.6462 30.3626 34.7293C30.5289 34.8124 30.7782 34.8955 31.0276 34.8955C31.1938 34.9786 31.4432 34.9787 31.6094 34.9787ZM26.4562 33.7319C26.4562 32.9839 26.6224 32.4021 26.9549 31.9034C27.2874 31.4047 27.6198 31.0722 28.1185 30.7397C28.6172 30.4904 29.1159 30.241 29.6977 30.1579C30.2795 30.0748 30.8613 29.9917 31.4432 29.9917H32.773C32.773 29.7424 32.6899 29.493 32.5237 29.3268C32.3574 29.1605 32.1912 28.9943 32.025 28.9112C31.8587 28.8281 31.6094 28.745 31.36 28.745C31.1107 28.745 30.8613 28.6618 30.612 28.6618C30.2795 28.6618 29.864 28.6619 29.3653 28.745C28.8666 28.8281 28.451 28.9943 27.9523 29.1605C27.7861 28.9112 27.7029 28.6618 27.6198 28.4956C27.5367 28.3294 27.4536 28.08 27.3705 27.8307C27.2874 27.5813 27.2874 27.4151 27.2874 27.1658V26.4177C27.9523 26.1684 28.7003 26.0022 29.3653 25.919C30.0302 25.8359 30.6951 25.7528 31.2769 25.7528C32.025 25.7528 32.6899 25.8359 33.3548 26.0021C33.9366 26.1684 34.5184 26.5008 34.934 26.8333C35.3496 27.2489 35.6821 27.7476 35.9314 28.3294C36.1807 28.9112 36.2639 29.6592 36.2639 30.4904V36.9734C35.6821 37.1397 35.0171 37.3059 34.2691 37.4721C33.521 37.6384 32.6899 37.7215 31.7756 37.7215C31.0276 37.7215 30.2795 37.6384 29.6977 37.4721C29.0328 37.3059 28.5341 37.1396 28.0354 36.8072C27.6198 36.4747 27.2042 36.0591 26.9549 35.5604C26.6224 35.1449 26.4562 34.48 26.4562 33.7319ZM44.1599 25.8359C44.7417 25.8359 45.3235 25.919 45.9053 26.0021C46.4871 26.0853 47.0689 26.3346 47.4845 26.584C47.9001 26.4177 48.3157 26.2515 48.8143 26.0853C49.313 25.919 49.8949 25.8359 50.5598 25.8359C51.1416 25.8359 51.7234 25.919 52.3052 26.0021C52.887 26.0853 53.4688 26.3346 53.9675 26.6671C54.4662 26.9995 54.8818 27.4982 55.1311 28.1632C55.4636 28.8281 55.6298 29.7424 55.6298 30.8229V37.4721C55.2143 37.5552 54.8818 37.5552 54.6324 37.6383H52.9701C52.6377 37.6383 52.3052 37.5552 51.9727 37.4721V31.2384C51.9727 30.4904 51.8065 29.9086 51.5572 29.5761C51.3078 29.2437 50.8922 29.0774 50.2273 29.0774C50.0611 29.0774 49.8117 29.0774 49.6455 29.1605C49.4793 29.2437 49.313 29.2437 49.2299 29.2437C49.3962 29.7424 49.3962 30.3242 49.3962 30.9891V37.4721C48.9806 37.5552 48.6481 37.5552 48.3988 37.6383H46.7365C46.404 37.6383 46.0715 37.5552 45.7391 37.4721V31.2384C45.7391 30.4904 45.656 29.9086 45.4066 29.5761C45.1573 29.2437 44.7417 29.0774 44.1599 29.0774C43.9936 29.0774 43.8274 29.0774 43.6612 29.1605C43.4949 29.1605 43.3287 29.2437 43.3287 29.2437V37.5552C42.9131 37.6384 42.5807 37.6383 42.3313 37.7215H40.669C40.3365 37.7215 40.0041 37.6384 39.6716 37.5552V26.6671C40.1703 26.5008 40.8352 26.3346 41.5002 26.1684C42.082 25.919 42.9963 25.8359 44.1599 25.8359ZM64.0245 28.5787C63.5258 28.5787 63.1934 28.745 62.8609 28.9943C62.5285 29.3268 62.3622 29.7424 62.2791 30.4073H65.77C65.77 29.9086 65.6037 29.493 65.2713 29.0774C64.9388 28.745 64.5232 28.5787 64.0245 28.5787ZM62.2791 32.9839C62.4453 33.5657 62.6947 33.9813 63.1102 34.2306C63.5258 34.48 64.0245 34.6462 64.6895 34.6462C65.105 34.6462 65.6037 34.5631 66.1024 34.48C66.6011 34.3968 67.1829 34.2306 67.6816 33.9813C67.8478 34.3968 68.0972 34.8124 68.1803 35.3942C68.2634 35.976 68.4297 36.4747 68.4297 37.0565C67.0998 37.5552 65.77 37.8046 64.4401 37.8046C63.3596 37.8046 62.5284 37.6384 61.6973 37.389C60.9492 37.0565 60.3674 36.641 59.8687 36.1423C59.37 35.6436 59.0376 34.9787 58.7882 34.2306C58.5389 33.4826 58.4558 32.7345 58.4558 31.8202C58.4558 30.9891 58.5389 30.1579 58.7882 29.4099C59.0376 28.6618 59.37 27.9969 59.8687 27.4982C60.3674 26.9164 60.9492 26.5008 61.6142 26.1684C62.2791 25.8359 63.1103 25.6697 64.0245 25.6697C64.7726 25.6697 65.5206 25.8359 66.1024 26.0853C66.6842 26.3346 67.1829 26.7502 67.6816 27.1658C68.0972 27.6645 68.4297 28.1632 68.679 28.8281C68.9284 29.493 69.0115 30.241 69.0115 30.9891C69.0115 31.4047 69.0115 31.7371 68.9284 32.0696C68.9284 32.4021 68.8452 32.6514 68.8452 32.8176H62.2791V32.9839Z" fill="#EE463A"/>
<path d="M75.66 34.3968H79.8158C79.8989 34.7293 79.8989 34.9786 79.982 35.228V36.7241C79.982 36.9734 79.8989 37.2228 79.8158 37.5552H72.0029V26.0852C72.3354 26.0021 72.6678 25.919 72.9172 25.919C73.2497 25.919 73.499 25.8359 73.8315 25.8359C74.0808 25.8359 74.4133 25.8359 74.7457 25.919C75.0782 25.919 75.4107 26.0021 75.66 26.0852V34.3968ZM87.2962 28.5787C86.7975 28.5787 86.4651 28.7449 86.1326 28.9943C85.8001 29.3267 85.6339 29.7423 85.5508 30.4073H89.0416C89.0416 29.9086 88.8754 29.493 88.543 29.0774C88.2936 28.7449 87.878 28.5787 87.2962 28.5787ZM85.5508 32.9839C85.717 33.5657 85.9664 33.9812 86.3819 34.2306C86.7975 34.4799 87.2962 34.6462 87.9611 34.6462C88.3767 34.6462 88.8754 34.563 89.3741 34.4799C89.8728 34.3968 90.4546 34.2306 90.9533 33.9812C91.1195 34.3968 91.3689 34.8124 91.452 35.3942C91.6182 35.8929 91.7014 36.4747 91.7014 37.0565C90.3715 37.5552 89.0416 37.8046 87.7118 37.8046C86.6313 37.8046 85.8001 37.6383 84.969 37.389C84.2209 37.0565 83.6391 36.6409 83.1404 36.1422C82.6417 35.6436 82.3093 34.9786 82.0599 34.2306C81.8106 33.4826 81.7275 32.7345 81.7275 31.8202C81.7275 30.9891 81.8106 30.1579 82.0599 29.4099C82.3093 28.6618 82.6417 27.9969 83.1404 27.4982C83.6391 26.9164 84.2209 26.5008 84.8859 26.1684C85.5508 25.8359 86.3819 25.6697 87.2962 25.6697C88.0443 25.6697 88.7923 25.8359 89.3741 26.0852C89.9559 26.3346 90.4546 26.7502 90.9533 27.1658C91.3689 27.6644 91.7013 28.1631 91.9507 28.8281C92.2 29.493 92.2832 30.241 92.2832 30.9891C92.2832 31.4046 92.2832 31.7371 92.2 32.0696C92.2 32.402 92.1169 32.6514 92.1169 32.8176H85.5508V32.9839ZM100.678 30.3241C101.093 30.4073 101.509 30.5735 101.841 30.7397C102.174 30.906 102.506 31.1553 102.756 31.4046C103.005 31.654 103.171 31.9865 103.338 32.402C103.504 32.8176 103.587 33.2332 103.587 33.815C103.587 34.3968 103.504 34.8955 103.254 35.3942C103.005 35.8929 102.673 36.3085 102.257 36.6409C101.841 36.9734 101.26 37.3059 100.595 37.4721C99.9298 37.6383 99.1818 37.8046 98.3506 37.8046C97.6857 37.8046 97.0208 37.7214 96.4389 37.6383C95.8571 37.5552 95.1922 37.389 94.5273 37.1396C94.6104 36.1423 94.8597 35.1449 95.3584 34.0644C95.8571 34.3137 96.2727 34.4799 96.8545 34.5631C97.3532 34.6462 97.8519 34.7293 98.3506 34.7293H98.9324C99.0986 34.7293 99.2649 34.6462 99.4311 34.6462C99.5973 34.5631 99.6805 34.563 99.7636 34.3968C99.8467 34.3137 99.9298 34.2306 99.9298 34.0644C99.9298 33.8981 99.8467 33.7319 99.6805 33.6488C99.5142 33.5657 99.2649 33.4826 99.0155 33.3994L97.5195 32.9839C96.7714 32.7345 96.1065 32.402 95.6078 31.8202C95.1091 31.3215 94.8597 30.5735 94.8597 29.6592C94.8597 29.0774 94.9429 28.5787 95.1922 28.08C95.4416 27.5813 95.774 27.1657 96.1896 26.8333C96.6052 26.5008 97.1039 26.2515 97.6857 26.0852C98.2675 25.919 98.9324 25.8359 99.5973 25.8359C100.179 25.8359 100.761 25.919 101.426 26.0021C102.091 26.0852 102.756 26.2515 103.338 26.5008C103.338 26.9995 103.254 27.4982 103.088 27.9969C102.922 28.5787 102.756 28.9943 102.506 29.4099C102.091 29.2436 101.675 29.0774 101.093 28.9943C100.512 28.8281 100.013 28.8281 99.5973 28.8281C98.9324 28.8281 98.6 28.9943 98.6 29.4099C98.6 29.5761 98.6831 29.6592 98.8493 29.8254C99.0155 29.9086 99.1818 29.9917 99.4311 30.0748L100.678 30.3241ZM112.065 30.3241C112.48 30.4073 112.896 30.5735 113.228 30.7397C113.561 30.906 113.893 31.1553 114.143 31.4046C114.392 31.654 114.558 31.9865 114.724 32.402C114.891 32.8176 114.974 33.2332 114.974 33.815C114.974 34.3968 114.891 34.8955 114.641 35.3942C114.392 35.8929 114.059 36.3085 113.644 36.6409C113.228 36.9734 112.647 37.3059 111.982 37.4721C111.317 37.6383 110.569 37.8046 109.737 37.8046C109.073 37.8046 108.408 37.7214 107.826 37.6383C107.244 37.5552 106.579 37.389 105.914 37.1396C105.997 36.1423 106.247 35.1449 106.745 34.0644C107.244 34.3137 107.66 34.4799 108.241 34.5631C108.74 34.6462 109.239 34.7293 109.737 34.7293H110.319C110.486 34.7293 110.652 34.6462 110.818 34.6462C110.984 34.5631 111.067 34.563 111.15 34.3968C111.234 34.3137 111.317 34.2306 111.317 34.0644C111.317 33.8981 111.234 33.7319 111.067 33.6488C110.901 33.5657 110.652 33.4826 110.402 33.3994L108.906 32.9839C108.158 32.7345 107.493 32.402 106.995 31.8202C106.496 31.3215 106.247 30.5735 106.247 29.6592C106.247 29.0774 106.33 28.5787 106.579 28.08C106.828 27.5813 107.161 27.1657 107.576 26.8333C107.992 26.5008 108.491 26.2515 109.073 26.0852C109.654 25.919 110.319 25.8359 110.984 25.8359C111.566 25.8359 112.148 25.919 112.813 26.0021C113.478 26.0852 114.143 26.2515 114.724 26.5008C114.724 26.9995 114.641 27.4982 114.475 27.9969C114.309 28.5787 114.143 28.9943 113.893 29.4099C113.478 29.2436 113.062 29.0774 112.48 28.9943C111.898 28.8281 111.4 28.8281 110.984 28.8281C110.319 28.8281 109.987 28.9943 109.987 29.4099C109.987 29.5761 110.07 29.6592 110.236 29.8254C110.402 29.9086 110.569 29.9917 110.818 30.0748L112.065 30.3241ZM100.761 9.87766C99.8467 11.3737 97.935 11.9556 96.4389 11.0413C94.9429 10.127 94.4442 8.21535 95.2753 6.63615C96.1896 5.14007 98.1013 4.55826 99.5973 5.47254C101.093 6.38681 101.592 8.38158 100.761 9.87766ZM90.9533 10.0439C90.039 11.54 88.1274 12.1218 86.6313 11.2075C85.1352 10.2932 84.6365 8.38159 85.4677 6.8024C86.3819 5.30631 88.2936 4.72448 89.7897 5.63875C91.2858 6.46991 91.8676 8.4647 90.9533 10.0439ZM104.002 4.2258L98.4337 0.984293C98.1844 0.818061 97.8519 0.818061 97.6026 0.984293L93.0312 3.64398L88.7092 1.06739C88.4598 0.901157 88.1274 0.901157 87.878 1.06739L82.3093 4.30892C82.0599 4.47515 81.8937 4.7245 81.8937 5.05696V11.54C81.8937 11.8724 82.0599 12.1218 82.3093 12.288L85.3846 14.1166L85.5508 19.3529C85.5508 19.6853 86.9638 20.5996 87.2131 20.7658L88.4598 21.6801V16.8594C88.4598 16.7763 88.8754 16.61 88.9585 16.61C89.0416 16.61 89.1248 16.6931 89.1248 16.8594V22.2619L91.8676 23.5918V15.6126C91.8676 14.9477 92.4494 14.3659 93.1143 14.3659C93.7792 14.3659 94.3611 14.9477 94.3611 15.6126V23.5918L97.1039 22.2619V16.8594C97.1039 16.7763 97.187 16.61 97.2701 16.61C97.3532 16.61 97.7688 16.6931 97.7688 16.8594V21.6801L99.0155 20.7658C99.2649 20.5996 100.678 19.6853 100.678 19.3529L100.844 14.0335L103.919 12.2049C104.169 12.0387 104.335 11.7893 104.335 11.4569V4.97384C104.418 4.72449 104.252 4.39203 104.002 4.2258Z" fill="#363636"/>
</g>
<defs>
<clipPath id="clip0_176_1193">
<rect width="119.687" height="53.1941" fill="white" transform="translate(0.357422 0.818115)"/>
</clipPath>
</defs>
</svg>
