<svg width="329" height="329" viewBox="0 0 329 329" fill="none" xmlns="http://www.w3.org/2000/svg">
<path d="M328.5 164.5C328.5 255.075 255.075 328.5 164.5 328.5C73.9253 328.5 0.5 255.075 0.5 164.5C0.5 73.9253 73.9253 0.5 164.5 0.5C255.075 0.5 328.5 73.9253 328.5 164.5Z" stroke="#C6C6C6" stroke-miterlimit="10"/>
<path d="M295.013 164.5C295.013 236.581 236.58 295.013 164.5 295.013C92.4192 295.013 33.9863 236.581 33.9863 164.5C33.9863 92.4193 92.4192 33.9865 164.5 33.9865C236.58 33.9865 295.013 92.4193 295.013 164.5Z" stroke="#C6C6C6" stroke-miterlimit="10"/>
<path d="M261.559 164.5C261.559 218.104 218.104 261.558 164.5 261.558C110.896 261.558 67.4414 218.104 67.4414 164.5C67.4414 110.896 110.896 67.4413 164.5 67.4413C218.104 67.4413 261.559 110.896 261.559 164.5Z" stroke="#C6C6C6" stroke-miterlimit="10"/>
<path d="M205.756 116.107C232.47 138.89 235.656 179.016 212.872 205.729C190.089 232.443 149.964 235.629 123.25 212.846C96.5364 190.062 93.3502 149.937 116.134 123.223C138.917 96.5096 179.042 93.3234 205.756 116.107Z" stroke="#C6C6C6" stroke-miterlimit="10"/>
<path d="M185.769 143.226C197.518 154.975 197.518 174.025 185.769 185.774C174.02 197.523 154.971 197.523 143.222 185.774C131.473 174.025 131.473 154.975 143.222 143.226C154.971 131.477 174.02 131.477 185.769 143.226Z" stroke="#C6C6C6" stroke-miterlimit="10"/>
</svg>
