<svg width="204" height="204" viewBox="0 0 204 204" fill="none" xmlns="http://www.w3.org/2000/svg">
<path d="M108.299 -117.3C111.724 -106.603 117.655 -96.8796 125.6 -88.9398C133.544 -81 143.271 -75.0737 153.969 -71.6548V-71.6548C164.662 -68.2224 174.382 -62.2881 182.32 -54.345C190.259 -46.4018 196.188 -36.679 199.614 -25.9843V-25.9843C203.044 -15.2998 208.975 -5.58843 216.914 2.34188C224.853 10.2722 234.571 16.1923 245.259 19.6097V19.6097C255.951 23.0359 265.671 28.965 273.61 36.904C281.549 44.8431 287.478 54.5627 290.904 65.2547V65.2547C294.34 75.9417 300.272 85.6564 308.21 93.5941C316.148 101.532 325.862 107.464 336.549 110.9" stroke="#C6C6C6" stroke-linecap="round" stroke-linejoin="round"/>
<path d="M-25.5254 0.459473C-22.103 11.1535 -16.1751 20.875 -8.23555 28.8146C-0.295957 36.7542 9.42562 42.6821 20.1196 46.1045V46.1045C30.8305 49.5167 40.5706 55.4396 48.5282 63.3795C56.4858 71.3194 62.4305 81.0463 65.8666 91.7495V91.7495C69.283 102.433 75.1964 112.149 83.1165 120.091C91.0367 128.033 100.736 133.974 111.41 137.42C122.102 140.846 131.821 146.775 139.76 154.714C147.699 162.653 153.628 172.373 157.055 183.065C160.476 193.764 166.406 203.489 174.351 211.429C182.296 219.37 192.024 225.295 202.725 228.71" stroke="#C6C6C6" stroke-linecap="round" stroke-linejoin="round"/>
<path d="M-52.2998 23.9961C-48.8734 34.6908 -42.9445 44.4136 -35.0058 52.3567C-27.0671 60.2999 -17.3476 66.2342 -6.65481 69.6666V69.6666C4.04118 73.0853 13.7647 79.0118 21.7049 86.9519C29.645 94.8921 35.5715 104.616 38.9902 115.312V115.312C42.4226 126.004 48.3569 135.724 56.3 143.663C64.2432 151.601 73.966 157.53 84.6607 160.957V160.957C95.3527 164.383 105.072 170.312 113.011 178.251C120.95 186.19 126.88 195.91 130.306 206.602V206.602C133.732 217.294 139.661 227.013 147.6 234.952C155.539 242.891 165.259 248.82 175.951 252.247" stroke="#C6C6C6" stroke-linecap="round" stroke-linejoin="round"/>
<path d="M-79.0752 47.6592C-75.6465 58.354 -69.7135 68.0754 -61.7698 76.0147C-53.8261 83.9539 -44.1014 89.8815 -33.4047 93.3042V93.3042C-22.7098 96.7099 -12.982 102.619 -5.02986 110.54C2.9223 118.461 8.86925 128.166 12.3168 138.847V138.847C15.7395 149.544 21.667 159.269 29.6063 167.212C37.5456 175.156 47.267 181.089 57.9618 184.518V184.518C68.6558 187.94 78.3774 193.868 86.317 201.808C94.2566 209.747 100.184 219.469 103.607 230.163V230.163C107.033 240.855 112.962 250.574 120.901 258.513C128.84 266.452 138.56 272.382 149.252 275.808" stroke="#C6C6C6" stroke-linecap="round" stroke-linejoin="round"/>
<path d="M-105.824 71.0938C-102.405 81.7925 -96.479 91.5192 -88.5392 99.4634C-80.5994 107.408 -70.876 113.339 -60.1792 116.764V116.764C-49.4852 120.187 -39.7637 126.114 -31.8241 134.054C-23.8845 141.994 -17.9566 151.715 -14.5342 162.409V162.409C-11.108 173.101 -5.17894 182.821 2.76012 190.76C10.6992 198.699 20.4188 204.628 31.1108 208.054V208.054C41.8048 211.477 51.5263 217.404 59.4659 225.344C67.4055 233.284 73.3334 243.005 76.7558 253.699V253.699C80.1782 264.393 86.106 274.115 94.0456 282.054C101.985 289.994 111.707 295.922 122.401 299.344" stroke="#C6C6C6" stroke-linecap="round" stroke-linejoin="round"/>
<path d="M-132.6 94.6562C-129.173 105.348 -123.244 115.068 -115.305 123.007C-107.366 130.946 -97.6466 136.875 -86.9546 140.301V140.301C-76.2465 143.713 -66.5095 149.636 -58.556 157.577C-50.6025 165.517 -44.663 175.244 -41.2331 185.946V185.946C-37.8142 196.633 -31.897 206.35 -23.9721 214.292C-16.0473 222.235 -6.34326 228.174 4.33539 231.617V231.617C15.0229 235.026 24.7423 240.936 32.6857 248.858C40.6292 256.779 46.5671 266.482 50.0059 277.16V277.16C53.4283 287.854 59.3561 297.575 67.2957 305.515C75.2353 313.455 84.9569 319.382 95.6509 322.805" stroke="#C6C6C6" stroke-linecap="round" stroke-linejoin="round"/>
</svg>
