<svg width="80" height="80" viewBox="0 0 80 80" fill="none" xmlns="http://www.w3.org/2000/svg">
<path d="M42.4697 -46C43.8128 -41.8052 46.139 -37.9921 49.2544 -34.8784C52.3698 -31.7648 56.1842 -29.4408 60.3797 -28.1V-28.1C64.573 -26.754 68.3845 -24.4268 71.4978 -21.3118C74.611 -18.1969 76.936 -14.384 78.2797 -10.19V-10.19C79.6246 -5.99998 81.9504 -2.19162 85.0638 0.918308C88.1772 4.02823 91.9882 6.34983 96.1797 7.69V7.69C100.373 9.03359 104.184 11.3587 107.298 14.4721C110.411 17.5854 112.736 21.3971 114.08 25.59V25.59C115.427 29.781 117.753 33.5907 120.866 36.7035C123.979 39.8163 127.789 42.1427 131.98 43.49" stroke="#C6C6C6" stroke-linecap="round" stroke-linejoin="round"/>
<path d="M31.9805 -36.76C33.3226 -32.5663 35.6472 -28.7539 38.7608 -25.6403C41.8744 -22.5268 45.6867 -20.2021 49.8805 -18.86V-18.86C54.0826 -17.5232 57.9043 -15.2012 61.0268 -12.0874C64.1492 -8.97363 66.482 -5.15845 67.8305 -0.960011V-0.960011C69.1726 3.23371 71.4972 7.04609 74.6108 10.1597C77.7244 13.2732 81.5367 15.5979 85.7305 16.94V16.94C89.9245 18.2846 93.7368 20.6112 96.8503 23.7264C99.9637 26.8416 102.288 30.6552 103.63 34.85V34.85C104.973 39.0437 107.297 42.8561 110.411 45.9697C113.524 49.0832 117.337 51.4079 121.53 52.75" stroke="#C6C6C6" stroke-linecap="round" stroke-linejoin="round"/>
<path d="M21.4805 -27.53C22.8242 -23.336 25.1492 -19.5232 28.2624 -16.4082C31.3757 -13.2932 35.1872 -10.9661 39.3805 -9.62003V-9.62003C43.575 -8.27938 47.3881 -5.95525 50.5019 -2.84147C53.6157 0.272308 55.9398 4.08546 57.2805 8.27997V8.27997C58.6263 12.4717 60.9522 16.2822 64.0652 19.3952C67.1782 22.5083 70.9887 24.8342 75.1805 26.18V26.18C79.3734 27.5236 83.185 29.8487 86.2984 32.9621C89.4117 36.0754 91.7369 39.887 93.0805 44.08V44.08C94.4263 48.2717 96.7522 52.0822 99.8652 55.1952C102.978 58.3083 106.789 60.6342 110.98 61.98" stroke="#C6C6C6" stroke-linecap="round" stroke-linejoin="round"/>
<path d="M10.9805 -18.3101C12.3241 -14.1171 14.6492 -10.3055 17.7626 -7.19215C20.8759 -4.0788 24.6875 -1.75365 28.8805 -0.410059V-0.410059C33.0841 0.930139 36.9064 3.25577 40.0288 6.37297C43.1512 9.49016 45.4832 13.3086 46.8305 17.5099V17.5099C48.1727 21.7047 50.4972 25.5184 53.6107 28.6335C56.7241 31.7487 60.5364 34.0754 64.7305 35.4199V35.4199C68.9242 36.7621 72.7366 39.0867 75.8501 42.2003C78.9637 45.3138 81.2883 49.1262 82.6305 53.3199V53.3199C83.9726 57.5137 86.2972 61.326 89.4108 64.4396C92.5244 67.5532 96.3367 69.8778 100.53 71.2199" stroke="#C6C6C6" stroke-linecap="round" stroke-linejoin="round"/>
<path d="M0.480469 -9.06006C1.82588 -4.86535 4.15269 -1.05217 7.26763 2.06278C10.3826 5.17772 14.1958 7.50453 18.3905 8.84994V8.84994C22.5842 10.1921 26.3966 12.5167 29.5101 15.6303C32.6237 18.7438 34.9483 22.5562 36.2905 26.7499V26.7499C37.6286 30.9503 39.9513 34.7699 43.065 37.8906C46.1787 41.0112 49.9931 43.3424 54.1905 44.6899V44.6899C58.3842 46.0321 62.1966 48.3567 65.3101 51.4703C68.4237 54.5838 70.7483 58.3962 72.0905 62.5899C73.4326 66.7837 75.7572 70.596 78.8708 73.7096C81.9844 76.8232 85.7967 79.1478 89.9905 80.4899" stroke="#C6C6C6" stroke-linecap="round" stroke-linejoin="round"/>
<path d="M-10.0098 0.180054C-8.66764 4.37378 -6.343 8.18616 -3.22944 11.2997C-0.11587 14.4133 3.69651 16.7379 7.89024 18.0801V18.0801C12.0906 19.4182 15.9102 21.7409 19.0309 24.8546C22.1515 27.9683 24.4827 31.7827 25.8302 35.9801V35.9801C27.17 40.1697 29.489 43.9797 32.5949 47.0943C35.7009 50.209 39.5044 52.5386 43.6902 53.8901C47.8832 55.2336 51.6948 57.5588 54.8081 60.6721C57.9215 63.7855 60.2466 67.5971 61.5902 71.7901C62.9319 75.9857 65.2575 79.7995 68.3731 82.9134C71.4887 86.0272 75.3039 88.3508 79.5002 89.6901" stroke="#C6C6C6" stroke-linecap="round" stroke-linejoin="round"/>
<path d="M-20.5098 9.41003C-19.1661 13.604 -16.841 17.4169 -13.7278 20.5319C-10.6146 23.6468 -6.80302 25.974 -2.60977 27.32V27.32C1.58474 28.6607 5.3979 30.9848 8.51167 34.0986C11.6254 37.2124 13.9496 41.0255 15.2902 45.22V45.22C16.6363 49.4133 18.9634 53.2248 22.0784 56.3381C25.1934 59.4513 29.0062 61.7763 33.2002 63.12V63.12C37.3932 64.4636 41.2048 66.7888 44.3181 69.9021C47.4315 73.0155 49.7566 76.8271 51.1002 81.02V81.02C52.4438 85.213 54.769 89.0246 57.8823 92.1379C60.9957 95.2513 64.8073 97.5764 69.0002 98.92" stroke="#C6C6C6" stroke-linecap="round" stroke-linejoin="round"/>
<path d="M-31.0098 18.6899C-29.6652 22.884 -27.3385 26.6963 -24.2234 29.8097C-21.1082 32.9232 -17.2946 35.2477 -13.0998 36.5899V36.5899C-8.90567 37.9255 -5.09087 40.2428 -1.97238 43.3491C1.14612 46.4554 3.47825 50.2611 4.83023 54.4499V54.4499C6.17247 58.6447 8.497 62.4584 11.6104 65.5735C14.7239 68.6887 18.5362 71.0154 22.7302 72.3599V72.3599C26.924 73.7021 30.7363 76.0267 33.8499 79.1403C36.9635 82.2538 39.2881 86.0662 40.6302 90.2599V90.2599C41.9738 94.4529 44.299 98.2645 47.4123 101.378C50.5257 104.491 54.3373 106.816 58.5302 108.16" stroke="#C6C6C6" stroke-linecap="round" stroke-linejoin="round"/>
<path d="M-41.5 27.88C-40.1592 32.0756 -37.8352 35.89 -34.7216 39.0054C-31.6079 42.1207 -27.7948 44.4469 -23.6 45.79V45.79C-19.4063 47.1321 -15.5939 49.4568 -12.4803 52.5703C-9.36676 55.6839 -7.04212 59.4963 -5.7 63.69V63.69C-4.3564 67.8829 -2.03126 71.6946 1.0821 74.8079C4.19545 77.9213 8.00706 80.2464 12.2 81.59V81.59C16.3937 82.9321 20.2061 85.2568 23.3197 88.3703C26.4332 91.4839 28.7579 95.2963 30.1 99.49V99.49C31.4421 103.684 33.7668 107.496 36.8803 110.61C39.9939 113.723 43.8063 116.048 48 117.39" stroke="#C6C6C6" stroke-linecap="round" stroke-linejoin="round"/>
<path d="M-52 37.12C-50.6564 41.3129 -48.3313 45.1245 -45.2179 48.2379C-42.1045 51.3513 -38.2929 53.6764 -34.1 55.02V55.02C-29.9007 56.358 -26.0823 58.6808 -22.9633 61.7946C-19.8443 64.9084 -17.5151 68.723 -16.17 72.92V72.92C-14.8292 77.1107 -12.5088 80.9214 -9.40099 84.0362C-6.29322 87.1509 -2.48771 89.4799 1.7 90.83V90.83C5.89118 92.1668 9.70272 94.4848 12.8178 97.5912C15.9329 100.698 18.2614 104.503 19.61 108.69V108.69C20.9521 112.884 23.2768 116.696 26.3903 119.81C29.5039 122.923 33.3163 125.248 37.51 126.59" stroke="#C6C6C6" stroke-linecap="round" stroke-linejoin="round"/>
</svg>
