<svg width="80" height="86" viewBox="0 0 80 86" fill="none" xmlns="http://www.w3.org/2000/svg">
<path d="M78.1809 81.5799C78.5393 81.5779 78.8902 81.6823 79.1892 81.88C79.4881 82.0777 79.7217 82.3597 79.8602 82.6902C79.9987 83.0208 80.036 83.385 79.9673 83.7368C79.8986 84.0886 79.727 84.412 79.4743 84.6662C79.2215 84.9203 78.899 85.0937 78.5477 85.1643C78.1963 85.235 77.8319 85.1997 77.5005 85.063C77.1692 84.9263 76.8859 84.6943 76.6866 84.3965C76.4873 84.0986 76.3809 83.7483 76.3809 83.3899C76.3809 82.9115 76.5702 82.4527 76.9075 82.1135C77.2447 81.7744 77.7026 81.5825 78.1809 81.5799Z" fill="#C6C6C6"/>
<path d="M78.1809 70.0215C78.5393 70.0195 78.8902 70.124 79.1892 70.3217C79.4881 70.5194 79.7217 70.8013 79.8602 71.1319C79.9987 71.4624 80.036 71.8267 79.9673 72.1785C79.8986 72.5302 79.727 72.8537 79.4743 73.1078C79.2215 73.3619 78.899 73.5353 78.5477 73.606C78.1963 73.6766 77.8319 73.6414 77.5005 73.5047C77.1692 73.368 76.8859 73.136 76.6866 72.8381C76.4873 72.5403 76.3809 72.1899 76.3809 71.8315C76.3809 71.3532 76.5702 70.8943 76.9075 70.5552C77.2447 70.216 77.7026 70.0242 78.1809 70.0215Z" fill="#C6C6C6"/>
<path d="M78.1809 58.4629C78.5393 58.4609 78.8902 58.5654 79.1892 58.7631C79.4881 58.9608 79.7217 59.2427 79.8602 59.5733C79.9987 59.9039 80.036 60.2681 79.9673 60.6199C79.8986 60.9716 79.727 61.2951 79.4743 61.5492C79.2215 61.8033 78.899 61.9767 78.5477 62.0474C78.1963 62.118 77.8319 62.0828 77.5005 61.9461C77.1692 61.8094 76.8859 61.5774 76.6866 61.2795C76.4873 60.9817 76.3809 60.6313 76.3809 60.2729C76.3809 59.7946 76.5702 59.3357 76.9075 58.9966C77.2447 58.6574 77.7026 58.4656 78.1809 58.4629Z" fill="#C6C6C6"/>
<path d="M78.1809 46.9044C78.5397 46.9025 78.891 47.0072 79.1902 47.2053C79.4894 47.4034 79.7229 47.686 79.8612 48.0172C79.9994 48.3483 80.0361 48.7131 79.9666 49.0651C79.897 49.4171 79.7245 49.7405 79.4707 49.9943C79.217 50.248 78.8936 50.4206 78.5415 50.4901C78.1895 50.5596 77.8247 50.523 77.4936 50.3847C77.1625 50.2465 76.8799 50.013 76.6818 49.7138C76.4836 49.4146 76.3789 49.0633 76.3809 48.7044C76.3835 48.2279 76.574 47.7716 76.911 47.4346C77.248 47.0976 77.7043 46.9071 78.1809 46.9044Z" fill="#C6C6C6"/>
<path d="M78.1809 35.3457C78.5397 35.3438 78.891 35.4485 79.1902 35.6466C79.4894 35.8447 79.7229 36.1273 79.8612 36.4584C79.9994 36.7896 80.0361 37.1543 79.9666 37.5064C79.897 37.8584 79.7245 38.1818 79.4707 38.4356C79.217 38.6893 78.8936 38.8619 78.5415 38.9314C78.1895 39.0009 77.8247 38.9642 77.4936 38.826C77.1625 38.6878 76.8799 38.4542 76.6818 38.1551C76.4836 37.8559 76.3789 37.5046 76.3809 37.1457C76.3809 36.6683 76.5705 36.2105 76.9081 35.8729C77.2457 35.5354 77.7035 35.3457 78.1809 35.3457Z" fill="#C6C6C6"/>
<path d="M78.1809 23.7772C78.5393 23.7753 78.8902 23.8797 79.1892 24.0774C79.4881 24.2751 79.7217 24.5571 79.8602 24.8876C79.9987 25.2182 80.036 25.5824 79.9673 25.9342C79.8986 26.286 79.727 26.6094 79.4743 26.8635C79.2215 27.1177 78.899 27.291 78.5477 27.3617C78.1963 27.4324 77.8319 27.3971 77.5005 27.2604C77.1692 27.1237 76.8859 26.8917 76.6866 26.5939C76.4873 26.296 76.3809 25.9457 76.3809 25.5872C76.3809 25.1089 76.5702 24.6501 76.9075 24.3109C77.2447 23.9718 77.7026 23.7799 78.1809 23.7772Z" fill="#C6C6C6"/>
<path d="M78.1809 12.2187C78.5393 12.2167 78.8902 12.3211 79.1892 12.5188C79.4881 12.7165 79.7217 12.9985 79.8602 13.329C79.9987 13.6596 80.036 14.0238 79.9673 14.3756C79.8986 14.7274 79.727 15.0508 79.4743 15.3049C79.2215 15.5591 78.899 15.7325 78.5477 15.8031C78.1963 15.8738 77.8319 15.8385 77.5005 15.7018C77.1692 15.5651 76.8859 15.3331 76.6866 15.0353C76.4873 14.7374 76.3809 14.3871 76.3809 14.0287C76.3809 13.5503 76.5702 13.0915 76.9075 12.7523C77.2447 12.4132 77.7026 12.2213 78.1809 12.2187Z" fill="#C6C6C6"/>
<path d="M78.1809 0.660184C78.5393 0.658204 78.8902 0.762673 79.1892 0.960351C79.4881 1.15803 79.7217 1.44001 79.8602 1.77057C79.9987 2.10112 80.036 2.46537 79.9673 2.81713C79.8986 3.16889 79.727 3.49233 79.4743 3.74647C79.2215 4.0006 78.899 4.17399 78.5477 4.24464C78.1963 4.31529 77.8319 4.28004 77.5005 4.14334C77.1692 4.00665 76.8859 3.77466 76.6866 3.4768C76.4873 3.17893 76.3809 2.82859 76.3809 2.47018C76.3809 1.99187 76.5702 1.533 76.9075 1.19384C77.2447 0.854688 77.7026 0.662827 78.1809 0.660184Z" fill="#C6C6C6"/>
<path d="M67.2719 81.5801C67.6299 81.5801 67.9798 81.6862 68.2775 81.8851C68.5751 82.084 68.8071 82.3667 68.9441 82.6974C69.0811 83.0282 69.117 83.3921 69.0471 83.7432C68.9773 84.0943 68.8049 84.4168 68.5518 84.6699C68.2986 84.9231 67.9761 85.0955 67.625 85.1653C67.2739 85.2351 66.91 85.1993 66.5793 85.0623C66.2485 84.9253 65.9658 84.6933 65.767 84.3957C65.5681 84.098 65.4619 83.7481 65.4619 83.3901C65.4619 82.91 65.6526 82.4497 65.9921 82.1102C66.3315 81.7708 66.7919 81.5801 67.2719 81.5801Z" fill="#C6C6C6"/>
<path d="M67.2719 70.0215C67.6299 70.0215 67.9798 70.1276 68.2775 70.3265C68.5751 70.5254 68.8071 70.8081 68.9441 71.1388C69.0811 71.4696 69.117 71.8335 69.0471 72.1846C68.9773 72.5357 68.8049 72.8582 68.5518 73.1113C68.2986 73.3645 67.9761 73.5369 67.625 73.6067C67.2739 73.6765 66.91 73.6407 66.5793 73.5037C66.2485 73.3667 65.9658 73.1347 65.767 72.8371C65.5681 72.5394 65.4619 72.1895 65.4619 71.8315C65.4619 71.3514 65.6526 70.8911 65.9921 70.5516C66.3315 70.2122 66.7919 70.0215 67.2719 70.0215Z" fill="#C6C6C6"/>
<path d="M67.2719 58.463C67.6299 58.463 67.9798 58.5692 68.2775 58.7681C68.5751 58.9669 68.8071 59.2496 68.9441 59.5804C69.0811 59.9111 69.117 60.275 69.0471 60.6261C68.9773 60.9772 68.8049 61.2997 68.5518 61.5529C68.2986 61.806 67.9761 61.9784 67.625 62.0482C67.2739 62.1181 66.91 62.0822 66.5793 61.9452C66.2485 61.8082 65.9658 61.5762 65.767 61.2786C65.5681 60.9809 65.4619 60.631 65.4619 60.273C65.4619 59.793 65.6526 59.3326 65.9921 58.9931C66.3315 58.6537 66.7919 58.463 67.2719 58.463Z" fill="#C6C6C6"/>
<path d="M67.2719 46.9044C67.6303 46.9044 67.9807 47.0108 68.2786 47.2102C68.5764 47.4095 68.8084 47.6928 68.9451 48.0241C69.0818 48.3554 69.1171 48.7199 69.0464 49.0712C68.9757 49.4226 68.8024 49.7451 68.5482 49.9978C68.2941 50.2506 67.9706 50.4221 67.6189 50.4909C67.2671 50.5596 66.9029 50.5223 66.5723 50.3838C66.2418 50.2452 65.9598 50.0117 65.7621 49.7127C65.5644 49.4137 65.46 49.0628 65.4619 48.7044C65.4646 48.2261 65.6564 47.7683 65.9956 47.431C66.3348 47.0937 66.7936 46.9044 67.2719 46.9044Z" fill="#C6C6C6"/>
<path d="M67.2719 35.3457C67.6303 35.3457 67.9807 35.4521 68.2786 35.6515C68.5764 35.8508 68.8084 36.1341 68.9451 36.4654C69.0818 36.7967 69.1171 37.1612 69.0464 37.5125C68.9757 37.8639 68.8024 38.1864 68.5482 38.4391C68.2941 38.6919 67.9706 38.8635 67.6189 38.9322C67.2671 39.0009 66.9029 38.9636 66.5723 38.8251C66.2418 38.6865 65.9598 38.453 65.7621 38.154C65.5644 37.8551 65.46 37.5041 65.4619 37.1457C65.4619 36.9085 65.5088 36.6736 65.5999 36.4546C65.691 36.2355 65.8245 36.0367 65.9927 35.8694C66.1609 35.7021 66.3605 35.5697 66.58 35.4799C66.7996 35.39 67.0347 35.3444 67.2719 35.3457Z" fill="#C6C6C6"/>
<path d="M67.2719 23.7772C67.6299 23.7772 67.9798 23.8834 68.2775 24.0823C68.5751 24.2811 68.8071 24.5638 68.9441 24.8946C69.0811 25.2253 69.117 25.5892 69.0471 25.9403C68.9773 26.2914 68.8049 26.614 68.5518 26.8671C68.2986 27.1202 67.9761 27.2926 67.625 27.3624C67.2739 27.4323 66.91 27.3964 66.5793 27.2594C66.2485 27.1224 65.9658 26.8905 65.767 26.5928C65.5681 26.2951 65.4619 25.9452 65.4619 25.5872C65.4619 25.1072 65.6526 24.6468 65.9921 24.3074C66.3315 23.9679 66.7919 23.7772 67.2719 23.7772Z" fill="#C6C6C6"/>
<path d="M67.2719 12.2188C67.6299 12.2188 67.9798 12.3249 68.2775 12.5238C68.5751 12.7227 68.8071 13.0054 68.9441 13.3361C69.0811 13.6668 69.117 14.0308 69.0471 14.3819C68.9773 14.733 68.8049 15.0555 68.5518 15.3086C68.2986 15.5617 67.9761 15.7341 67.625 15.804C67.2739 15.8738 66.91 15.838 66.5793 15.701C66.2485 15.564 65.9658 15.332 65.767 15.0343C65.5681 14.7367 65.4619 14.3867 65.4619 14.0287C65.4619 13.5487 65.6526 13.0883 65.9921 12.7489C66.3315 12.4094 66.7919 12.2188 67.2719 12.2188Z" fill="#C6C6C6"/>
<path d="M67.2719 0.660156C67.6299 0.660156 67.9798 0.766311 68.2775 0.965196C68.5751 1.16408 68.8071 1.44676 68.9441 1.7775C69.0811 2.10823 69.117 2.47216 69.0471 2.82327C68.9773 3.17438 68.8049 3.49689 68.5518 3.75002C68.2986 4.00315 67.9761 4.17554 67.625 4.24538C67.2739 4.31522 66.91 4.27937 66.5793 4.14238C66.2485 4.00538 65.9658 3.77339 65.767 3.47574C65.5681 3.17809 65.4619 2.82814 65.4619 2.47016C65.4619 1.99011 65.6526 1.52973 65.9921 1.19029C66.3315 0.850852 66.7919 0.660156 67.2719 0.660156V0.660156Z" fill="#C6C6C6"/>
<path d="M56.3627 81.5801C56.7207 81.5801 57.0707 81.6862 57.3683 81.8851C57.666 82.084 57.898 82.3667 58.035 82.6974C58.1719 83.0282 58.2078 83.3921 58.138 83.7432C58.0681 84.0943 57.8957 84.4168 57.6426 84.6699C57.3895 84.9231 57.067 85.0955 56.7158 85.1653C56.3647 85.2351 56.0008 85.1993 55.6701 85.0623C55.3393 84.9253 55.0567 84.6933 54.8578 84.3957C54.6589 84.098 54.5527 83.7481 54.5527 83.3901C54.5527 82.91 54.7434 82.4497 55.0829 82.1102C55.4223 81.7708 55.8827 81.5801 56.3627 81.5801Z" fill="#C6C6C6"/>
<path d="M56.3627 70.0215C56.7207 70.0215 57.0707 70.1276 57.3683 70.3265C57.666 70.5254 57.898 70.8081 58.035 71.1388C58.1719 71.4696 58.2078 71.8335 58.138 72.1846C58.0681 72.5357 57.8957 72.8582 57.6426 73.1113C57.3895 73.3645 57.067 73.5369 56.7158 73.6067C56.3647 73.6765 56.0008 73.6407 55.6701 73.5037C55.3393 73.3667 55.0567 73.1347 54.8578 72.8371C54.6589 72.5394 54.5527 72.1895 54.5527 71.8315C54.5527 71.3514 54.7434 70.8911 55.0829 70.5516C55.4223 70.2122 55.8827 70.0215 56.3627 70.0215Z" fill="#C6C6C6"/>
<path d="M56.3627 58.463C56.7207 58.463 57.0707 58.5692 57.3683 58.7681C57.666 58.9669 57.898 59.2496 58.035 59.5804C58.1719 59.9111 58.2078 60.275 58.138 60.6261C58.0681 60.9772 57.8957 61.2997 57.6426 61.5529C57.3895 61.806 57.067 61.9784 56.7158 62.0482C56.3647 62.1181 56.0008 62.0822 55.6701 61.9452C55.3393 61.8082 55.0567 61.5762 54.8578 61.2786C54.6589 60.9809 54.5527 60.631 54.5527 60.273C54.5527 59.793 54.7434 59.3326 55.0829 58.9931C55.4223 58.6537 55.8827 58.463 56.3627 58.463Z" fill="#C6C6C6"/>
<path d="M56.3628 46.9044C56.7212 46.9044 57.0715 47.0108 57.3694 47.2102C57.6672 47.4095 57.8992 47.6928 58.0359 48.0241C58.1726 48.3554 58.2079 48.7199 58.1372 49.0712C58.0666 49.4226 57.8932 49.7451 57.639 49.9978C57.3849 50.2506 57.0615 50.4221 56.7097 50.4909C56.3579 50.5596 55.9937 50.5223 55.6631 50.3838C55.3326 50.2452 55.0506 50.0117 54.8529 49.7127C54.6553 49.4137 54.5508 49.0628 54.5528 48.7044C54.5554 48.2261 54.7473 47.7683 55.0864 47.431C55.4256 47.0937 55.8844 46.9044 56.3628 46.9044Z" fill="#C6C6C6"/>
<path d="M56.3628 35.3457C56.7212 35.3457 57.0715 35.4521 57.3694 35.6515C57.6672 35.8508 57.8992 36.1341 58.0359 36.4654C58.1726 36.7967 58.2079 37.1612 58.1372 37.5125C58.0666 37.8639 57.8932 38.1864 57.639 38.4391C57.3849 38.6919 57.0615 38.8635 56.7097 38.9322C56.3579 39.0009 55.9937 38.9636 55.6631 38.8251C55.3326 38.6865 55.0506 38.453 54.8529 38.154C54.6553 37.8551 54.5508 37.5041 54.5528 37.1457C54.5528 36.9085 54.5996 36.6736 54.6907 36.4546C54.7818 36.2355 54.9153 36.0367 55.0835 35.8694C55.2517 35.7021 55.4513 35.5697 55.6709 35.4799C55.8904 35.39 56.1255 35.3444 56.3628 35.3457Z" fill="#C6C6C6"/>
<path d="M56.3627 23.7772C56.7207 23.7772 57.0707 23.8834 57.3683 24.0823C57.666 24.2811 57.898 24.5638 58.035 24.8946C58.1719 25.2253 58.2078 25.5892 58.138 25.9403C58.0681 26.2914 57.8957 26.614 57.6426 26.8671C57.3895 27.1202 57.067 27.2926 56.7158 27.3624C56.3647 27.4323 56.0008 27.3964 55.6701 27.2594C55.3393 27.1224 55.0567 26.8905 54.8578 26.5928C54.6589 26.2951 54.5527 25.9452 54.5527 25.5872C54.5527 25.1072 54.7434 24.6468 55.0829 24.3074C55.4223 23.9679 55.8827 23.7772 56.3627 23.7772Z" fill="#C6C6C6"/>
<path d="M56.3627 12.2188C56.7207 12.2188 57.0707 12.3249 57.3683 12.5238C57.666 12.7227 57.898 13.0054 58.035 13.3361C58.1719 13.6668 58.2078 14.0308 58.138 14.3819C58.0681 14.733 57.8957 15.0555 57.6426 15.3086C57.3895 15.5617 57.067 15.7341 56.7158 15.804C56.3647 15.8738 56.0008 15.838 55.6701 15.701C55.3393 15.564 55.0567 15.332 54.8578 15.0343C54.6589 14.7367 54.5527 14.3867 54.5527 14.0287C54.5527 13.5487 54.7434 13.0883 55.0829 12.7489C55.4223 12.4094 55.8827 12.2188 56.3627 12.2188Z" fill="#C6C6C6"/>
<path d="M56.3627 0.660156C56.7207 0.660156 57.0707 0.766311 57.3683 0.965196C57.666 1.16408 57.898 1.44676 58.035 1.7775C58.1719 2.10823 58.2078 2.47216 58.138 2.82327C58.0681 3.17438 57.8957 3.49689 57.6426 3.75002C57.3895 4.00315 57.067 4.17554 56.7158 4.24538C56.3647 4.31522 56.0008 4.27937 55.6701 4.14238C55.3393 4.00538 55.0567 3.77339 54.8578 3.47574C54.6589 3.17809 54.5527 2.82814 54.5527 2.47016C54.5527 1.99011 54.7434 1.52973 55.0829 1.19029C55.4223 0.850852 55.8827 0.660156 56.3627 0.660156V0.660156Z" fill="#C6C6C6"/>
<path d="M45.4545 81.5801C45.8125 81.5801 46.1625 81.6862 46.4601 81.8851C46.7578 82.084 46.9898 82.3667 47.1268 82.6974C47.2637 83.0282 47.2996 83.3921 47.2298 83.7432C47.1599 84.0943 46.9875 84.4168 46.7344 84.6699C46.4813 84.9231 46.1587 85.0955 45.8076 85.1653C45.4565 85.2351 45.0926 85.1993 44.7619 85.0623C44.4311 84.9253 44.1485 84.6933 43.9496 84.3957C43.7507 84.098 43.6445 83.7481 43.6445 83.3901C43.6445 82.91 43.8352 82.4497 44.1747 82.1102C44.5141 81.7708 44.9745 81.5801 45.4545 81.5801Z" fill="#C6C6C6"/>
<path d="M45.4545 70.0215C45.8125 70.0215 46.1625 70.1276 46.4601 70.3265C46.7578 70.5254 46.9898 70.8081 47.1268 71.1388C47.2637 71.4696 47.2996 71.8335 47.2298 72.1846C47.1599 72.5357 46.9875 72.8582 46.7344 73.1113C46.4813 73.3645 46.1587 73.5369 45.8076 73.6067C45.4565 73.6765 45.0926 73.6407 44.7619 73.5037C44.4311 73.3667 44.1485 73.1347 43.9496 72.8371C43.7507 72.5394 43.6445 72.1895 43.6445 71.8315C43.6445 71.3514 43.8352 70.8911 44.1747 70.5516C44.5141 70.2122 44.9745 70.0215 45.4545 70.0215Z" fill="#C6C6C6"/>
<path d="M45.4545 58.463C45.8125 58.463 46.1625 58.5692 46.4601 58.7681C46.7578 58.9669 46.9898 59.2496 47.1268 59.5804C47.2637 59.9111 47.2996 60.275 47.2298 60.6261C47.1599 60.9772 46.9875 61.2997 46.7344 61.5529C46.4813 61.806 46.1587 61.9784 45.8076 62.0482C45.4565 62.1181 45.0926 62.0822 44.7619 61.9452C44.4311 61.8082 44.1485 61.5762 43.9496 61.2786C43.7507 60.9809 43.6445 60.631 43.6445 60.273C43.6445 59.793 43.8352 59.3326 44.1747 58.9931C44.5141 58.6537 44.9745 58.463 45.4545 58.463Z" fill="#C6C6C6"/>
<path d="M45.4546 46.9044C45.813 46.9044 46.1633 47.0108 46.4612 47.2102C46.759 47.4095 46.991 47.6928 47.1277 48.0241C47.2644 48.3554 47.2997 48.7199 47.229 49.0712C47.1584 49.4226 46.985 49.7451 46.7308 49.9978C46.4767 50.2506 46.1533 50.4221 45.8015 50.4909C45.4497 50.5596 45.0855 50.5223 44.7549 50.3838C44.4244 50.2452 44.1424 50.0117 43.9447 49.7127C43.747 49.4137 43.6426 49.0628 43.6446 48.7044C43.6472 48.2261 43.8391 47.7683 44.1782 47.431C44.5174 47.0937 44.9762 46.9044 45.4546 46.9044Z" fill="#C6C6C6"/>
<path d="M45.4546 35.3457C45.813 35.3457 46.1633 35.4521 46.4612 35.6515C46.759 35.8508 46.991 36.1341 47.1277 36.4654C47.2644 36.7967 47.2997 37.1612 47.229 37.5125C47.1584 37.8639 46.985 38.1864 46.7308 38.4391C46.4767 38.6919 46.1533 38.8635 45.8015 38.9322C45.4497 39.0009 45.0855 38.9636 44.7549 38.8251C44.4244 38.6865 44.1424 38.453 43.9447 38.154C43.747 37.8551 43.6426 37.5041 43.6446 37.1457C43.6446 36.9085 43.6914 36.6736 43.7825 36.4546C43.8736 36.2355 44.0071 36.0367 44.1753 35.8694C44.3435 35.7021 44.5431 35.5697 44.7627 35.4799C44.9822 35.39 45.2173 35.3444 45.4546 35.3457Z" fill="#C6C6C6"/>
<path d="M45.4545 23.7772C45.8125 23.7772 46.1625 23.8834 46.4601 24.0823C46.7578 24.2811 46.9898 24.5638 47.1268 24.8946C47.2637 25.2253 47.2996 25.5892 47.2298 25.9403C47.1599 26.2914 46.9875 26.614 46.7344 26.8671C46.4813 27.1202 46.1587 27.2926 45.8076 27.3624C45.4565 27.4323 45.0926 27.3964 44.7619 27.2594C44.4311 27.1224 44.1485 26.8905 43.9496 26.5928C43.7507 26.2951 43.6445 25.9452 43.6445 25.5872C43.6445 25.1072 43.8352 24.6468 44.1747 24.3074C44.5141 23.9679 44.9745 23.7772 45.4545 23.7772Z" fill="#C6C6C6"/>
<path d="M45.4545 12.2188C45.8125 12.2188 46.1625 12.3249 46.4601 12.5238C46.7578 12.7227 46.9898 13.0054 47.1268 13.3361C47.2637 13.6668 47.2996 14.0308 47.2298 14.3819C47.1599 14.733 46.9875 15.0555 46.7344 15.3086C46.4813 15.5617 46.1587 15.7341 45.8076 15.804C45.4565 15.8738 45.0926 15.838 44.7619 15.701C44.4311 15.564 44.1485 15.332 43.9496 15.0343C43.7507 14.7367 43.6445 14.3867 43.6445 14.0287C43.6445 13.5487 43.8352 13.0883 44.1747 12.7489C44.5141 12.4094 44.9745 12.2188 45.4545 12.2188Z" fill="#C6C6C6"/>
<path d="M45.4545 0.660156C45.8125 0.660156 46.1625 0.766311 46.4601 0.965196C46.7578 1.16408 46.9898 1.44676 47.1268 1.7775C47.2637 2.10823 47.2996 2.47216 47.2298 2.82327C47.1599 3.17438 46.9875 3.49689 46.7344 3.75002C46.4813 4.00315 46.1587 4.17554 45.8076 4.24538C45.4565 4.31522 45.0926 4.27937 44.7619 4.14238C44.4311 4.00538 44.1485 3.77339 43.9496 3.47574C43.7507 3.17809 43.6445 2.82814 43.6445 2.47016C43.6445 1.99011 43.8352 1.52973 44.1747 1.19029C44.5141 0.850852 44.9745 0.660156 45.4545 0.660156V0.660156Z" fill="#C6C6C6"/>
<path d="M34.5363 81.5799C34.8947 81.5779 35.2457 81.6823 35.5446 81.88C35.8436 82.0777 36.0771 82.3597 36.2157 82.6902C36.3542 83.0208 36.3915 83.385 36.3228 83.7368C36.2541 84.0886 36.0825 84.412 35.8297 84.6662C35.577 84.9203 35.2545 85.0937 34.9031 85.1643C34.5518 85.235 34.1873 85.1997 33.856 85.063C33.5247 84.9263 33.2414 84.6943 33.0421 84.3965C32.8427 84.0986 32.7363 83.7483 32.7363 83.3899C32.7363 82.9115 32.9256 82.4527 33.2629 82.1135C33.6002 81.7744 34.058 81.5825 34.5363 81.5799Z" fill="#C6C6C6"/>
<path d="M34.5363 70.0215C34.8947 70.0195 35.2457 70.124 35.5446 70.3217C35.8436 70.5194 36.0771 70.8013 36.2157 71.1319C36.3542 71.4624 36.3915 71.8267 36.3228 72.1785C36.2541 72.5302 36.0825 72.8537 35.8297 73.1078C35.577 73.3619 35.2545 73.5353 34.9031 73.606C34.5518 73.6766 34.1873 73.6414 33.856 73.5047C33.5247 73.368 33.2414 73.136 33.0421 72.8381C32.8427 72.5403 32.7363 72.1899 32.7363 71.8315C32.7363 71.3532 32.9256 70.8943 33.2629 70.5552C33.6002 70.216 34.058 70.0242 34.5363 70.0215Z" fill="#C6C6C6"/>
<path d="M34.5363 58.4629C34.8947 58.4609 35.2457 58.5654 35.5446 58.7631C35.8436 58.9608 36.0771 59.2427 36.2157 59.5733C36.3542 59.9039 36.3915 60.2681 36.3228 60.6199C36.2541 60.9716 36.0825 61.2951 35.8297 61.5492C35.577 61.8033 35.2545 61.9767 34.9031 62.0474C34.5518 62.118 34.1873 62.0828 33.856 61.9461C33.5247 61.8094 33.2414 61.5774 33.0421 61.2795C32.8427 60.9817 32.7363 60.6313 32.7363 60.2729C32.7363 59.7946 32.9256 59.3357 33.2629 58.9966C33.6002 58.6574 34.058 58.4656 34.5363 58.4629Z" fill="#C6C6C6"/>
<path d="M34.5364 46.9044C34.8952 46.9025 35.2465 47.0072 35.5457 47.2053C35.8449 47.4034 36.0784 47.686 36.2166 48.0172C36.3549 48.3483 36.3916 48.7131 36.322 49.0651C36.2525 49.4171 36.0799 49.7405 35.8262 49.9943C35.5725 50.248 35.249 50.4206 34.897 50.4901C34.545 50.5596 34.1802 50.523 33.8491 50.3847C33.5179 50.2465 33.2353 50.013 33.0372 49.7138C32.8391 49.4146 32.7344 49.0633 32.7364 48.7044C32.739 48.2279 32.9295 47.7716 33.2665 47.4346C33.6035 47.0976 34.0598 46.9071 34.5364 46.9044Z" fill="#C6C6C6"/>
<path d="M34.5364 35.3457C34.8952 35.3438 35.2465 35.4485 35.5457 35.6466C35.8449 35.8447 36.0784 36.1273 36.2166 36.4584C36.3549 36.7896 36.3916 37.1543 36.322 37.5064C36.2525 37.8584 36.0799 38.1818 35.8262 38.4356C35.5725 38.6893 35.249 38.8619 34.897 38.9314C34.545 39.0009 34.1802 38.9642 33.8491 38.826C33.5179 38.6878 33.2353 38.4542 33.0372 38.1551C32.8391 37.8559 32.7344 37.5046 32.7364 37.1457C32.7364 36.6683 32.926 36.2105 33.2636 35.8729C33.6011 35.5354 34.059 35.3457 34.5364 35.3457Z" fill="#C6C6C6"/>
<path d="M34.5363 23.7772C34.8947 23.7753 35.2457 23.8797 35.5446 24.0774C35.8436 24.2751 36.0771 24.5571 36.2157 24.8876C36.3542 25.2182 36.3915 25.5824 36.3228 25.9342C36.2541 26.286 36.0825 26.6094 35.8297 26.8635C35.577 27.1177 35.2545 27.291 34.9031 27.3617C34.5518 27.4324 34.1873 27.3971 33.856 27.2604C33.5247 27.1237 33.2414 26.8917 33.0421 26.5939C32.8427 26.296 32.7363 25.9457 32.7363 25.5872C32.7363 25.1089 32.9256 24.6501 33.2629 24.3109C33.6002 23.9718 34.058 23.7799 34.5363 23.7772Z" fill="#C6C6C6"/>
<path d="M34.5363 12.2187C34.8947 12.2167 35.2457 12.3211 35.5446 12.5188C35.8436 12.7165 36.0771 12.9985 36.2157 13.329C36.3542 13.6596 36.3915 14.0238 36.3228 14.3756C36.2541 14.7274 36.0825 15.0508 35.8297 15.3049C35.577 15.5591 35.2545 15.7325 34.9031 15.8031C34.5518 15.8738 34.1873 15.8385 33.856 15.7018C33.5247 15.5651 33.2414 15.3331 33.0421 15.0353C32.8427 14.7374 32.7363 14.3871 32.7363 14.0287C32.7363 13.5503 32.9256 13.0915 33.2629 12.7523C33.6002 12.4132 34.058 12.2213 34.5363 12.2187Z" fill="#C6C6C6"/>
<path d="M34.5363 0.660184C34.8947 0.658204 35.2457 0.762673 35.5446 0.960351C35.8436 1.15803 36.0771 1.44001 36.2157 1.77057C36.3542 2.10112 36.3915 2.46537 36.3228 2.81713C36.2541 3.16889 36.0825 3.49233 35.8297 3.74647C35.577 4.0006 35.2545 4.17399 34.9031 4.24464C34.5518 4.31529 34.1873 4.28004 33.856 4.14334C33.5247 4.00665 33.2414 3.77466 33.0421 3.4768C32.8427 3.17893 32.7363 2.82859 32.7363 2.47018C32.7363 1.99187 32.9256 1.533 33.2629 1.19384C33.6002 0.854688 34.058 0.662827 34.5363 0.660184Z" fill="#C6C6C6"/>
<path d="M23.6274 81.5801C23.9854 81.5801 24.3353 81.6862 24.633 81.8851C24.9306 82.084 25.1626 82.3667 25.2996 82.6974C25.4366 83.0282 25.4724 83.3921 25.4026 83.7432C25.3328 84.0943 25.1604 84.4168 24.9072 84.6699C24.6541 84.9231 24.3316 85.0955 23.9805 85.1653C23.6294 85.2351 23.2655 85.1993 22.9347 85.0623C22.604 84.9253 22.3213 84.6933 22.1224 84.3957C21.9235 84.098 21.8174 83.7481 21.8174 83.3901C21.8174 82.91 22.0081 82.4497 22.3475 82.1102C22.687 81.7708 23.1473 81.5801 23.6274 81.5801Z" fill="#C6C6C6"/>
<path d="M23.6274 70.0215C23.9854 70.0215 24.3353 70.1276 24.633 70.3265C24.9306 70.5254 25.1626 70.8081 25.2996 71.1388C25.4366 71.4696 25.4724 71.8335 25.4026 72.1846C25.3328 72.5357 25.1604 72.8582 24.9072 73.1113C24.6541 73.3645 24.3316 73.5369 23.9805 73.6067C23.6294 73.6765 23.2655 73.6407 22.9347 73.5037C22.604 73.3667 22.3213 73.1347 22.1224 72.8371C21.9235 72.5394 21.8174 72.1895 21.8174 71.8315C21.8174 71.3514 22.0081 70.8911 22.3475 70.5516C22.687 70.2122 23.1473 70.0215 23.6274 70.0215Z" fill="#C6C6C6"/>
<path d="M23.6274 58.463C23.9854 58.463 24.3353 58.5692 24.633 58.7681C24.9306 58.9669 25.1626 59.2496 25.2996 59.5804C25.4366 59.9111 25.4724 60.275 25.4026 60.6261C25.3328 60.9772 25.1604 61.2997 24.9072 61.5529C24.6541 61.806 24.3316 61.9784 23.9805 62.0482C23.6294 62.1181 23.2655 62.0822 22.9347 61.9452C22.604 61.8082 22.3213 61.5762 22.1224 61.2786C21.9235 60.9809 21.8174 60.631 21.8174 60.273C21.8174 59.793 22.0081 59.3326 22.3475 58.9931C22.687 58.6537 23.1473 58.463 23.6274 58.463Z" fill="#C6C6C6"/>
<path d="M23.6274 46.9044C23.9858 46.9044 24.3362 47.0108 24.634 47.2102C24.9319 47.4095 25.1639 47.6928 25.3006 48.0241C25.4373 48.3554 25.4725 48.7199 25.4019 49.0712C25.3312 49.4226 25.1578 49.7451 24.9037 49.9978C24.6496 50.2506 24.3261 50.4221 23.9744 50.4909C23.6226 50.5596 23.2584 50.5223 22.9278 50.3838C22.5972 50.2452 22.3153 50.0117 22.1176 49.7127C21.9199 49.4137 21.8154 49.0628 21.8174 48.7044C21.8201 48.2261 22.0119 47.7683 22.3511 47.431C22.6902 47.0937 23.1491 46.9044 23.6274 46.9044Z" fill="#C6C6C6"/>
<path d="M23.6274 35.3457C23.9858 35.3457 24.3362 35.4521 24.634 35.6515C24.9319 35.8508 25.1639 36.1341 25.3006 36.4654C25.4373 36.7967 25.4725 37.1612 25.4019 37.5125C25.3312 37.8639 25.1578 38.1864 24.9037 38.4391C24.6496 38.6919 24.3261 38.8635 23.9744 38.9322C23.6226 39.0009 23.2584 38.9636 22.9278 38.8251C22.5972 38.6865 22.3153 38.453 22.1176 38.154C21.9199 37.8551 21.8154 37.5041 21.8174 37.1457C21.8174 36.9085 21.8643 36.6736 21.9554 36.4546C22.0465 36.2355 22.1799 36.0367 22.3481 35.8694C22.5164 35.7021 22.716 35.5697 22.9355 35.4799C23.1551 35.39 23.3902 35.3444 23.6274 35.3457Z" fill="#C6C6C6"/>
<path d="M23.6274 23.7772C23.9854 23.7772 24.3353 23.8834 24.633 24.0823C24.9306 24.2811 25.1626 24.5638 25.2996 24.8946C25.4366 25.2253 25.4724 25.5892 25.4026 25.9403C25.3328 26.2914 25.1604 26.614 24.9072 26.8671C24.6541 27.1202 24.3316 27.2926 23.9805 27.3624C23.6294 27.4323 23.2655 27.3964 22.9347 27.2594C22.604 27.1224 22.3213 26.8905 22.1224 26.5928C21.9235 26.2951 21.8174 25.9452 21.8174 25.5872C21.8174 25.1072 22.0081 24.6468 22.3475 24.3074C22.687 23.9679 23.1473 23.7772 23.6274 23.7772Z" fill="#C6C6C6"/>
<path d="M23.6274 12.2188C23.9854 12.2188 24.3353 12.3249 24.633 12.5238C24.9306 12.7227 25.1626 13.0054 25.2996 13.3361C25.4366 13.6668 25.4724 14.0308 25.4026 14.3819C25.3328 14.733 25.1604 15.0555 24.9072 15.3086C24.6541 15.5617 24.3316 15.7341 23.9805 15.804C23.6294 15.8738 23.2655 15.838 22.9347 15.701C22.604 15.564 22.3213 15.332 22.1224 15.0343C21.9235 14.7367 21.8174 14.3867 21.8174 14.0287C21.8174 13.5487 22.0081 13.0883 22.3475 12.7489C22.687 12.4094 23.1473 12.2188 23.6274 12.2188Z" fill="#C6C6C6"/>
<path d="M23.6274 0.660156C23.9854 0.660156 24.3353 0.766311 24.633 0.965196C24.9306 1.16408 25.1626 1.44676 25.2996 1.7775C25.4366 2.10823 25.4724 2.47216 25.4026 2.82327C25.3328 3.17438 25.1604 3.49689 24.9072 3.75002C24.6541 4.00315 24.3316 4.17554 23.9805 4.24538C23.6294 4.31522 23.2655 4.27937 22.9347 4.14238C22.604 4.00538 22.3213 3.77339 22.1224 3.47574C21.9235 3.17809 21.8174 2.82814 21.8174 2.47016C21.8174 1.99011 22.0081 1.52973 22.3475 1.19029C22.687 0.850852 23.1473 0.660156 23.6274 0.660156V0.660156Z" fill="#C6C6C6"/>
<path d="M12.7182 81.5801C13.0762 81.5801 13.4261 81.6862 13.7238 81.8851C14.0214 82.084 14.2534 82.3667 14.3904 82.6974C14.5274 83.0282 14.5633 83.3921 14.4934 83.7432C14.4236 84.0943 14.2512 84.4168 13.9981 84.6699C13.7449 84.9231 13.4224 85.0955 13.0713 85.1653C12.7202 85.2351 12.3563 85.1993 12.0255 85.0623C11.6948 84.9253 11.4121 84.6933 11.2132 84.3957C11.0144 84.098 10.9082 83.7481 10.9082 83.3901C10.9082 82.91 11.0989 82.4497 11.4383 82.1102C11.7778 81.7708 12.2382 81.5801 12.7182 81.5801Z" fill="#C6C6C6"/>
<path d="M12.7182 70.0215C13.0762 70.0215 13.4261 70.1276 13.7238 70.3265C14.0214 70.5254 14.2534 70.8081 14.3904 71.1388C14.5274 71.4696 14.5633 71.8335 14.4934 72.1846C14.4236 72.5357 14.2512 72.8582 13.9981 73.1113C13.7449 73.3645 13.4224 73.5369 13.0713 73.6067C12.7202 73.6765 12.3563 73.6407 12.0255 73.5037C11.6948 73.3667 11.4121 73.1347 11.2132 72.8371C11.0144 72.5394 10.9082 72.1895 10.9082 71.8315C10.9082 71.3514 11.0989 70.8911 11.4383 70.5516C11.7778 70.2122 12.2382 70.0215 12.7182 70.0215Z" fill="#C6C6C6"/>
<path d="M12.7182 58.463C13.0762 58.463 13.4261 58.5692 13.7238 58.7681C14.0214 58.9669 14.2534 59.2496 14.3904 59.5804C14.5274 59.9111 14.5633 60.275 14.4934 60.6261C14.4236 60.9772 14.2512 61.2997 13.9981 61.5529C13.7449 61.806 13.4224 61.9784 13.0713 62.0482C12.7202 62.1181 12.3563 62.0822 12.0255 61.9452C11.6948 61.8082 11.4121 61.5762 11.2132 61.2786C11.0144 60.9809 10.9082 60.631 10.9082 60.273C10.9082 59.793 11.0989 59.3326 11.4383 58.9931C11.7778 58.6537 12.2382 58.463 12.7182 58.463Z" fill="#C6C6C6"/>
<path d="M12.7182 46.9044C13.0766 46.9044 13.427 47.0108 13.7248 47.2102C14.0227 47.4095 14.2547 47.6928 14.3914 48.0241C14.5281 48.3554 14.5633 48.7199 14.4927 49.0712C14.422 49.4226 14.2487 49.7451 13.9945 49.9978C13.7404 50.2506 13.4169 50.4221 13.0652 50.4909C12.7134 50.5596 12.3492 50.5223 12.0186 50.3838C11.6881 50.2452 11.4061 50.0117 11.2084 49.7127C11.0107 49.4137 10.9063 49.0628 10.9082 48.7044C10.9109 48.2261 11.1027 47.7683 11.4419 47.431C11.781 47.0937 12.2399 46.9044 12.7182 46.9044Z" fill="#C6C6C6"/>
<path d="M12.7182 35.3457C13.0766 35.3457 13.427 35.4521 13.7248 35.6515C14.0227 35.8508 14.2547 36.1341 14.3914 36.4654C14.5281 36.7967 14.5633 37.1612 14.4927 37.5125C14.422 37.8639 14.2487 38.1864 13.9945 38.4391C13.7404 38.6919 13.4169 38.8635 13.0652 38.9322C12.7134 39.0009 12.3492 38.9636 12.0186 38.8251C11.6881 38.6865 11.4061 38.453 11.2084 38.154C11.0107 37.8551 10.9063 37.5041 10.9082 37.1457C10.9082 36.9085 10.9551 36.6736 11.0462 36.4546C11.1373 36.2355 11.2708 36.0367 11.439 35.8694C11.6072 35.7021 11.8068 35.5697 12.0263 35.4799C12.2459 35.39 12.481 35.3444 12.7182 35.3457Z" fill="#C6C6C6"/>
<path d="M12.7182 23.7772C13.0762 23.7772 13.4261 23.8834 13.7238 24.0823C14.0214 24.2811 14.2534 24.5638 14.3904 24.8946C14.5274 25.2253 14.5633 25.5892 14.4934 25.9403C14.4236 26.2914 14.2512 26.614 13.9981 26.8671C13.7449 27.1202 13.4224 27.2926 13.0713 27.3624C12.7202 27.4323 12.3563 27.3964 12.0255 27.2594C11.6948 27.1224 11.4121 26.8905 11.2132 26.5928C11.0144 26.2951 10.9082 25.9452 10.9082 25.5872C10.9082 25.1072 11.0989 24.6468 11.4383 24.3074C11.7778 23.9679 12.2382 23.7772 12.7182 23.7772Z" fill="#C6C6C6"/>
<path d="M12.7182 12.2188C13.0762 12.2188 13.4261 12.3249 13.7238 12.5238C14.0214 12.7227 14.2534 13.0054 14.3904 13.3361C14.5274 13.6668 14.5633 14.0308 14.4934 14.3819C14.4236 14.733 14.2512 15.0555 13.9981 15.3086C13.7449 15.5617 13.4224 15.7341 13.0713 15.804C12.7202 15.8738 12.3563 15.838 12.0255 15.701C11.6948 15.564 11.4121 15.332 11.2132 15.0343C11.0144 14.7367 10.9082 14.3867 10.9082 14.0287C10.9082 13.5487 11.0989 13.0883 11.4383 12.7489C11.7778 12.4094 12.2382 12.2188 12.7182 12.2188Z" fill="#C6C6C6"/>
<path d="M12.7182 0.660156C13.0762 0.660156 13.4261 0.766311 13.7238 0.965196C14.0214 1.16408 14.2534 1.44676 14.3904 1.7775C14.5274 2.10823 14.5633 2.47216 14.4934 2.82327C14.4236 3.17438 14.2512 3.49689 13.9981 3.75002C13.7449 4.00315 13.4224 4.17554 13.0713 4.24538C12.7202 4.31522 12.3563 4.27937 12.0255 4.14238C11.6948 4.00538 11.4121 3.77339 11.2132 3.47574C11.0144 3.17809 10.9082 2.82814 10.9082 2.47016C10.9082 1.99011 11.0989 1.52973 11.4383 1.19029C11.7778 0.850852 12.2382 0.660156 12.7182 0.660156V0.660156Z" fill="#C6C6C6"/>
<path d="M1.81 81.5801C2.16798 81.5801 2.51793 81.6862 2.81558 81.8851C3.11323 82.084 3.34523 82.3667 3.48222 82.6974C3.61922 83.0282 3.65506 83.3921 3.58522 83.7432C3.51538 84.0943 3.343 84.4168 3.08986 84.6699C2.83673 84.9231 2.51422 85.0955 2.16311 85.1653C1.81201 85.2351 1.44808 85.1993 1.11734 85.0623C0.786609 84.9253 0.503925 84.6933 0.30504 84.3957C0.106155 84.098 0 83.7481 0 83.3901C0 82.91 0.190696 82.4497 0.530137 82.1102C0.869578 81.7708 1.32996 81.5801 1.81 81.5801Z" fill="#C6C6C6"/>
<path d="M1.81 70.0215C2.16798 70.0215 2.51793 70.1276 2.81558 70.3265C3.11323 70.5254 3.34523 70.8081 3.48222 71.1388C3.61922 71.4696 3.65506 71.8335 3.58522 72.1846C3.51538 72.5357 3.343 72.8582 3.08986 73.1113C2.83673 73.3645 2.51422 73.5369 2.16311 73.6067C1.81201 73.6765 1.44808 73.6407 1.11734 73.5037C0.786609 73.3667 0.503925 73.1347 0.30504 72.8371C0.106155 72.5394 0 72.1895 0 71.8315C0 71.3514 0.190696 70.8911 0.530137 70.5516C0.869578 70.2122 1.32996 70.0215 1.81 70.0215Z" fill="#C6C6C6"/>
<path d="M1.81 58.463C2.16798 58.463 2.51793 58.5692 2.81558 58.7681C3.11323 58.9669 3.34523 59.2496 3.48222 59.5804C3.61922 59.9111 3.65506 60.275 3.58522 60.6261C3.51538 60.9772 3.343 61.2997 3.08986 61.5529C2.83673 61.806 2.51422 61.9784 2.16311 62.0482C1.81201 62.1181 1.44808 62.0822 1.11734 61.9452C0.786609 61.8082 0.503925 61.5762 0.30504 61.2786C0.106155 60.9809 0 60.631 0 60.273C0 59.793 0.190696 59.3326 0.530137 58.9931C0.869578 58.6537 1.32996 58.463 1.81 58.463Z" fill="#C6C6C6"/>
<path d="M1.81003 46.9044C2.16844 46.9044 2.51878 47.0108 2.81664 47.2102C3.11451 47.4095 3.34649 47.6928 3.48319 48.0241C3.61988 48.3554 3.65514 48.7199 3.58448 49.0712C3.51383 49.4226 3.34045 49.7451 3.08631 49.9978C2.83218 50.2506 2.50873 50.4221 2.15697 50.4909C1.80521 50.5596 1.44097 50.5223 1.11041 50.3838C0.779859 50.2452 0.497872 50.0117 0.300194 49.7127C0.102517 49.4137 -0.00195252 49.0628 2.76367e-05 48.7044C0.00267026 48.2261 0.194532 47.7683 0.533687 47.431C0.872842 47.0937 1.33171 46.9044 1.81003 46.9044Z" fill="#C6C6C6"/>
<path d="M1.81003 35.3457C2.16844 35.3457 2.51878 35.4521 2.81664 35.6515C3.11451 35.8508 3.34649 36.1341 3.48319 36.4654C3.61988 36.7967 3.65514 37.1612 3.58448 37.5125C3.51383 37.8639 3.34045 38.1864 3.08631 38.4391C2.83218 38.6919 2.50873 38.8635 2.15697 38.9322C1.80521 39.0009 1.44097 38.9636 1.11041 38.8251C0.779859 38.6865 0.497872 38.453 0.300194 38.154C0.102517 37.8551 -0.00195252 37.5041 2.76367e-05 37.1457C2.39758e-05 36.9085 0.0469116 36.6736 0.137995 36.4546C0.229078 36.2355 0.36256 36.0367 0.530766 35.8694C0.698972 35.7021 0.898585 35.5697 1.11813 35.4799C1.33767 35.39 1.57281 35.3444 1.81003 35.3457Z" fill="#C6C6C6"/>
<path d="M1.81 23.7772C2.16798 23.7772 2.51793 23.8834 2.81558 24.0823C3.11323 24.2811 3.34523 24.5638 3.48222 24.8946C3.61922 25.2253 3.65506 25.5892 3.58522 25.9403C3.51538 26.2914 3.343 26.614 3.08986 26.8671C2.83673 27.1202 2.51422 27.2926 2.16311 27.3624C1.81201 27.4323 1.44808 27.3964 1.11734 27.2594C0.786609 27.1224 0.503925 26.8905 0.30504 26.5928C0.106155 26.2951 0 25.9452 0 25.5872C0 25.1072 0.190696 24.6468 0.530137 24.3074C0.869578 23.9679 1.32996 23.7772 1.81 23.7772Z" fill="#C6C6C6"/>
<path d="M1.81 12.2188C2.16798 12.2188 2.51793 12.3249 2.81558 12.5238C3.11323 12.7227 3.34523 13.0054 3.48222 13.3361C3.61922 13.6668 3.65506 14.0308 3.58522 14.3819C3.51538 14.733 3.343 15.0555 3.08986 15.3086C2.83673 15.5617 2.51422 15.7341 2.16311 15.804C1.81201 15.8738 1.44808 15.838 1.11734 15.701C0.786609 15.564 0.503925 15.332 0.30504 15.0343C0.106155 14.7367 0 14.3867 0 14.0287C0 13.5487 0.190696 13.0883 0.530137 12.7489C0.869578 12.4094 1.32996 12.2188 1.81 12.2188Z" fill="#C6C6C6"/>
<path d="M1.81 0.660156C2.16798 0.660156 2.51793 0.766311 2.81558 0.965196C3.11323 1.16408 3.34523 1.44676 3.48222 1.7775C3.61922 2.10823 3.65506 2.47216 3.58522 2.82327C3.51538 3.17438 3.343 3.49689 3.08986 3.75002C2.83673 4.00315 2.51422 4.17554 2.16311 4.24538C1.81201 4.31522 1.44808 4.27937 1.11734 4.14238C0.786609 4.00538 0.503925 3.77339 0.30504 3.47574C0.106155 3.17809 0 2.82814 0 2.47016C0 1.99011 0.190696 1.52973 0.530137 1.19029C0.869578 0.850852 1.32996 0.660156 1.81 0.660156V0.660156Z" fill="#C6C6C6"/>
</svg>
