<svg width="80" height="80" viewBox="0 0 80 80" fill="none" xmlns="http://www.w3.org/2000/svg">
<path d="M-9 -5L7.22 7.46L23.45 -5L39.67 7.46L55.9 -5L72.12 7.46L88.35 -5" stroke="#C6C6C6" stroke-width="1.2" stroke-linecap="round" stroke-linejoin="round"/>
<path d="M-9 5.84998L7.22 18.31L23.45 5.84998L39.67 18.31L55.9 5.84998L72.12 18.31L88.35 5.84998" stroke="#C6C6C6" stroke-width="1.2" stroke-linecap="round" stroke-linejoin="round"/>
<path d="M-9 16.7L7.22 29.16L23.45 16.7L39.67 29.16L55.9 16.7L72.12 29.16L88.35 16.7" stroke="#C6C6C6" stroke-width="1.2" stroke-linecap="round" stroke-linejoin="round"/>
<path d="M-9 27.55L7.22 40.01L23.45 27.55L39.67 40.01L55.9 27.55L72.12 40.01L88.35 27.55" stroke="#C6C6C6" stroke-width="1.2" stroke-linecap="round" stroke-linejoin="round"/>
<path d="M-9 39.25L7.22 51.71L23.45 39.25L39.67 51.71L55.9 39.25L72.12 51.71L88.35 39.25" stroke="#C6C6C6" stroke-width="1.2" stroke-linecap="round" stroke-linejoin="round"/>
<path d="M-9 50.1L7.22 62.56L23.45 50.1L39.67 62.56L55.9 50.1L72.12 62.56L88.35 50.1" stroke="#C6C6C6" stroke-width="1.2" stroke-linecap="round" stroke-linejoin="round"/>
<path d="M-9 60.95L7.22 73.41L23.45 60.95L39.67 73.41L55.9 60.95L72.12 73.41L88.35 60.95" stroke="#C6C6C6" stroke-width="1.2" stroke-linecap="round" stroke-linejoin="round"/>
<path d="M-9 71.8L7.22 84.26L23.45 71.8L39.67 84.26L55.9 71.8L72.12 84.26L88.35 71.8" stroke="#C6C6C6" stroke-width="1.2" stroke-linecap="round" stroke-linejoin="round"/>
</svg>
