<svg width="80" height="88" viewBox="0 0 80 88" fill="none" xmlns="http://www.w3.org/2000/svg">
<path d="M12.3545 40.2914L79.0545 107.001" stroke="#C6C6C6" stroke-width="1.48" stroke-miterlimit="10"/>
<path d="M69.6641 116.401L2.9541 49.6914" stroke="#C6C6C6" stroke-width="1.48" stroke-miterlimit="10"/>
<path d="M12.3545 49.7013C11.4248 50.632 10.2399 51.266 8.9497 51.5231C7.65955 51.7802 6.32213 51.6489 5.10663 51.1457C3.89113 50.6426 2.85216 49.7903 2.12117 48.6965C1.39018 47.6028 1 46.3168 1 45.0013C1 43.6858 1.39018 42.3998 2.12117 41.3061C2.85216 40.2124 3.89113 39.36 5.10663 38.8569C6.32213 38.3538 7.65955 38.2225 8.9497 38.4796C10.2399 38.7367 11.4248 39.3707 12.3545 40.3013C13.5978 41.5495 14.2959 43.2395 14.2959 45.0013C14.2959 46.7631 13.5978 48.4531 12.3545 49.7013V49.7013Z" stroke="#C6C6C6" stroke-width="1.48" stroke-miterlimit="10"/>
<path d="M12.3545 70.9713L79.0545 137.681" stroke="#C6C6C6" stroke-width="1.48" stroke-miterlimit="10"/>
<path d="M69.6641 147.081L2.9541 80.3713" stroke="#C6C6C6" stroke-width="1.48" stroke-miterlimit="10"/>
<path d="M12.3545 80.3814C11.4248 81.312 10.2399 81.946 8.9497 82.2031C7.65955 82.4602 6.32213 82.3289 5.10663 81.8258C3.89113 81.3227 2.85216 80.4703 2.12117 79.3766C1.39018 78.2829 1 76.9969 1 75.6814C1 74.3659 1.39018 73.0799 2.12117 71.9862C2.85216 70.8924 3.89113 70.0401 5.10663 69.537C6.32213 69.0338 7.65955 68.9025 8.9497 69.1596C10.2399 69.4167 11.4248 70.0507 12.3545 70.9814C13.5978 72.2296 14.2959 73.9196 14.2959 75.6814C14.2959 77.4431 13.5978 79.1332 12.3545 80.3814Z" stroke="#C6C6C6" stroke-width="1.48" stroke-miterlimit="10"/>
<path d="M12.3545 9.62134L79.0545 76.3213" stroke="#C6C6C6" stroke-width="1.48" stroke-miterlimit="10"/>
<path d="M69.6641 85.7214L2.9541 19.0114" stroke="#C6C6C6" stroke-width="1.48" stroke-miterlimit="10"/>
<path d="M12.3545 19.0214C11.1063 20.2647 9.41628 20.9628 7.65451 20.9628C5.89274 20.9628 4.20274 20.2647 2.95451 19.0214C2.33649 18.4047 1.84617 17.6721 1.51163 16.8656C1.17708 16.0591 1.00488 15.1945 1.00488 14.3214C1.00488 13.4483 1.17708 12.5837 1.51163 11.7772C1.84617 10.9708 2.33649 10.2382 2.95451 9.62141C4.20274 8.37812 5.89274 7.68005 7.65451 7.68005C9.41628 7.68005 11.1063 8.37812 12.3545 9.62141C13.5978 10.8696 14.2959 12.5596 14.2959 14.3214C14.2959 16.0832 13.5978 17.7732 12.3545 19.0214Z" stroke="#C6C6C6" stroke-width="1.48" stroke-miterlimit="10"/>
<path d="M79.0641 76.3313C80.2475 77.5905 80.8943 79.2608 80.8675 80.9886C80.8407 82.7164 80.1424 84.3659 78.9205 85.5878C77.6987 86.8097 76.0492 87.5079 74.3214 87.5347C72.5936 87.5615 70.9232 86.9147 69.6641 85.7313" stroke="#C6C6C6" stroke-width="1.48" stroke-miterlimit="10"/>
<path d="M12.3545 -21.0586L79.0545 45.6514" stroke="#C6C6C6" stroke-width="1.48" stroke-miterlimit="10"/>
<path d="M12.3545 -54L79.0545 12.71" stroke="#C6C6C6" stroke-width="1.48" stroke-miterlimit="10"/>
<path d="M69.6641 55.0413L2.9541 -11.6587" stroke="#C6C6C6" stroke-width="1.48" stroke-miterlimit="10"/>
<path d="M69.6641 22.0999L2.9541 -44.6001" stroke="#C6C6C6" stroke-width="1.48" stroke-miterlimit="10"/>
<path d="M79.0641 45.6514C80.2475 46.9105 80.8943 48.5809 80.8675 50.3087C80.8407 52.0365 80.1424 53.686 78.9205 54.9079C77.6987 56.1297 76.0492 56.828 74.3214 56.8548C72.5936 56.8816 70.9232 56.2348 69.6641 55.0514" stroke="#C6C6C6" stroke-width="1.48" stroke-miterlimit="10"/>
<path d="M79.0641 12.71C80.2475 13.9691 80.8943 15.6395 80.8675 17.3673C80.8407 19.0951 80.1424 20.7446 78.9205 21.9664C77.6987 23.1883 76.0492 23.8866 74.3214 23.9134C72.5936 23.9402 70.9232 23.2934 69.6641 22.11" stroke="#C6C6C6" stroke-width="1.48" stroke-miterlimit="10"/>
</svg>
