<svg width="82" height="78" viewBox="0 0 82 78" fill="none" xmlns="http://www.w3.org/2000/svg">
<path d="M4.42 74.99C4.42 75.3282 4.31971 75.6588 4.13181 75.94C3.94392 76.2213 3.67685 76.4404 3.36439 76.5699C3.05193 76.6993 2.7081 76.7331 2.3764 76.6672C2.04469 76.6012 1.74 76.4383 1.50085 76.1992C1.2617 75.96 1.09884 75.6553 1.03286 75.3236C0.966877 74.9919 1.00074 74.6481 1.13017 74.3356C1.25959 74.0232 1.47877 73.7561 1.75998 73.5682C2.04118 73.3803 2.37179 73.28 2.71 73.28C3.16352 73.28 3.59847 73.4602 3.91915 73.7809C4.23984 74.1016 4.42 74.5365 4.42 74.99V74.99Z" stroke="#C6C6C6" stroke-width="0.68" stroke-linecap="round" stroke-linejoin="round"/>
<path d="M13.6504 76.7C14.5948 76.7 15.3604 75.9344 15.3604 74.99C15.3604 74.0456 14.5948 73.28 13.6504 73.28C12.706 73.28 11.9404 74.0456 11.9404 74.99C11.9404 75.9344 12.706 76.7 13.6504 76.7Z" stroke="#C6C6C6" stroke-width="0.68" stroke-linecap="round" stroke-linejoin="round"/>
<path d="M24.5899 76.7C25.5343 76.7 26.2999 75.9344 26.2999 74.99C26.2999 74.0456 25.5343 73.28 24.5899 73.28C23.6455 73.28 22.8799 74.0456 22.8799 74.99C22.8799 75.9344 23.6455 76.7 24.5899 76.7Z" stroke="#C6C6C6" stroke-width="0.68" stroke-linecap="round" stroke-linejoin="round"/>
<path d="M35.5303 76.7C36.4747 76.7 37.2403 75.9344 37.2403 74.99C37.2403 74.0456 36.4747 73.28 35.5303 73.28C34.5859 73.28 33.8203 74.0456 33.8203 74.99C33.8203 75.9344 34.5859 76.7 35.5303 76.7Z" stroke="#C6C6C6" stroke-width="0.68" stroke-linecap="round" stroke-linejoin="round"/>
<path d="M46.4698 76.7C47.4142 76.7 48.1798 75.9344 48.1798 74.99C48.1798 74.0456 47.4142 73.28 46.4698 73.28C45.5254 73.28 44.7598 74.0456 44.7598 74.99C44.7598 75.9344 45.5254 76.7 46.4698 76.7Z" stroke="#C6C6C6" stroke-width="0.68" stroke-linecap="round" stroke-linejoin="round"/>
<path d="M57.4102 76.7C58.3546 76.7 59.1202 75.9344 59.1202 74.99C59.1202 74.0456 58.3546 73.28 57.4102 73.28C56.4658 73.28 55.7002 74.0456 55.7002 74.99C55.7002 75.9344 56.4658 76.7 57.4102 76.7Z" stroke="#C6C6C6" stroke-width="0.68" stroke-linecap="round" stroke-linejoin="round"/>
<path d="M68.3496 76.7C69.2941 76.7 70.0596 75.9344 70.0596 74.99C70.0596 74.0456 69.2941 73.28 68.3496 73.28C67.4052 73.28 66.6396 74.0456 66.6396 74.99C66.6396 75.9344 67.4052 76.7 68.3496 76.7Z" stroke="#C6C6C6" stroke-width="0.68" stroke-linecap="round" stroke-linejoin="round"/>
<path d="M81.0001 74.99C81.0001 75.3282 80.8998 75.6588 80.7119 75.94C80.524 76.2213 80.2569 76.4404 79.9445 76.5699C79.632 76.6993 79.2882 76.7331 78.9565 76.6672C78.6248 76.6012 78.3201 76.4383 78.0809 76.1992C77.8418 75.96 77.6789 75.6553 77.6129 75.3236C77.547 74.9919 77.5808 74.6481 77.7102 74.3356C77.8397 74.0232 78.0588 73.7561 78.3401 73.5682C78.6213 73.3803 78.9519 73.28 79.2901 73.28C79.7436 73.28 80.1785 73.4602 80.4992 73.7809C80.8199 74.1016 81.0001 74.5365 81.0001 74.99V74.99Z" stroke="#C6C6C6" stroke-width="0.68" stroke-linecap="round" stroke-linejoin="round"/>
<path d="M4.42 64.66C4.42 64.9982 4.31971 65.3288 4.13181 65.61C3.94392 65.8912 3.67685 66.1104 3.36439 66.2398C3.05193 66.3692 2.7081 66.4031 2.3764 66.3371C2.04469 66.2711 1.74 66.1083 1.50085 65.8691C1.2617 65.63 1.09884 65.3253 1.03286 64.9936C0.966877 64.6619 1.00074 64.3181 1.13017 64.0056C1.25959 63.6931 1.47877 63.4261 1.75998 63.2382C2.04118 63.0503 2.37179 62.95 2.71 62.95C2.93493 62.9487 3.15789 62.992 3.36596 63.0774C3.57402 63.1629 3.76306 63.2888 3.92211 63.4479C4.08117 63.6069 4.20707 63.796 4.29254 64.004C4.378 64.2121 4.42133 64.435 4.42 64.66V64.66Z" stroke="#C6C6C6" stroke-width="0.68" stroke-linecap="round" stroke-linejoin="round"/>
<path d="M13.6504 66.3701C14.5948 66.3701 15.3604 65.6045 15.3604 64.6601C15.3604 63.7157 14.5948 62.9501 13.6504 62.9501C12.706 62.9501 11.9404 63.7157 11.9404 64.6601C11.9404 65.6045 12.706 66.3701 13.6504 66.3701Z" stroke="#C6C6C6" stroke-width="0.68" stroke-linecap="round" stroke-linejoin="round"/>
<path d="M24.5899 66.3701C25.5343 66.3701 26.2999 65.6045 26.2999 64.6601C26.2999 63.7157 25.5343 62.9501 24.5899 62.9501C23.6455 62.9501 22.8799 63.7157 22.8799 64.6601C22.8799 65.6045 23.6455 66.3701 24.5899 66.3701Z" stroke="#C6C6C6" stroke-width="0.68" stroke-linecap="round" stroke-linejoin="round"/>
<path d="M35.5303 66.3701C36.4747 66.3701 37.2403 65.6045 37.2403 64.6601C37.2403 63.7157 36.4747 62.9501 35.5303 62.9501C34.5859 62.9501 33.8203 63.7157 33.8203 64.6601C33.8203 65.6045 34.5859 66.3701 35.5303 66.3701Z" stroke="#C6C6C6" stroke-width="0.68" stroke-linecap="round" stroke-linejoin="round"/>
<path d="M46.4698 66.3701C47.4142 66.3701 48.1798 65.6045 48.1798 64.6601C48.1798 63.7157 47.4142 62.9501 46.4698 62.9501C45.5254 62.9501 44.7598 63.7157 44.7598 64.6601C44.7598 65.6045 45.5254 66.3701 46.4698 66.3701Z" stroke="#C6C6C6" stroke-width="0.68" stroke-linecap="round" stroke-linejoin="round"/>
<path d="M57.4102 66.3701C58.3546 66.3701 59.1202 65.6045 59.1202 64.6601C59.1202 63.7157 58.3546 62.9501 57.4102 62.9501C56.4658 62.9501 55.7002 63.7157 55.7002 64.6601C55.7002 65.6045 56.4658 66.3701 57.4102 66.3701Z" stroke="#C6C6C6" stroke-width="0.68" stroke-linecap="round" stroke-linejoin="round"/>
<path d="M68.3496 66.3701C69.2941 66.3701 70.0596 65.6045 70.0596 64.6601C70.0596 63.7157 69.2941 62.9501 68.3496 62.9501C67.4052 62.9501 66.6396 63.7157 66.6396 64.6601C66.6396 65.6045 67.4052 66.3701 68.3496 66.3701Z" stroke="#C6C6C6" stroke-width="0.68" stroke-linecap="round" stroke-linejoin="round"/>
<path d="M81.0001 64.66C81.0001 64.9982 80.8998 65.3288 80.7119 65.61C80.524 65.8912 80.2569 66.1104 79.9445 66.2398C79.632 66.3692 79.2882 66.4031 78.9565 66.3371C78.6248 66.2711 78.3201 66.1083 78.0809 65.8691C77.8418 65.63 77.6789 65.3253 77.6129 64.9936C77.547 64.6619 77.5808 64.3181 77.7102 64.0056C77.8397 63.6931 78.0588 63.4261 78.3401 63.2382C78.6213 63.0503 78.9519 62.95 79.2901 62.95C79.515 62.9487 79.738 62.992 79.946 63.0774C80.1541 63.1629 80.3431 63.2888 80.5022 63.4479C80.6612 63.6069 80.7872 63.796 80.8726 64.004C80.9581 64.2121 81.0014 64.435 81.0001 64.66V64.66Z" stroke="#C6C6C6" stroke-width="0.68" stroke-linecap="round" stroke-linejoin="round"/>
<path d="M4.41974 54.34C4.42569 54.6795 4.33049 55.013 4.14625 55.2981C3.96201 55.5832 3.69707 55.8071 3.38518 55.9411C3.07329 56.0751 2.72856 56.1133 2.3949 56.0508C2.06124 55.9882 1.75375 55.8277 1.5116 55.5898C1.26944 55.3519 1.10357 55.0473 1.03512 54.7148C0.966673 54.3823 0.99874 54.037 1.12724 53.7228C1.25573 53.4085 1.47485 53.1397 1.75667 52.9504C2.03849 52.7612 2.37027 52.6601 2.70974 52.66C3.15811 52.66 3.58857 52.836 3.90841 53.1502C4.22824 53.4645 4.41187 53.8917 4.41974 54.34V54.34Z" stroke="#C6C6C6" stroke-width="0.68" stroke-linecap="round" stroke-linejoin="round"/>
<path d="M13.6504 56.05C14.5948 56.05 15.3604 55.2844 15.3604 54.34C15.3604 53.3956 14.5948 52.63 13.6504 52.63C12.706 52.63 11.9404 53.3956 11.9404 54.34C11.9404 55.2844 12.706 56.05 13.6504 56.05Z" stroke="#C6C6C6" stroke-width="0.68" stroke-linecap="round" stroke-linejoin="round"/>
<path d="M24.5899 56.05C25.5343 56.05 26.2999 55.2844 26.2999 54.34C26.2999 53.3956 25.5343 52.63 24.5899 52.63C23.6455 52.63 22.8799 53.3956 22.8799 54.34C22.8799 55.2844 23.6455 56.05 24.5899 56.05Z" stroke="#C6C6C6" stroke-width="0.68" stroke-linecap="round" stroke-linejoin="round"/>
<path d="M35.5303 56.05C36.4747 56.05 37.2403 55.2844 37.2403 54.34C37.2403 53.3956 36.4747 52.63 35.5303 52.63C34.5859 52.63 33.8203 53.3956 33.8203 54.34C33.8203 55.2844 34.5859 56.05 35.5303 56.05Z" stroke="#C6C6C6" stroke-width="0.68" stroke-linecap="round" stroke-linejoin="round"/>
<path d="M46.4698 56.05C47.4142 56.05 48.1798 55.2844 48.1798 54.34C48.1798 53.3956 47.4142 52.63 46.4698 52.63C45.5254 52.63 44.7598 53.3956 44.7598 54.34C44.7598 55.2844 45.5254 56.05 46.4698 56.05Z" stroke="#C6C6C6" stroke-width="0.68" stroke-linecap="round" stroke-linejoin="round"/>
<path d="M57.4102 56.05C58.3546 56.05 59.1202 55.2844 59.1202 54.34C59.1202 53.3956 58.3546 52.63 57.4102 52.63C56.4658 52.63 55.7002 53.3956 55.7002 54.34C55.7002 55.2844 56.4658 56.05 57.4102 56.05Z" stroke="#C6C6C6" stroke-width="0.68" stroke-linecap="round" stroke-linejoin="round"/>
<path d="M68.3496 56.05C69.2941 56.05 70.0596 55.2844 70.0596 54.34C70.0596 53.3956 69.2941 52.63 68.3496 52.63C67.4052 52.63 66.6396 53.3956 66.6396 54.34C66.6396 55.2844 67.4052 56.05 68.3496 56.05Z" stroke="#C6C6C6" stroke-width="0.68" stroke-linecap="round" stroke-linejoin="round"/>
<path d="M80.9998 54.34C81.0058 54.6795 80.9106 55.013 80.7263 55.2981C80.5421 55.5832 80.2771 55.8071 79.9653 55.9411C79.6534 56.0751 79.3086 56.1133 78.975 56.0508C78.6413 55.9882 78.3338 55.8277 78.0917 55.5898C77.8495 55.3519 77.6836 55.0473 77.6152 54.7148C77.5468 54.3823 77.5788 54.037 77.7073 53.7228C77.8358 53.4085 78.0549 53.1397 78.3367 52.9504C78.6186 52.7612 78.9503 52.6601 79.2898 52.66C79.7382 52.66 80.1686 52.836 80.4885 53.1502C80.8083 53.4645 80.9919 53.8917 80.9998 54.34V54.34Z" stroke="#C6C6C6" stroke-width="0.68" stroke-linecap="round" stroke-linejoin="round"/>
<path d="M4.42 44.0101C4.42 44.3483 4.31971 44.6789 4.13181 44.9601C3.94392 45.2413 3.67685 45.4605 3.36439 45.5899C3.05193 45.7193 2.7081 45.7532 2.3764 45.6872C2.04469 45.6212 1.74 45.4584 1.50085 45.2192C1.2617 44.9801 1.09884 44.6754 1.03286 44.3437C0.966877 44.012 1.00074 43.6682 1.13017 43.3557C1.25959 43.0432 1.47877 42.7762 1.75998 42.5883C2.04118 42.4004 2.37179 42.3001 2.71 42.3001C2.93493 42.2988 3.15789 42.3421 3.36596 42.4275C3.57402 42.513 3.76306 42.6389 3.92211 42.798C4.08117 42.957 4.20707 43.1461 4.29254 43.3541C4.378 43.5622 4.42133 43.7851 4.42 44.0101V44.0101Z" stroke="#C6C6C6" stroke-width="0.68" stroke-linecap="round" stroke-linejoin="round"/>
<path d="M15.3604 44.0101C15.3604 44.3487 15.2599 44.6797 15.0715 44.9611C14.8832 45.2426 14.6155 45.4617 14.3025 45.5908C13.9894 45.72 13.6451 45.7532 13.3131 45.6865C12.9812 45.6197 12.6765 45.4558 12.4377 45.2157C12.199 44.9755 12.0369 44.6699 11.9721 44.3375C11.9072 44.0051 11.9425 43.661 12.0735 43.3487C12.2044 43.0364 12.4252 42.7701 12.7077 42.5834C12.9902 42.3967 13.3218 42.2981 13.6604 42.3001C13.8845 42.3001 14.1064 42.3444 14.3133 42.4304C14.5202 42.5165 14.7081 42.6426 14.8661 42.8015C15.0241 42.9604 15.1491 43.149 15.2339 43.3564C15.3187 43.5639 15.3617 43.786 15.3604 44.0101Z" stroke="#C6C6C6" stroke-width="0.68" stroke-linecap="round" stroke-linejoin="round"/>
<path d="M26.2999 44.0101C26.2999 44.3483 26.1996 44.6789 26.0117 44.9601C25.8238 45.2413 25.5567 45.4605 25.2443 45.5899C24.9318 45.7193 24.588 45.7532 24.2563 45.6872C23.9246 45.6212 23.6199 45.4584 23.3807 45.2192C23.1416 44.9801 22.9787 44.6754 22.9127 44.3437C22.8468 44.012 22.8806 43.6682 23.01 43.3557C23.1395 43.0432 23.3587 42.7762 23.6399 42.5883C23.9211 42.4004 24.2517 42.3001 24.5899 42.3001C24.8148 42.2988 25.0378 42.3421 25.2458 42.4275C25.4539 42.513 25.6429 42.6389 25.802 42.798C25.961 42.957 26.087 43.1461 26.1724 43.3541C26.2579 43.5622 26.3012 43.7851 26.2999 44.0101V44.0101Z" stroke="#C6C6C6" stroke-width="0.68" stroke-linecap="round" stroke-linejoin="round"/>
<path d="M37.2403 44.0101C37.2403 44.3483 37.14 44.6789 36.9521 44.9601C36.7642 45.2413 36.4972 45.4605 36.1847 45.5899C35.8722 45.7193 35.5284 45.7532 35.1967 45.6872C34.865 45.6212 34.5603 45.4584 34.3212 45.2192C34.082 44.9801 33.9192 44.6754 33.8532 44.3437C33.7872 44.012 33.8211 43.6682 33.9505 43.3557C34.0799 43.0432 34.2991 42.7762 34.5803 42.5883C34.8615 42.4004 35.1921 42.3001 35.5303 42.3001C35.7552 42.2988 35.9782 42.3421 36.1863 42.4275C36.3943 42.513 36.5834 42.6389 36.7424 42.798C36.9015 42.957 37.0274 43.1461 37.1129 43.3541C37.1983 43.5622 37.2416 43.7851 37.2403 44.0101Z" stroke="#C6C6C6" stroke-width="0.68" stroke-linecap="round" stroke-linejoin="round"/>
<path d="M48.1798 44.0101C48.1798 44.3483 48.0795 44.6789 47.8916 44.9601C47.7037 45.2413 47.4366 45.4605 47.1242 45.5899C46.8117 45.7193 46.4679 45.7532 46.1362 45.6872C45.8045 45.6212 45.4998 45.4584 45.2606 45.2192C45.0215 44.9801 44.8586 44.6754 44.7926 44.3437C44.7266 44.012 44.7605 43.6682 44.8899 43.3557C45.0194 43.0432 45.2385 42.7762 45.5197 42.5883C45.8009 42.4004 46.1316 42.3001 46.4698 42.3001C46.6947 42.2988 46.9177 42.3421 47.1257 42.4275C47.3338 42.513 47.5228 42.6389 47.6819 42.798C47.8409 42.957 47.9668 43.1461 48.0523 43.3541C48.1378 43.5622 48.1811 43.7851 48.1798 44.0101Z" stroke="#C6C6C6" stroke-width="0.68" stroke-linecap="round" stroke-linejoin="round"/>
<path d="M59.1202 44.0101C59.1202 44.3483 59.0199 44.6789 58.832 44.9601C58.6441 45.2413 58.377 45.4605 58.0646 45.5899C57.7521 45.7193 57.4083 45.7532 57.0766 45.6872C56.7449 45.6212 56.4402 45.4584 56.201 45.2192C55.9619 44.9801 55.799 44.6754 55.7331 44.3437C55.6671 44.012 55.7009 43.6682 55.8304 43.3557C55.9598 43.0432 56.179 42.7762 56.4602 42.5883C56.7414 42.4004 57.072 42.3001 57.4102 42.3001C57.6351 42.2988 57.8581 42.3421 58.0662 42.4275C58.2742 42.513 58.4633 42.6389 58.6223 42.798C58.7814 42.957 58.9073 43.1461 58.9927 43.3541C59.0782 43.5622 59.1215 43.7851 59.1202 44.0101V44.0101Z" stroke="#C6C6C6" stroke-width="0.68" stroke-linecap="round" stroke-linejoin="round"/>
<path d="M70.0597 44.0101C70.0597 44.3483 69.9594 44.6789 69.7715 44.9601C69.5836 45.2413 69.3165 45.4605 69.004 45.5899C68.6916 45.7193 68.3477 45.7532 68.016 45.6872C67.6843 45.6212 67.3796 45.4584 67.1405 45.2192C66.9014 44.9801 66.7385 44.6754 66.6725 44.3437C66.6065 44.012 66.6404 43.6682 66.7698 43.3557C66.8992 43.0432 67.1184 42.7762 67.3996 42.5883C67.6808 42.4004 68.0114 42.3001 68.3497 42.3001C68.5746 42.2988 68.7975 42.3421 69.0056 42.4275C69.2137 42.513 69.4027 42.6389 69.5618 42.798C69.7208 42.957 69.8467 43.1461 69.9322 43.3541C70.0177 43.5622 70.061 43.7851 70.0597 44.0101Z" stroke="#C6C6C6" stroke-width="0.68" stroke-linecap="round" stroke-linejoin="round"/>
<path d="M81.0001 44.0101C81.0001 44.3483 80.8998 44.6789 80.7119 44.9601C80.524 45.2413 80.2569 45.4605 79.9445 45.5899C79.632 45.7193 79.2882 45.7532 78.9565 45.6872C78.6248 45.6212 78.3201 45.4584 78.0809 45.2192C77.8418 44.9801 77.6789 44.6754 77.6129 44.3437C77.547 44.012 77.5808 43.6682 77.7102 43.3557C77.8397 43.0432 78.0588 42.7762 78.3401 42.5883C78.6213 42.4004 78.9519 42.3001 79.2901 42.3001C79.515 42.2988 79.738 42.3421 79.946 42.4275C80.1541 42.513 80.3431 42.6389 80.5022 42.798C80.6612 42.957 80.7872 43.1461 80.8726 43.3541C80.9581 43.5622 81.0014 43.7851 81.0001 44.0101Z" stroke="#C6C6C6" stroke-width="0.68" stroke-linecap="round" stroke-linejoin="round"/>
<path d="M4.42 33.6601C4.42 33.9983 4.31971 34.3289 4.13181 34.6101C3.94392 34.8913 3.67685 35.1105 3.36439 35.2399C3.05193 35.3693 2.7081 35.4032 2.3764 35.3372C2.04469 35.2712 1.74 35.1084 1.50085 34.8692C1.2617 34.6301 1.09884 34.3254 1.03286 33.9937C0.966877 33.662 1.00074 33.3181 1.13017 33.0057C1.25959 32.6932 1.47877 32.4262 1.75998 32.2383C2.04118 32.0504 2.37179 31.9501 2.71 31.9501C3.16352 31.9501 3.59847 32.1302 3.91915 32.4509C4.23984 32.7716 4.42 33.2066 4.42 33.6601V33.6601Z" stroke="#C6C6C6" stroke-width="0.68" stroke-linecap="round" stroke-linejoin="round"/>
<path d="M15.3602 33.66C15.3661 33.9999 15.2707 34.3338 15.086 34.6191C14.9013 34.9045 14.6358 35.1283 14.3233 35.262C14.0108 35.3958 13.6656 35.4334 13.3316 35.37C12.9977 35.3066 12.6902 35.1452 12.4485 34.9063C12.2067 34.6673 12.0416 34.3618 11.9743 34.0286C11.907 33.6955 11.9405 33.3498 12.0705 33.0358C12.2006 32.7217 12.4212 32.4536 12.7044 32.2655C12.9875 32.0775 13.3203 31.9781 13.6602 31.98C14.1068 31.9826 14.5347 32.1597 14.8524 32.4737C15.1701 32.7876 15.3523 33.2134 15.3602 33.66V33.66Z" stroke="#C6C6C6" stroke-width="0.68" stroke-linecap="round" stroke-linejoin="round"/>
<path d="M26.2999 33.6601C26.2999 33.9983 26.1996 34.3289 26.0117 34.6101C25.8238 34.8913 25.5567 35.1105 25.2443 35.2399C24.9318 35.3693 24.588 35.4032 24.2563 35.3372C23.9246 35.2712 23.6199 35.1084 23.3807 34.8692C23.1416 34.6301 22.9787 34.3254 22.9127 33.9937C22.8468 33.662 22.8806 33.3181 23.01 33.0057C23.1395 32.6932 23.3587 32.4262 23.6399 32.2383C23.9211 32.0504 24.2517 31.9501 24.5899 31.9501C25.0434 31.9501 25.4783 32.1302 25.799 32.4509C26.1197 32.7716 26.2999 33.2066 26.2999 33.6601V33.6601Z" stroke="#C6C6C6" stroke-width="0.68" stroke-linecap="round" stroke-linejoin="round"/>
<path d="M37.2403 33.6601C37.2403 33.9983 37.14 34.3289 36.9521 34.6101C36.7642 34.8913 36.4972 35.1105 36.1847 35.2399C35.8722 35.3693 35.5284 35.4032 35.1967 35.3372C34.865 35.2712 34.5603 35.1084 34.3212 34.8692C34.082 34.6301 33.9192 34.3254 33.8532 33.9937C33.7872 33.662 33.8211 33.3181 33.9505 33.0057C34.0799 32.6932 34.2991 32.4262 34.5803 32.2383C34.8615 32.0504 35.1921 31.9501 35.5303 31.9501C35.9838 31.9501 36.4188 32.1302 36.7395 32.4509C37.0602 32.7716 37.2403 33.2066 37.2403 33.6601V33.6601Z" stroke="#C6C6C6" stroke-width="0.68" stroke-linecap="round" stroke-linejoin="round"/>
<path d="M48.1798 33.6601C48.1798 33.9983 48.0795 34.3289 47.8916 34.6101C47.7037 34.8913 47.4366 35.1105 47.1242 35.2399C46.8117 35.3693 46.4679 35.4032 46.1362 35.3372C45.8045 35.2712 45.4998 35.1084 45.2606 34.8692C45.0215 34.6301 44.8586 34.3254 44.7926 33.9937C44.7266 33.662 44.7605 33.3181 44.8899 33.0057C45.0194 32.6932 45.2385 32.4262 45.5197 32.2383C45.8009 32.0504 46.1316 31.9501 46.4698 31.9501C46.9233 31.9501 47.3582 32.1302 47.6789 32.4509C47.9996 32.7716 48.1798 33.2066 48.1798 33.6601V33.6601Z" stroke="#C6C6C6" stroke-width="0.68" stroke-linecap="round" stroke-linejoin="round"/>
<path d="M59.1202 33.6601C59.1202 33.9983 59.0199 34.3289 58.832 34.6101C58.6441 34.8913 58.377 35.1105 58.0646 35.2399C57.7521 35.3693 57.4083 35.4032 57.0766 35.3372C56.7449 35.2712 56.4402 35.1084 56.201 34.8692C55.9619 34.6301 55.799 34.3254 55.7331 33.9937C55.6671 33.662 55.7009 33.3181 55.8304 33.0057C55.9598 32.6932 56.179 32.4262 56.4602 32.2383C56.7414 32.0504 57.072 31.9501 57.4102 31.9501C57.8637 31.9501 58.2987 32.1302 58.6193 32.4509C58.94 32.7716 59.1202 33.2066 59.1202 33.6601V33.6601Z" stroke="#C6C6C6" stroke-width="0.68" stroke-linecap="round" stroke-linejoin="round"/>
<path d="M70.0597 33.6601C70.0597 33.9983 69.9594 34.3289 69.7715 34.6101C69.5836 34.8913 69.3165 35.1105 69.004 35.2399C68.6916 35.3693 68.3477 35.4032 68.016 35.3372C67.6843 35.2712 67.3796 35.1084 67.1405 34.8692C66.9014 34.6301 66.7385 34.3254 66.6725 33.9937C66.6065 33.662 66.6404 33.3181 66.7698 33.0057C66.8992 32.6932 67.1184 32.4262 67.3996 32.2383C67.6808 32.0504 68.0114 31.9501 68.3497 31.9501C68.8032 31.9501 69.2381 32.1302 69.5588 32.4509C69.8795 32.7716 70.0597 33.2066 70.0597 33.6601V33.6601Z" stroke="#C6C6C6" stroke-width="0.68" stroke-linecap="round" stroke-linejoin="round"/>
<path d="M81.0001 33.6601C81.0001 33.9983 80.8998 34.3289 80.7119 34.6101C80.524 34.8913 80.2569 35.1105 79.9445 35.2399C79.632 35.3693 79.2882 35.4032 78.9565 35.3372C78.6248 35.2712 78.3201 35.1084 78.0809 34.8692C77.8418 34.6301 77.6789 34.3254 77.6129 33.9937C77.547 33.662 77.5808 33.3181 77.7102 33.0057C77.8397 32.6932 78.0588 32.4262 78.3401 32.2383C78.6213 32.0504 78.9519 31.9501 79.2901 31.9501C79.7436 31.9501 80.1785 32.1302 80.4992 32.4509C80.8199 32.7716 81.0001 33.2066 81.0001 33.6601V33.6601Z" stroke="#C6C6C6" stroke-width="0.68" stroke-linecap="round" stroke-linejoin="round"/>
<path d="M4.41997 23.3601C4.42195 23.6987 4.32335 24.0303 4.13666 24.3128C3.94997 24.5953 3.6836 24.816 3.37132 24.947C3.05904 25.078 2.7149 25.1133 2.38254 25.0484C2.05018 24.9836 1.74455 24.8215 1.5044 24.5828C1.26425 24.344 1.10039 24.0393 1.0336 23.7074C0.966802 23.3754 1.00008 23.031 1.1292 22.718C1.25833 22.405 1.47749 22.1373 1.75892 21.949C2.04034 21.7606 2.37134 21.6601 2.70997 21.6601C2.93406 21.6587 3.1562 21.7017 3.3636 21.7866C3.57101 21.8714 3.7596 21.9964 3.91852 22.1544C4.07744 22.3124 4.20356 22.5003 4.28962 22.7072C4.37567 22.9141 4.41998 23.136 4.41997 23.3601V23.3601Z" stroke="#C6C6C6" stroke-width="0.68" stroke-linecap="round" stroke-linejoin="round"/>
<path d="M15.3604 23.3601C15.3624 23.6991 15.2635 24.0311 15.0764 24.3138C14.8893 24.5966 14.6223 24.8173 14.3094 24.948C13.9966 25.0786 13.6519 25.1133 13.3193 25.0477C12.9866 24.982 12.681 24.8189 12.4413 24.5792C12.2015 24.3394 12.0385 24.0338 11.9728 23.7012C11.9071 23.3686 11.9418 23.0239 12.0725 22.711C12.2032 22.3982 12.4239 22.1312 12.7066 21.9441C12.9894 21.7569 13.3214 21.6581 13.6604 21.6601C14.1113 21.6601 14.5437 21.8392 14.8625 22.158C15.1813 22.4768 15.3604 22.9092 15.3604 23.3601V23.3601Z" stroke="#C6C6C6" stroke-width="0.68" stroke-linecap="round" stroke-linejoin="round"/>
<path d="M26.2999 23.3601C26.3018 23.6987 26.2032 24.0303 26.0165 24.3128C25.8299 24.5953 25.5635 24.816 25.2512 24.947C24.9389 25.078 24.5948 25.1133 24.2624 25.0484C23.9301 24.9836 23.6244 24.8215 23.3843 24.5828C23.1441 24.344 22.9803 24.0393 22.9135 23.7074C22.8467 23.3754 22.88 23.031 23.0091 22.718C23.1382 22.405 23.3574 22.1373 23.6388 21.949C23.9202 21.7606 24.2512 21.6601 24.5899 21.6601C24.8139 21.6587 25.0361 21.7017 25.2435 21.7866C25.4509 21.8714 25.6395 21.9964 25.7984 22.1544C25.9573 22.3124 26.0834 22.5003 26.1695 22.7072C26.2556 22.9141 26.2999 23.136 26.2999 23.3601Z" stroke="#C6C6C6" stroke-width="0.68" stroke-linecap="round" stroke-linejoin="round"/>
<path d="M37.2403 23.3601C37.2423 23.6987 37.1437 24.0303 36.957 24.3128C36.7703 24.5953 36.5039 24.816 36.1916 24.947C35.8794 25.078 35.5352 25.1133 35.2029 25.0484C34.8705 24.9836 34.5649 24.8215 34.3247 24.5828C34.0846 24.344 33.9207 24.0393 33.8539 23.7074C33.7871 23.3754 33.8204 23.031 33.9495 22.718C34.0786 22.405 34.2978 22.1373 34.5792 21.949C34.8606 21.7606 35.1917 21.6601 35.5303 21.6601C35.7544 21.6587 35.9765 21.7017 36.1839 21.7866C36.3913 21.8714 36.5799 21.9964 36.7388 22.1544C36.8978 22.3124 37.0239 22.5003 37.1099 22.7072C37.196 22.9141 37.2403 23.136 37.2403 23.3601Z" stroke="#C6C6C6" stroke-width="0.68" stroke-linecap="round" stroke-linejoin="round"/>
<path d="M48.1797 23.3601C48.1817 23.6987 48.0831 24.0303 47.8964 24.3128C47.7097 24.5953 47.4434 24.816 47.1311 24.947C46.8188 25.078 46.4747 25.1133 46.1423 25.0484C45.8099 24.9836 45.5043 24.8215 45.2642 24.5828C45.024 24.344 44.8602 24.0393 44.7934 23.7074C44.7266 23.3754 44.7598 23.031 44.889 22.718C45.0181 22.405 45.2373 22.1373 45.5187 21.949C45.8001 21.7606 46.1311 21.6601 46.4697 21.6601C46.6938 21.6587 46.916 21.7017 47.1234 21.7866C47.3308 21.8714 47.5194 21.9964 47.6783 22.1544C47.8372 22.3124 47.9633 22.5003 48.0494 22.7072C48.1354 22.9141 48.1797 23.136 48.1797 23.3601Z" stroke="#C6C6C6" stroke-width="0.68" stroke-linecap="round" stroke-linejoin="round"/>
<path d="M59.1202 23.3601C59.1221 23.6987 59.0235 24.0303 58.8369 24.3128C58.6502 24.5953 58.3838 24.816 58.0715 24.947C57.7592 25.078 57.4151 25.1133 57.0827 25.0484C56.7504 24.9836 56.4447 24.8215 56.2046 24.5828C55.9644 24.344 55.8006 24.0393 55.7338 23.7074C55.667 23.3754 55.7003 23.031 55.8294 22.718C55.9585 22.405 56.1777 22.1373 56.4591 21.949C56.7405 21.7606 57.0715 21.6601 57.4102 21.6601C57.6343 21.6587 57.8564 21.7017 58.0638 21.7866C58.2712 21.8714 58.4598 21.9964 58.6187 22.1544C58.7776 22.3124 58.9038 22.5003 58.9898 22.7072C59.0759 22.9141 59.1202 23.136 59.1202 23.3601Z" stroke="#C6C6C6" stroke-width="0.68" stroke-linecap="round" stroke-linejoin="round"/>
<path d="M70.0596 23.3601C70.0616 23.6987 69.963 24.0303 69.7763 24.3128C69.5896 24.5953 69.3233 24.816 69.011 24.947C68.6987 25.078 68.3545 25.1133 68.0222 25.0484C67.6898 24.9836 67.3842 24.8215 67.144 24.5828C66.9039 24.344 66.74 24.0393 66.6732 23.7074C66.6065 23.3754 66.6397 23.031 66.7689 22.718C66.898 22.405 67.1171 22.1373 67.3986 21.949C67.68 21.7606 68.011 21.6601 68.3496 21.6601C68.5737 21.6587 68.7958 21.7017 69.0033 21.7866C69.2107 21.8714 69.3993 21.9964 69.5582 22.1544C69.7171 22.3124 69.8432 22.5003 69.9293 22.7072C70.0153 22.9141 70.0596 23.136 70.0596 23.3601V23.3601Z" stroke="#C6C6C6" stroke-width="0.68" stroke-linecap="round" stroke-linejoin="round"/>
<path d="M81 23.3601C81.002 23.6987 80.9034 24.0303 80.7167 24.3128C80.53 24.5953 80.2637 24.816 79.9514 24.947C79.6391 25.078 79.295 25.1133 78.9626 25.0484C78.6303 24.9836 78.3246 24.8215 78.0845 24.5828C77.8443 24.344 77.6805 24.0393 77.6137 23.7074C77.5469 23.3754 77.5802 23.031 77.7093 22.718C77.8384 22.405 78.0576 22.1373 78.339 21.949C78.6204 21.7606 78.9514 21.6601 79.29 21.6601C79.5141 21.6587 79.7363 21.7017 79.9437 21.7866C80.1511 21.8714 80.3397 21.9964 80.4986 22.1544C80.6575 22.3124 80.7836 22.5003 80.8697 22.7072C80.9558 22.9141 81 23.136 81 23.3601V23.3601Z" stroke="#C6C6C6" stroke-width="0.68" stroke-linecap="round" stroke-linejoin="round"/>
<path d="M4.42 13.0401C4.42 13.3783 4.31971 13.7089 4.13181 13.9901C3.94392 14.2713 3.67685 14.4905 3.36439 14.6199C3.05193 14.7493 2.7081 14.7832 2.3764 14.7172C2.04469 14.6512 1.74 14.4884 1.50085 14.2492C1.2617 14.0101 1.09884 13.7054 1.03286 13.3737C0.966877 13.042 1.00074 12.6982 1.13017 12.3857C1.25959 12.0732 1.47877 11.8062 1.75998 11.6183C2.04118 11.4304 2.37179 11.3301 2.71 11.3301C3.16352 11.3301 3.59847 11.5102 3.91915 11.8309C4.23984 12.1516 4.42 12.5866 4.42 13.0401V13.0401Z" stroke="#C6C6C6" stroke-width="0.68" stroke-linecap="round" stroke-linejoin="round"/>
<path d="M13.6504 14.7501C14.5948 14.7501 15.3604 13.9845 15.3604 13.0401C15.3604 12.0957 14.5948 11.3301 13.6504 11.3301C12.706 11.3301 11.9404 12.0957 11.9404 13.0401C11.9404 13.9845 12.706 14.7501 13.6504 14.7501Z" stroke="#C6C6C6" stroke-width="0.68" stroke-linecap="round" stroke-linejoin="round"/>
<path d="M24.5899 14.7501C25.5343 14.7501 26.2999 13.9845 26.2999 13.0401C26.2999 12.0957 25.5343 11.3301 24.5899 11.3301C23.6455 11.3301 22.8799 12.0957 22.8799 13.0401C22.8799 13.9845 23.6455 14.7501 24.5899 14.7501Z" stroke="#C6C6C6" stroke-width="0.68" stroke-linecap="round" stroke-linejoin="round"/>
<path d="M35.5303 14.7501C36.4747 14.7501 37.2403 13.9845 37.2403 13.0401C37.2403 12.0957 36.4747 11.3301 35.5303 11.3301C34.5859 11.3301 33.8203 12.0957 33.8203 13.0401C33.8203 13.9845 34.5859 14.7501 35.5303 14.7501Z" stroke="#C6C6C6" stroke-width="0.68" stroke-linecap="round" stroke-linejoin="round"/>
<path d="M46.4698 14.7501C47.4142 14.7501 48.1798 13.9845 48.1798 13.0401C48.1798 12.0957 47.4142 11.3301 46.4698 11.3301C45.5254 11.3301 44.7598 12.0957 44.7598 13.0401C44.7598 13.9845 45.5254 14.7501 46.4698 14.7501Z" stroke="#C6C6C6" stroke-width="0.68" stroke-linecap="round" stroke-linejoin="round"/>
<path d="M57.4102 14.7501C58.3546 14.7501 59.1202 13.9845 59.1202 13.0401C59.1202 12.0957 58.3546 11.3301 57.4102 11.3301C56.4658 11.3301 55.7002 12.0957 55.7002 13.0401C55.7002 13.9845 56.4658 14.7501 57.4102 14.7501Z" stroke="#C6C6C6" stroke-width="0.68" stroke-linecap="round" stroke-linejoin="round"/>
<path d="M68.3496 14.7501C69.2941 14.7501 70.0596 13.9845 70.0596 13.0401C70.0596 12.0957 69.2941 11.3301 68.3496 11.3301C67.4052 11.3301 66.6396 12.0957 66.6396 13.0401C66.6396 13.9845 67.4052 14.7501 68.3496 14.7501Z" stroke="#C6C6C6" stroke-width="0.68" stroke-linecap="round" stroke-linejoin="round"/>
<path d="M81.0001 13.0401C81.0001 13.3783 80.8998 13.7089 80.7119 13.9901C80.524 14.2713 80.2569 14.4905 79.9445 14.6199C79.632 14.7493 79.2882 14.7832 78.9565 14.7172C78.6248 14.6512 78.3201 14.4884 78.0809 14.2492C77.8418 14.0101 77.6789 13.7054 77.6129 13.3737C77.547 13.042 77.5808 12.6982 77.7102 12.3857C77.8397 12.0732 78.0588 11.8062 78.3401 11.6183C78.6213 11.4304 78.9519 11.3301 79.2901 11.3301C79.7436 11.3301 80.1785 11.5102 80.4992 11.8309C80.8199 12.1516 81.0001 12.5866 81.0001 13.0401V13.0401Z" stroke="#C6C6C6" stroke-width="0.68" stroke-linecap="round" stroke-linejoin="round"/>
<path d="M4.42 2.71003C4.42 3.04824 4.31971 3.37885 4.13181 3.66005C3.94392 3.94126 3.67685 4.16044 3.36439 4.28986C3.05193 4.41929 2.7081 4.45315 2.3764 4.38717C2.04469 4.32119 1.74 4.15833 1.50085 3.91918C1.2617 3.68003 1.09884 3.37534 1.03286 3.04363C0.966877 2.71193 1.00074 2.3681 1.13017 2.05564C1.25959 1.74318 1.47877 1.47611 1.75998 1.28822C2.04118 1.10032 2.37179 1.00003 2.71 1.00003C2.93493 0.998703 3.15789 1.04203 3.36596 1.12749C3.57402 1.21296 3.76306 1.33887 3.92211 1.49792C4.08117 1.65697 4.20707 1.84601 4.29254 2.05407C4.378 2.26214 4.42133 2.4851 4.42 2.71003V2.71003Z" stroke="#C6C6C6" stroke-width="0.68" stroke-linecap="round" stroke-linejoin="round"/>
<path d="M13.6504 4.42C14.5948 4.42 15.3604 3.65441 15.3604 2.71C15.3604 1.76559 14.5948 1 13.6504 1C12.706 1 11.9404 1.76559 11.9404 2.71C11.9404 3.65441 12.706 4.42 13.6504 4.42Z" stroke="#C6C6C6" stroke-width="0.68" stroke-linecap="round" stroke-linejoin="round"/>
<path d="M24.5899 4.42C25.5343 4.42 26.2999 3.65441 26.2999 2.71C26.2999 1.76559 25.5343 1 24.5899 1C23.6455 1 22.8799 1.76559 22.8799 2.71C22.8799 3.65441 23.6455 4.42 24.5899 4.42Z" stroke="#C6C6C6" stroke-width="0.68" stroke-linecap="round" stroke-linejoin="round"/>
<path d="M35.5303 4.42C36.4747 4.42 37.2403 3.65441 37.2403 2.71C37.2403 1.76559 36.4747 1 35.5303 1C34.5859 1 33.8203 1.76559 33.8203 2.71C33.8203 3.65441 34.5859 4.42 35.5303 4.42Z" stroke="#C6C6C6" stroke-width="0.68" stroke-linecap="round" stroke-linejoin="round"/>
<path d="M46.4698 4.42C47.4142 4.42 48.1798 3.65441 48.1798 2.71C48.1798 1.76559 47.4142 1 46.4698 1C45.5254 1 44.7598 1.76559 44.7598 2.71C44.7598 3.65441 45.5254 4.42 46.4698 4.42Z" stroke="#C6C6C6" stroke-width="0.68" stroke-linecap="round" stroke-linejoin="round"/>
<path d="M57.4102 4.42C58.3546 4.42 59.1202 3.65441 59.1202 2.71C59.1202 1.76559 58.3546 1 57.4102 1C56.4658 1 55.7002 1.76559 55.7002 2.71C55.7002 3.65441 56.4658 4.42 57.4102 4.42Z" stroke="#C6C6C6" stroke-width="0.68" stroke-linecap="round" stroke-linejoin="round"/>
<path d="M68.3496 4.42C69.2941 4.42 70.0596 3.65441 70.0596 2.71C70.0596 1.76559 69.2941 1 68.3496 1C67.4052 1 66.6396 1.76559 66.6396 2.71C66.6396 3.65441 67.4052 4.42 68.3496 4.42Z" stroke="#C6C6C6" stroke-width="0.68" stroke-linecap="round" stroke-linejoin="round"/>
<path d="M81.0001 2.71003C81.0001 3.04824 80.8998 3.37885 80.7119 3.66005C80.524 3.94126 80.2569 4.16044 79.9445 4.28986C79.632 4.41929 79.2882 4.45315 78.9565 4.38717C78.6248 4.32119 78.3201 4.15833 78.0809 3.91918C77.8418 3.68003 77.6789 3.37534 77.6129 3.04363C77.547 2.71193 77.5808 2.3681 77.7102 2.05564C77.8397 1.74318 78.0588 1.47611 78.3401 1.28822C78.6213 1.10032 78.9519 1.00003 79.2901 1.00003C79.515 0.998703 79.738 1.04203 79.946 1.12749C80.1541 1.21296 80.3431 1.33887 80.5022 1.49792C80.6612 1.65697 80.7872 1.84601 80.8726 2.05407C80.9581 2.26214 81.0014 2.4851 81.0001 2.71003Z" stroke="#C6C6C6" stroke-width="0.68" stroke-linecap="round" stroke-linejoin="round"/>
</svg>
