<svg width="80" height="80" viewBox="0 0 80 80" fill="none" xmlns="http://www.w3.org/2000/svg">
<mask id="mask0_176_1244" style="mask-type:alpha" maskUnits="userSpaceOnUse" x="0" y="0" width="80" height="80">
<rect width="80" height="80" fill="#C4C4C4"/>
</mask>
<g mask="url(#mask0_176_1244)">
<path d="M90.5 40C90.5 67.8904 67.8904 90.5 40 90.5C12.1096 90.5 -10.5 67.8904 -10.5 40C-10.5 12.1096 12.1096 -10.5 40 -10.5C67.8904 -10.5 90.5 12.1096 90.5 40Z" stroke="#C6C6C6" stroke-miterlimit="10"/>
<path d="M80.1182 40C80.1182 62.1567 62.1567 80.1182 40 80.1182C17.8434 80.1182 -0.118164 62.1567 -0.118164 40C-0.118164 17.8434 17.8434 -0.118164 40 -0.118164C62.1567 -0.118164 80.1182 17.8434 80.1182 40Z" stroke="#C6C6C6" stroke-miterlimit="10"/>
<path d="M69.7462 40C69.7462 56.4284 56.4284 69.7462 40 69.7462C23.5717 69.7462 10.2539 56.4284 10.2539 40C10.2539 23.5717 23.5717 10.2539 40 10.2539C56.4284 10.2539 69.7462 23.5717 69.7462 40Z" stroke="#C6C6C6" stroke-miterlimit="10"/>
<path d="M52.5671 25.259C60.7042 32.1989 61.6747 44.4213 54.7348 52.5584C47.7949 60.6954 35.5725 61.6659 27.4355 54.726C19.2984 47.7861 18.3279 35.5638 25.2678 27.4267C32.2077 19.2896 44.43 18.3191 52.5671 25.259Z" stroke="#C6C6C6" stroke-miterlimit="10"/>
<path d="M46.3496 33.6484C49.8575 37.1563 49.8575 42.8437 46.3496 46.3516C42.8418 49.8595 37.1544 49.8595 33.6465 46.3516C30.1387 42.8437 30.1387 37.1563 33.6465 33.6484C37.1544 30.1405 42.8418 30.1405 46.3496 33.6484Z" stroke="#C6C6C6" stroke-miterlimit="10"/>
</g>
</svg>
